%TF.GenerationSoftware,KiCad,Pcbnew,6.0.0+dfsg1-2*%
%TF.CreationDate,2022-01-11T21:41:48+02:00*%
%TF.ProjectId,wattbreaker,77617474-6272-4656-916b-65722e6b6963,rev?*%
%TF.SameCoordinates,Original*%
%TF.FileFunction,Soldermask,Top*%
%TF.FilePolarity,Negative*%
%FSLAX46Y46*%
G04 Gerber Fmt 4.6, Leading zero omitted, Abs format (unit mm)*
G04 Created by KiCad (PCBNEW 6.0.0+dfsg1-2) date 2022-01-11 21:41:48*
%MOMM*%
%LPD*%
G01*
G04 APERTURE LIST*
%ADD10R,1.600000X1.600000*%
%ADD11O,1.600000X1.600000*%
%ADD12C,1.600000*%
%ADD13R,2.540000X2.540000*%
%ADD14O,2.540000X2.540000*%
%ADD15R,2.200000X2.200000*%
%ADD16O,2.200000X2.200000*%
%ADD17R,1.930400X1.930400*%
%ADD18O,1.930400X1.930400*%
G04 APERTURE END LIST*
D10*
%TO.C,U1*%
X114800000Y-61200000D03*
D11*
X112260000Y-61200000D03*
X109720000Y-61200000D03*
X107180000Y-61200000D03*
X107180000Y-68820000D03*
X109720000Y-68820000D03*
X112260000Y-68820000D03*
X114800000Y-68820000D03*
%TD*%
D10*
%TO.C,D5*%
X126400000Y-75590000D03*
D11*
X118780000Y-75590000D03*
%TD*%
D10*
%TO.C,C6*%
X90570000Y-59120000D03*
D12*
X88070000Y-59120000D03*
%TD*%
%TO.C,R8*%
X88970000Y-77500000D03*
D11*
X88970000Y-69880000D03*
%TD*%
D13*
%TO.C,RV3*%
X103920000Y-56000000D03*
D14*
X109000000Y-56000000D03*
X114080000Y-56000000D03*
%TD*%
D15*
%TO.C,D3*%
X95210000Y-72010000D03*
D16*
X95210000Y-82170000D03*
%TD*%
D12*
%TO.C,C2*%
X94530000Y-56810000D03*
X94530000Y-61810000D03*
%TD*%
%TO.C,R4*%
X97630000Y-61020000D03*
D11*
X97630000Y-53400000D03*
%TD*%
D12*
%TO.C,R1*%
X105575000Y-78025000D03*
D11*
X97955000Y-78025000D03*
%TD*%
D10*
%TO.C,D4*%
X126400000Y-78200000D03*
D11*
X118780000Y-78200000D03*
%TD*%
D12*
%TO.C,C8*%
X124070000Y-70190000D03*
X119070000Y-70190000D03*
%TD*%
%TO.C,R10*%
X109000000Y-74970000D03*
D11*
X116620000Y-74970000D03*
%TD*%
D12*
%TO.C,C7*%
X109975000Y-71925000D03*
X114975000Y-71925000D03*
%TD*%
%TO.C,R6*%
X120830000Y-61810000D03*
D11*
X128450000Y-61810000D03*
%TD*%
D10*
%TO.C,D2*%
X120800000Y-53030000D03*
D11*
X128420000Y-53030000D03*
%TD*%
D12*
%TO.C,R5*%
X120830000Y-58750000D03*
D11*
X128450000Y-58750000D03*
%TD*%
D12*
%TO.C,R2*%
X100720000Y-61030000D03*
D11*
X100720000Y-53410000D03*
%TD*%
D12*
%TO.C,R11*%
X103990000Y-67820000D03*
D11*
X103990000Y-60200000D03*
%TD*%
D13*
%TO.C,RV1*%
X130080000Y-66000000D03*
D14*
X125000000Y-66000000D03*
X119920000Y-66000000D03*
%TD*%
D12*
%TO.C,C3*%
X94690000Y-52900000D03*
X89690000Y-52900000D03*
%TD*%
%TO.C,C9*%
X114575000Y-52750000D03*
X109575000Y-52750000D03*
%TD*%
%TO.C,R7*%
X92030000Y-77500000D03*
D11*
X92030000Y-69880000D03*
%TD*%
D12*
%TO.C,R9*%
X109000000Y-78050000D03*
D11*
X116620000Y-78050000D03*
%TD*%
D13*
%TO.C,RV2*%
X98080000Y-66000000D03*
D14*
X93000000Y-66000000D03*
X87920000Y-66000000D03*
%TD*%
D12*
%TO.C,C5*%
X130140000Y-69180000D03*
X130140000Y-74180000D03*
%TD*%
D10*
%TO.C,D1*%
X120830000Y-55930000D03*
D11*
X128450000Y-55930000D03*
%TD*%
D10*
%TO.C,D7*%
X126400000Y-73000000D03*
D11*
X118780000Y-73000000D03*
%TD*%
D10*
%TO.C,D6*%
X126400000Y-80790000D03*
D11*
X118780000Y-80790000D03*
%TD*%
D12*
%TO.C,C4*%
X118170000Y-56070000D03*
X118170000Y-61070000D03*
%TD*%
D17*
%TO.C,J1*%
X105190000Y-82250000D03*
D18*
X107730000Y-82250000D03*
X110270000Y-82250000D03*
X112810000Y-82250000D03*
%TD*%
D12*
%TO.C,R3*%
X105540000Y-74930000D03*
D11*
X97920000Y-74930000D03*
%TD*%
D12*
%TO.C,C1*%
X103400000Y-71900000D03*
X98400000Y-71900000D03*
%TD*%
D17*
%TO.C,J2*%
X99315000Y-82275000D03*
D18*
X101855000Y-82275000D03*
%TD*%
M02*
