M48
; DRILL file {KiCad 6.0.0+dfsg1-2} date ti 11. tammikuuta 2022 21.41.42
; FORMAT={-:-/ absolute / inch / decimal}
; #@! TF.CreationDate,2022-01-11T21:41:42+02:00
; #@! TF.GenerationSoftware,Kicad,Pcbnew,6.0.0+dfsg1-2
; #@! TF.FileFunction,Plated,1,2,PTH
FMAT,2
INCH
; #@! TA.AperFunction,Plated,PTH,ViaDrill
T1C0.0157
; #@! TA.AperFunction,Plated,PTH,ComponentDrill
T2C0.0315
; #@! TA.AperFunction,Plated,PTH,ComponentDrill
T3C0.0433
; #@! TA.AperFunction,Plated,PTH,ComponentDrill
T4C0.0551
%
G90
G05
T1
X4.5248Y-2.9866
X4.8756Y-2.178
T2
X3.4673Y-2.3276
X3.5028Y-2.7512
X3.5028Y-3.0512
X3.5311Y-2.0827
X3.5657Y-2.3276
X3.6232Y-2.7512
X3.6232Y-3.0512
X3.7217Y-2.2366
X3.7217Y-2.4335
X3.728Y-2.0827
X3.8437Y-2.1024
X3.8437Y-2.4024
X3.8551Y-2.95
X3.8565Y-3.0719
X3.874Y-2.8307
X3.9654Y-2.1028
X3.9654Y-2.4028
X4.0709Y-2.8307
X4.0941Y-2.3701
X4.0941Y-2.6701
X4.1551Y-2.95
X4.1565Y-3.0719
X4.2197Y-2.4094
X4.2197Y-2.7094
X4.2913Y-2.9516
X4.2913Y-3.0728
X4.314Y-2.0768
X4.3197Y-2.4094
X4.3197Y-2.7094
X4.3297Y-2.8317
X4.4197Y-2.4094
X4.4197Y-2.7094
X4.5108Y-2.0768
X4.5197Y-2.4094
X4.5197Y-2.7094
X4.5266Y-2.8317
X4.5913Y-2.9516
X4.5913Y-3.0728
X4.6524Y-2.2075
X4.6524Y-2.4043
X4.6764Y-2.874
X4.6764Y-2.976
X4.6764Y-3.0787
X4.6764Y-3.1807
X4.6878Y-2.7634
X4.7559Y-2.0878
X4.7571Y-2.202
X4.7571Y-2.313
X4.7571Y-2.4335
X4.8846Y-2.7634
X4.9764Y-2.874
X4.9764Y-2.976
X4.9764Y-3.0787
X4.9764Y-3.1807
X5.0559Y-2.0878
X5.0571Y-2.202
X5.0571Y-2.313
X5.0571Y-2.4335
X5.1236Y-2.7236
X5.1236Y-2.9205
T3
X3.7484Y-2.835
X3.7484Y-3.235
X3.91Y-3.2392
X4.01Y-3.2392
X4.1413Y-3.2382
X4.2413Y-3.2382
X4.3413Y-3.2382
X4.4413Y-3.2382
T4
X3.4614Y-2.5984
X3.6614Y-2.5984
X3.8614Y-2.5984
X4.0913Y-2.2047
X4.2913Y-2.2047
X4.4913Y-2.2047
X4.7213Y-2.5984
X4.9213Y-2.5984
X5.1213Y-2.5984
T0
M30
