G04 #@! TF.GenerationSoftware,KiCad,Pcbnew,(5.99.0-8228-g6def20e3f7)*
G04 #@! TF.CreationDate,2021-01-08T15:13:12+02:00*
G04 #@! TF.ProjectId,wattbreaker,77617474-6272-4656-916b-65722e6b6963,rev?*
G04 #@! TF.SameCoordinates,Original*
G04 #@! TF.FileFunction,Legend,Bot*
G04 #@! TF.FilePolarity,Positive*
%FSLAX46Y46*%
G04 Gerber Fmt 4.6, Leading zero omitted, Abs format (unit mm)*
G04 Created by KiCad (PCBNEW (5.99.0-8228-g6def20e3f7)) date 2021-01-08 15:13:12*
%MOMM*%
%LPD*%
G01*
G04 APERTURE LIST*
%ADD10C,0.127000*%
%ADD11C,0.150000*%
%ADD12C,0.100000*%
%ADD13R,1.600000X1.600000*%
%ADD14O,1.600000X1.600000*%
%ADD15C,1.600000*%
%ADD16R,2.540000X2.540000*%
%ADD17O,2.540000X2.540000*%
%ADD18R,2.200000X2.200000*%
%ADD19O,2.200000X2.200000*%
%ADD20R,1.930400X1.930400*%
%ADD21O,1.930400X1.930400*%
G04 APERTURE END LIST*
D10*
X130204571Y-75507142D02*
X130737904Y-75697619D01*
X130204571Y-75888095D01*
X129937904Y-76345238D02*
X129937904Y-76421428D01*
X129976000Y-76497619D01*
X130014095Y-76535714D01*
X130090285Y-76573809D01*
X130242666Y-76611904D01*
X130433142Y-76611904D01*
X130585523Y-76573809D01*
X130661714Y-76535714D01*
X130699809Y-76497619D01*
X130737904Y-76421428D01*
X130737904Y-76345238D01*
X130699809Y-76269047D01*
X130661714Y-76230952D01*
X130585523Y-76192857D01*
X130433142Y-76154761D01*
X130242666Y-76154761D01*
X130090285Y-76192857D01*
X130014095Y-76230952D01*
X129976000Y-76269047D01*
X129937904Y-76345238D01*
X130661714Y-76954761D02*
X130699809Y-76992857D01*
X130737904Y-76954761D01*
X130699809Y-76916666D01*
X130661714Y-76954761D01*
X130737904Y-76954761D01*
X130737904Y-77754761D02*
X130737904Y-77297619D01*
X130737904Y-77526190D02*
X129937904Y-77526190D01*
X130052190Y-77450000D01*
X130128380Y-77373809D01*
X130166476Y-77297619D01*
X131302095Y-72764285D02*
X131264000Y-72802380D01*
X131225904Y-72878571D01*
X131225904Y-73069047D01*
X131264000Y-73145238D01*
X131302095Y-73183333D01*
X131378285Y-73221428D01*
X131454476Y-73221428D01*
X131568761Y-73183333D01*
X132025904Y-72726190D01*
X132025904Y-73221428D01*
X131225904Y-73716666D02*
X131225904Y-73792857D01*
X131264000Y-73869047D01*
X131302095Y-73907142D01*
X131378285Y-73945238D01*
X131530666Y-73983333D01*
X131721142Y-73983333D01*
X131873523Y-73945238D01*
X131949714Y-73907142D01*
X131987809Y-73869047D01*
X132025904Y-73792857D01*
X132025904Y-73716666D01*
X131987809Y-73640476D01*
X131949714Y-73602380D01*
X131873523Y-73564285D01*
X131721142Y-73526190D01*
X131530666Y-73526190D01*
X131378285Y-73564285D01*
X131302095Y-73602380D01*
X131264000Y-73640476D01*
X131225904Y-73716666D01*
X131302095Y-74288095D02*
X131264000Y-74326190D01*
X131225904Y-74402380D01*
X131225904Y-74592857D01*
X131264000Y-74669047D01*
X131302095Y-74707142D01*
X131378285Y-74745238D01*
X131454476Y-74745238D01*
X131568761Y-74707142D01*
X132025904Y-74250000D01*
X132025904Y-74745238D01*
X132025904Y-75507142D02*
X132025904Y-75050000D01*
X132025904Y-75278571D02*
X131225904Y-75278571D01*
X131340190Y-75202380D01*
X131416380Y-75126190D01*
X131454476Y-75050000D01*
X131721142Y-75850000D02*
X131721142Y-76459523D01*
X131225904Y-76992857D02*
X131225904Y-77069047D01*
X131264000Y-77145238D01*
X131302095Y-77183333D01*
X131378285Y-77221428D01*
X131530666Y-77259523D01*
X131721142Y-77259523D01*
X131873523Y-77221428D01*
X131949714Y-77183333D01*
X131987809Y-77145238D01*
X132025904Y-77069047D01*
X132025904Y-76992857D01*
X131987809Y-76916666D01*
X131949714Y-76878571D01*
X131873523Y-76840476D01*
X131721142Y-76802380D01*
X131530666Y-76802380D01*
X131378285Y-76840476D01*
X131302095Y-76878571D01*
X131264000Y-76916666D01*
X131225904Y-76992857D01*
X132025904Y-78021428D02*
X132025904Y-77564285D01*
X132025904Y-77792857D02*
X131225904Y-77792857D01*
X131340190Y-77716666D01*
X131416380Y-77640476D01*
X131454476Y-77564285D01*
X131721142Y-78364285D02*
X131721142Y-78973809D01*
X131225904Y-79507142D02*
X131225904Y-79583333D01*
X131264000Y-79659523D01*
X131302095Y-79697619D01*
X131378285Y-79735714D01*
X131530666Y-79773809D01*
X131721142Y-79773809D01*
X131873523Y-79735714D01*
X131949714Y-79697619D01*
X131987809Y-79659523D01*
X132025904Y-79583333D01*
X132025904Y-79507142D01*
X131987809Y-79430952D01*
X131949714Y-79392857D01*
X131873523Y-79354761D01*
X131721142Y-79316666D01*
X131530666Y-79316666D01*
X131378285Y-79354761D01*
X131302095Y-79392857D01*
X131264000Y-79430952D01*
X131225904Y-79507142D01*
X131568761Y-80230952D02*
X131530666Y-80154761D01*
X131492571Y-80116666D01*
X131416380Y-80078571D01*
X131378285Y-80078571D01*
X131302095Y-80116666D01*
X131264000Y-80154761D01*
X131225904Y-80230952D01*
X131225904Y-80383333D01*
X131264000Y-80459523D01*
X131302095Y-80497619D01*
X131378285Y-80535714D01*
X131416380Y-80535714D01*
X131492571Y-80497619D01*
X131530666Y-80459523D01*
X131568761Y-80383333D01*
X131568761Y-80230952D01*
X131606857Y-80154761D01*
X131644952Y-80116666D01*
X131721142Y-80078571D01*
X131873523Y-80078571D01*
X131949714Y-80116666D01*
X131987809Y-80154761D01*
X132025904Y-80230952D01*
X132025904Y-80383333D01*
X131987809Y-80459523D01*
X131949714Y-80497619D01*
X131873523Y-80535714D01*
X131721142Y-80535714D01*
X131644952Y-80497619D01*
X131606857Y-80459523D01*
X131568761Y-80383333D01*
X122238571Y-65003333D02*
X122886190Y-65003333D01*
X122962380Y-64970000D01*
X123000476Y-64936666D01*
X123038571Y-64870000D01*
X123038571Y-64770000D01*
X123000476Y-64703333D01*
X122733809Y-65003333D02*
X122771904Y-64936666D01*
X122771904Y-64803333D01*
X122733809Y-64736666D01*
X122695714Y-64703333D01*
X122619523Y-64670000D01*
X122390952Y-64670000D01*
X122314761Y-64703333D01*
X122276666Y-64736666D01*
X122238571Y-64803333D01*
X122238571Y-64936666D01*
X122276666Y-65003333D01*
X122771904Y-65336666D02*
X122238571Y-65336666D01*
X121971904Y-65336666D02*
X122010000Y-65303333D01*
X122048095Y-65336666D01*
X122010000Y-65370000D01*
X121971904Y-65336666D01*
X122048095Y-65336666D01*
X122238571Y-65570000D02*
X122238571Y-65836666D01*
X121971904Y-65670000D02*
X122657619Y-65670000D01*
X122733809Y-65703333D01*
X122771904Y-65770000D01*
X122771904Y-65836666D01*
X122771904Y-66070000D02*
X121971904Y-66070000D01*
X122771904Y-66370000D02*
X122352857Y-66370000D01*
X122276666Y-66336666D01*
X122238571Y-66270000D01*
X122238571Y-66170000D01*
X122276666Y-66103333D01*
X122314761Y-66070000D01*
X122238571Y-67003333D02*
X122771904Y-67003333D01*
X122238571Y-66703333D02*
X122657619Y-66703333D01*
X122733809Y-66736666D01*
X122771904Y-66803333D01*
X122771904Y-66903333D01*
X122733809Y-66970000D01*
X122695714Y-67003333D01*
X122771904Y-67336666D02*
X121971904Y-67336666D01*
X122276666Y-67336666D02*
X122238571Y-67403333D01*
X122238571Y-67536666D01*
X122276666Y-67603333D01*
X122314761Y-67636666D01*
X122390952Y-67670000D01*
X122619523Y-67670000D01*
X122695714Y-67636666D01*
X122733809Y-67603333D01*
X122771904Y-67536666D01*
X122771904Y-67403333D01*
X122733809Y-67336666D01*
X122695714Y-67970000D02*
X122733809Y-68003333D01*
X122771904Y-67970000D01*
X122733809Y-67936666D01*
X122695714Y-67970000D01*
X122771904Y-67970000D01*
X122733809Y-68603333D02*
X122771904Y-68536666D01*
X122771904Y-68403333D01*
X122733809Y-68336666D01*
X122695714Y-68303333D01*
X122619523Y-68270000D01*
X122390952Y-68270000D01*
X122314761Y-68303333D01*
X122276666Y-68336666D01*
X122238571Y-68403333D01*
X122238571Y-68536666D01*
X122276666Y-68603333D01*
X122771904Y-69003333D02*
X122733809Y-68936666D01*
X122695714Y-68903333D01*
X122619523Y-68870000D01*
X122390952Y-68870000D01*
X122314761Y-68903333D01*
X122276666Y-68936666D01*
X122238571Y-69003333D01*
X122238571Y-69103333D01*
X122276666Y-69170000D01*
X122314761Y-69203333D01*
X122390952Y-69236666D01*
X122619523Y-69236666D01*
X122695714Y-69203333D01*
X122733809Y-69170000D01*
X122771904Y-69103333D01*
X122771904Y-69003333D01*
X122771904Y-69536666D02*
X122238571Y-69536666D01*
X122314761Y-69536666D02*
X122276666Y-69570000D01*
X122238571Y-69636666D01*
X122238571Y-69736666D01*
X122276666Y-69803333D01*
X122352857Y-69836666D01*
X122771904Y-69836666D01*
X122352857Y-69836666D02*
X122276666Y-69870000D01*
X122238571Y-69936666D01*
X122238571Y-70036666D01*
X122276666Y-70103333D01*
X122352857Y-70136666D01*
X122771904Y-70136666D01*
X121933809Y-70970000D02*
X122962380Y-70370000D01*
X122771904Y-71203333D02*
X122238571Y-71203333D01*
X122390952Y-71203333D02*
X122314761Y-71236666D01*
X122276666Y-71270000D01*
X122238571Y-71336666D01*
X122238571Y-71403333D01*
X122771904Y-71736666D02*
X122733809Y-71670000D01*
X122695714Y-71636666D01*
X122619523Y-71603333D01*
X122390952Y-71603333D01*
X122314761Y-71636666D01*
X122276666Y-71670000D01*
X122238571Y-71736666D01*
X122238571Y-71836666D01*
X122276666Y-71903333D01*
X122314761Y-71936666D01*
X122390952Y-71970000D01*
X122619523Y-71970000D01*
X122695714Y-71936666D01*
X122733809Y-71903333D01*
X122771904Y-71836666D01*
X122771904Y-71736666D01*
X122733809Y-72570000D02*
X122771904Y-72503333D01*
X122771904Y-72370000D01*
X122733809Y-72303333D01*
X122695714Y-72270000D01*
X122619523Y-72236666D01*
X122390952Y-72236666D01*
X122314761Y-72270000D01*
X122276666Y-72303333D01*
X122238571Y-72370000D01*
X122238571Y-72503333D01*
X122276666Y-72570000D01*
X122771904Y-72870000D02*
X121971904Y-72870000D01*
X122467142Y-72936666D02*
X122771904Y-73136666D01*
X122238571Y-73136666D02*
X122543333Y-72870000D01*
X122771904Y-73536666D02*
X122733809Y-73470000D01*
X122695714Y-73436666D01*
X122619523Y-73403333D01*
X122390952Y-73403333D01*
X122314761Y-73436666D01*
X122276666Y-73470000D01*
X122238571Y-73536666D01*
X122238571Y-73636666D01*
X122276666Y-73703333D01*
X122314761Y-73736666D01*
X122390952Y-73770000D01*
X122619523Y-73770000D01*
X122695714Y-73736666D01*
X122733809Y-73703333D01*
X122771904Y-73636666D01*
X122771904Y-73536666D01*
X122771904Y-74170000D02*
X122733809Y-74103333D01*
X122657619Y-74070000D01*
X121971904Y-74070000D01*
X122771904Y-74736666D02*
X122352857Y-74736666D01*
X122276666Y-74703333D01*
X122238571Y-74636666D01*
X122238571Y-74503333D01*
X122276666Y-74436666D01*
X122733809Y-74736666D02*
X122771904Y-74670000D01*
X122771904Y-74503333D01*
X122733809Y-74436666D01*
X122657619Y-74403333D01*
X122581428Y-74403333D01*
X122505238Y-74436666D01*
X122467142Y-74503333D01*
X122467142Y-74670000D01*
X122429047Y-74736666D01*
X121933809Y-75570000D02*
X122962380Y-74970000D01*
X122238571Y-75736666D02*
X122771904Y-75870000D01*
X122390952Y-76003333D01*
X122771904Y-76136666D01*
X122238571Y-76270000D01*
X122771904Y-76836666D02*
X122352857Y-76836666D01*
X122276666Y-76803333D01*
X122238571Y-76736666D01*
X122238571Y-76603333D01*
X122276666Y-76536666D01*
X122733809Y-76836666D02*
X122771904Y-76770000D01*
X122771904Y-76603333D01*
X122733809Y-76536666D01*
X122657619Y-76503333D01*
X122581428Y-76503333D01*
X122505238Y-76536666D01*
X122467142Y-76603333D01*
X122467142Y-76770000D01*
X122429047Y-76836666D01*
X122238571Y-77070000D02*
X122238571Y-77336666D01*
X121971904Y-77170000D02*
X122657619Y-77170000D01*
X122733809Y-77203333D01*
X122771904Y-77270000D01*
X122771904Y-77336666D01*
X122238571Y-77470000D02*
X122238571Y-77736666D01*
X121971904Y-77570000D02*
X122657619Y-77570000D01*
X122733809Y-77603333D01*
X122771904Y-77670000D01*
X122771904Y-77736666D01*
X122771904Y-77970000D02*
X121971904Y-77970000D01*
X122276666Y-77970000D02*
X122238571Y-78036666D01*
X122238571Y-78170000D01*
X122276666Y-78236666D01*
X122314761Y-78270000D01*
X122390952Y-78303333D01*
X122619523Y-78303333D01*
X122695714Y-78270000D01*
X122733809Y-78236666D01*
X122771904Y-78170000D01*
X122771904Y-78036666D01*
X122733809Y-77970000D01*
X122771904Y-78603333D02*
X122238571Y-78603333D01*
X122390952Y-78603333D02*
X122314761Y-78636666D01*
X122276666Y-78670000D01*
X122238571Y-78736666D01*
X122238571Y-78803333D01*
X122733809Y-79303333D02*
X122771904Y-79236666D01*
X122771904Y-79103333D01*
X122733809Y-79036666D01*
X122657619Y-79003333D01*
X122352857Y-79003333D01*
X122276666Y-79036666D01*
X122238571Y-79103333D01*
X122238571Y-79236666D01*
X122276666Y-79303333D01*
X122352857Y-79336666D01*
X122429047Y-79336666D01*
X122505238Y-79003333D01*
X122771904Y-79936666D02*
X122352857Y-79936666D01*
X122276666Y-79903333D01*
X122238571Y-79836666D01*
X122238571Y-79703333D01*
X122276666Y-79636666D01*
X122733809Y-79936666D02*
X122771904Y-79870000D01*
X122771904Y-79703333D01*
X122733809Y-79636666D01*
X122657619Y-79603333D01*
X122581428Y-79603333D01*
X122505238Y-79636666D01*
X122467142Y-79703333D01*
X122467142Y-79870000D01*
X122429047Y-79936666D01*
X122771904Y-80270000D02*
X121971904Y-80270000D01*
X122467142Y-80336666D02*
X122771904Y-80536666D01*
X122238571Y-80536666D02*
X122543333Y-80270000D01*
X122733809Y-81103333D02*
X122771904Y-81036666D01*
X122771904Y-80903333D01*
X122733809Y-80836666D01*
X122657619Y-80803333D01*
X122352857Y-80803333D01*
X122276666Y-80836666D01*
X122238571Y-80903333D01*
X122238571Y-81036666D01*
X122276666Y-81103333D01*
X122352857Y-81136666D01*
X122429047Y-81136666D01*
X122505238Y-80803333D01*
X122771904Y-81436666D02*
X122238571Y-81436666D01*
X122390952Y-81436666D02*
X122314761Y-81470000D01*
X122276666Y-81503333D01*
X122238571Y-81570000D01*
X122238571Y-81636666D01*
D11*
X130300000Y-81966190D02*
X130500000Y-82118571D01*
X130600000Y-82270952D01*
X130700000Y-82499523D01*
X130700000Y-82728095D01*
X130600000Y-82956666D01*
X130500000Y-83109047D01*
X130300000Y-83261428D01*
X130100000Y-83337619D01*
X129800000Y-83413809D01*
X129600000Y-83413809D01*
X129300000Y-83337619D01*
X129100000Y-83261428D01*
X128900000Y-83109047D01*
X128800000Y-82956666D01*
X128700000Y-82728095D01*
X128700000Y-82499523D01*
X128800000Y-82270952D01*
X128900000Y-82118571D01*
X129100000Y-81966190D01*
X130500000Y-82270952D02*
X130600000Y-82499523D01*
X130600000Y-82728095D01*
X130500000Y-82956666D01*
X130400000Y-83109047D01*
X130500000Y-82118571D02*
X130400000Y-82194761D01*
X130400000Y-82270952D01*
X130500000Y-82499523D01*
X130500000Y-82728095D01*
X130400000Y-83032857D01*
X130300000Y-83185238D01*
X130100000Y-83337619D01*
X129000000Y-83109047D02*
X128900000Y-82956666D01*
X128800000Y-82728095D01*
X128800000Y-82499523D01*
X128900000Y-82270952D01*
X129300000Y-83337619D02*
X129100000Y-83185238D01*
X129000000Y-83032857D01*
X128900000Y-82728095D01*
X128900000Y-82499523D01*
X129000000Y-82270952D01*
X129000000Y-82194761D01*
X128900000Y-82118571D01*
X129800000Y-82042380D02*
X129800000Y-83413809D01*
X129700000Y-82118571D02*
X129700000Y-83337619D01*
X129600000Y-82042380D02*
X129600000Y-83413809D01*
X130700000Y-81813809D02*
X130300000Y-81966190D01*
X129900000Y-82042380D01*
X129500000Y-82042380D01*
X129100000Y-81966190D01*
X128700000Y-81813809D01*
X127800000Y-82651904D02*
X128100000Y-82880476D01*
X128100000Y-83185238D01*
X127800000Y-83413809D01*
X127400000Y-83261428D01*
X128000000Y-82880476D02*
X128000000Y-83185238D01*
X127800000Y-83337619D01*
X127900000Y-82728095D02*
X127900000Y-83109047D01*
X127600000Y-83337619D01*
X127600000Y-82804285D02*
X128100000Y-82423333D01*
X128000000Y-82347142D01*
X127900000Y-82423333D01*
X128000000Y-82499523D01*
X127900000Y-82423333D02*
X127500000Y-82423333D01*
X127300000Y-82347142D01*
X127100000Y-82499523D01*
X127100000Y-83185238D01*
X127000000Y-83261428D01*
X127300000Y-82423333D02*
X127200000Y-82499523D01*
X127200000Y-83185238D01*
X127300000Y-83261428D01*
X127200000Y-83337619D01*
X127100000Y-83261428D01*
X127200000Y-83185238D01*
X127500000Y-82423333D02*
X127300000Y-82575714D01*
X127300000Y-83185238D01*
X127400000Y-83261428D01*
X127200000Y-83413809D01*
X127000000Y-83261428D01*
X126200000Y-81966190D02*
X126400000Y-81813809D01*
X126300000Y-82118571D01*
X126300000Y-83185238D01*
X126400000Y-83261428D01*
X126200000Y-83413809D01*
X126200000Y-81966190D02*
X126200000Y-83185238D01*
X126300000Y-83261428D01*
X126200000Y-83337619D01*
X126100000Y-83261428D01*
X126200000Y-83185238D01*
X126200000Y-81966190D02*
X126000000Y-81813809D01*
X126100000Y-82118571D01*
X126100000Y-83185238D01*
X126000000Y-83261428D01*
X126200000Y-83413809D01*
X126600000Y-82347142D02*
X126300000Y-82347142D01*
X126100000Y-82347142D02*
X125800000Y-82347142D01*
X125200000Y-81966190D02*
X125400000Y-81813809D01*
X125300000Y-82118571D01*
X125300000Y-83185238D01*
X125400000Y-83261428D01*
X125200000Y-83413809D01*
X125200000Y-81966190D02*
X125200000Y-83185238D01*
X125300000Y-83261428D01*
X125200000Y-83337619D01*
X125100000Y-83261428D01*
X125200000Y-83185238D01*
X125200000Y-81966190D02*
X125000000Y-81813809D01*
X125100000Y-82118571D01*
X125100000Y-83185238D01*
X125000000Y-83261428D01*
X125200000Y-83413809D01*
X125600000Y-82347142D02*
X125300000Y-82347142D01*
X125100000Y-82347142D02*
X124800000Y-82347142D01*
X124200000Y-81966190D02*
X124400000Y-81813809D01*
X124300000Y-82118571D01*
X124300000Y-83185238D01*
X124000000Y-83413809D01*
X123500000Y-83261428D01*
X123300000Y-83185238D01*
X124200000Y-81966190D02*
X124200000Y-83185238D01*
X124000000Y-83337619D01*
X124200000Y-81966190D02*
X124000000Y-81813809D01*
X124100000Y-82118571D01*
X124100000Y-83109047D01*
X123800000Y-83337619D01*
X124100000Y-82499523D02*
X123600000Y-82347142D01*
X123300000Y-82575714D01*
X123300000Y-83185238D01*
X123600000Y-82423333D02*
X123400000Y-82575714D01*
X123400000Y-83185238D01*
X123800000Y-82423333D02*
X123500000Y-82651904D01*
X123500000Y-83261428D01*
X122800000Y-82499523D02*
X122700000Y-82499523D01*
X122600000Y-82575714D01*
X122600000Y-83185238D01*
X122700000Y-83261428D01*
X122500000Y-83413809D01*
X122600000Y-82423333D02*
X122500000Y-82499523D01*
X122500000Y-83185238D01*
X122600000Y-83261428D01*
X122500000Y-83337619D01*
X122400000Y-83261428D01*
X122500000Y-83185238D01*
X122800000Y-82499523D02*
X122600000Y-82347142D01*
X122400000Y-82499523D01*
X122400000Y-83185238D01*
X122300000Y-83261428D01*
X122500000Y-83413809D01*
X122400000Y-82499523D02*
X122000000Y-82347142D01*
X121800000Y-82499523D01*
X122000000Y-82575714D01*
X122200000Y-82423333D01*
X122100000Y-82423333D02*
X121900000Y-82499523D01*
X121400000Y-82575714D02*
X121400000Y-83261428D01*
X121200000Y-83413809D01*
X121000000Y-83261428D01*
X121300000Y-82575714D02*
X121300000Y-83261428D01*
X121200000Y-83337619D01*
X121200000Y-82499523D02*
X121200000Y-83185238D01*
X121100000Y-83261428D01*
X121000000Y-83261428D01*
X121400000Y-82575714D02*
X120800000Y-82347142D01*
X120500000Y-82651904D01*
X121200000Y-82956666D01*
X120900000Y-82423333D02*
X120600000Y-82651904D01*
X121000000Y-82423333D02*
X120700000Y-82728095D01*
X119800000Y-82651904D02*
X120100000Y-82880476D01*
X120100000Y-83185238D01*
X119800000Y-83413809D01*
X119400000Y-83261428D01*
X120000000Y-82880476D02*
X120000000Y-83185238D01*
X119800000Y-83337619D01*
X119900000Y-82728095D02*
X119900000Y-83109047D01*
X119600000Y-83337619D01*
X119600000Y-82804285D02*
X120100000Y-82423333D01*
X120000000Y-82347142D01*
X119900000Y-82423333D01*
X120000000Y-82499523D01*
X119900000Y-82423333D02*
X119500000Y-82423333D01*
X119300000Y-82347142D01*
X119100000Y-82499523D01*
X119100000Y-83185238D01*
X119000000Y-83261428D01*
X119300000Y-82423333D02*
X119200000Y-82499523D01*
X119200000Y-83185238D01*
X119300000Y-83261428D01*
X119200000Y-83337619D01*
X119100000Y-83261428D01*
X119200000Y-83185238D01*
X119500000Y-82423333D02*
X119300000Y-82575714D01*
X119300000Y-83185238D01*
X119400000Y-83261428D01*
X119200000Y-83413809D01*
X119000000Y-83261428D01*
X118200000Y-81966190D02*
X118400000Y-81813809D01*
X118300000Y-82118571D01*
X118300000Y-83185238D01*
X118400000Y-83261428D01*
X118200000Y-83413809D01*
X118200000Y-81966190D02*
X118200000Y-83185238D01*
X118300000Y-83261428D01*
X118200000Y-83337619D01*
X118100000Y-83261428D01*
X118200000Y-83185238D01*
X118200000Y-81966190D02*
X118000000Y-81813809D01*
X118100000Y-82118571D01*
X118100000Y-83185238D01*
X118000000Y-83261428D01*
X118200000Y-83413809D01*
X118100000Y-82575714D02*
X117800000Y-82423333D01*
X117600000Y-82347142D01*
X117400000Y-82575714D01*
X117700000Y-82728095D01*
X118100000Y-82956666D01*
X117700000Y-82423333D02*
X117500000Y-82575714D01*
X117800000Y-82423333D02*
X117600000Y-82651904D01*
X117800000Y-82804285D02*
X117700000Y-82880476D01*
X117600000Y-83261428D01*
X117400000Y-83413809D01*
X117200000Y-83261428D01*
X117700000Y-82804285D02*
X117600000Y-82956666D01*
X117500000Y-83261428D01*
X117400000Y-83337619D01*
X117700000Y-82728095D02*
X117600000Y-82804285D01*
X117400000Y-83185238D01*
X117300000Y-83261428D01*
X117200000Y-83261428D01*
X116700000Y-82575714D02*
X116700000Y-83261428D01*
X116500000Y-83413809D01*
X116300000Y-83261428D01*
X116600000Y-82575714D02*
X116600000Y-83261428D01*
X116500000Y-83337619D01*
X116500000Y-82499523D02*
X116500000Y-83185238D01*
X116400000Y-83261428D01*
X116300000Y-83261428D01*
X116700000Y-82575714D02*
X116100000Y-82347142D01*
X115800000Y-82651904D01*
X116500000Y-82956666D01*
X116200000Y-82423333D02*
X115900000Y-82651904D01*
X116300000Y-82423333D02*
X116000000Y-82728095D01*
X115500000Y-82499523D02*
X115400000Y-82499523D01*
X115300000Y-82575714D01*
X115300000Y-83185238D01*
X115400000Y-83261428D01*
X115200000Y-83413809D01*
X115300000Y-82423333D02*
X115200000Y-82499523D01*
X115200000Y-83185238D01*
X115300000Y-83261428D01*
X115200000Y-83337619D01*
X115100000Y-83261428D01*
X115200000Y-83185238D01*
X115500000Y-82499523D02*
X115300000Y-82347142D01*
X115100000Y-82499523D01*
X115100000Y-83185238D01*
X115000000Y-83261428D01*
X115200000Y-83413809D01*
X115100000Y-82499523D02*
X114700000Y-82347142D01*
X114500000Y-82499523D01*
X114700000Y-82575714D01*
X114900000Y-82423333D01*
X114800000Y-82423333D02*
X114600000Y-82499523D01*
G04 #@! TO.C,RV3*
X113896833Y-57992380D02*
X113325404Y-57992380D01*
X113611119Y-58992380D02*
X113611119Y-57992380D01*
X112420642Y-58992380D02*
X112753976Y-58516190D01*
X112992071Y-58992380D02*
X112992071Y-57992380D01*
X112611119Y-57992380D01*
X112515880Y-58040000D01*
X112468261Y-58087619D01*
X112420642Y-58182857D01*
X112420642Y-58325714D01*
X112468261Y-58420952D01*
X112515880Y-58468571D01*
X112611119Y-58516190D01*
X112992071Y-58516190D01*
X111992071Y-58468571D02*
X111658738Y-58468571D01*
X111515880Y-58992380D02*
X111992071Y-58992380D01*
X111992071Y-57992380D01*
X111515880Y-57992380D01*
X110753976Y-58468571D02*
X110611119Y-58516190D01*
X110563500Y-58563809D01*
X110515880Y-58659047D01*
X110515880Y-58801904D01*
X110563500Y-58897142D01*
X110611119Y-58944761D01*
X110706357Y-58992380D01*
X111087309Y-58992380D01*
X111087309Y-57992380D01*
X110753976Y-57992380D01*
X110658738Y-58040000D01*
X110611119Y-58087619D01*
X110563500Y-58182857D01*
X110563500Y-58278095D01*
X110611119Y-58373333D01*
X110658738Y-58420952D01*
X110753976Y-58468571D01*
X111087309Y-58468571D01*
X109611119Y-58992380D02*
X110087309Y-58992380D01*
X110087309Y-57992380D01*
X109277785Y-58468571D02*
X108944452Y-58468571D01*
X108801595Y-58992380D02*
X109277785Y-58992380D01*
X109277785Y-57992380D01*
X108801595Y-57992380D01*
X107277785Y-58468571D02*
X107134928Y-58516190D01*
X107087309Y-58563809D01*
X107039690Y-58659047D01*
X107039690Y-58801904D01*
X107087309Y-58897142D01*
X107134928Y-58944761D01*
X107230166Y-58992380D01*
X107611119Y-58992380D01*
X107611119Y-57992380D01*
X107277785Y-57992380D01*
X107182547Y-58040000D01*
X107134928Y-58087619D01*
X107087309Y-58182857D01*
X107087309Y-58278095D01*
X107134928Y-58373333D01*
X107182547Y-58420952D01*
X107277785Y-58468571D01*
X107611119Y-58468571D01*
X106087309Y-58992380D02*
X106658738Y-58992380D01*
X106373023Y-58992380D02*
X106373023Y-57992380D01*
X106468261Y-58135238D01*
X106563500Y-58230476D01*
X106658738Y-58278095D01*
X105468261Y-57992380D02*
X105373023Y-57992380D01*
X105277785Y-58040000D01*
X105230166Y-58087619D01*
X105182547Y-58182857D01*
X105134928Y-58373333D01*
X105134928Y-58611428D01*
X105182547Y-58801904D01*
X105230166Y-58897142D01*
X105277785Y-58944761D01*
X105373023Y-58992380D01*
X105468261Y-58992380D01*
X105563500Y-58944761D01*
X105611119Y-58897142D01*
X105658738Y-58801904D01*
X105706357Y-58611428D01*
X105706357Y-58373333D01*
X105658738Y-58182857D01*
X105611119Y-58087619D01*
X105563500Y-58040000D01*
X105468261Y-57992380D01*
X104706357Y-58992380D02*
X104706357Y-57992380D01*
X104611119Y-58611428D02*
X104325404Y-58992380D01*
X104325404Y-58325714D02*
X104706357Y-58706666D01*
D12*
X108714285Y-56452380D02*
X109285714Y-56452380D01*
X109000000Y-56452380D02*
X109000000Y-55452380D01*
X109095238Y-55595238D01*
X109190476Y-55690476D01*
X109285714Y-55738095D01*
D11*
G04 #@! TO.C,RV1*
X128579357Y-62960000D02*
X128674595Y-62912380D01*
X128817452Y-62912380D01*
X128960309Y-62960000D01*
X129055547Y-63055238D01*
X129103166Y-63150476D01*
X129150785Y-63340952D01*
X129150785Y-63483809D01*
X129103166Y-63674285D01*
X129055547Y-63769523D01*
X128960309Y-63864761D01*
X128817452Y-63912380D01*
X128722214Y-63912380D01*
X128579357Y-63864761D01*
X128531738Y-63817142D01*
X128531738Y-63483809D01*
X128722214Y-63483809D01*
X128150785Y-63626666D02*
X127674595Y-63626666D01*
X128246023Y-63912380D02*
X127912690Y-62912380D01*
X127579357Y-63912380D01*
X127246023Y-63912380D02*
X127246023Y-62912380D01*
X126769833Y-63912380D02*
X126769833Y-62912380D01*
X126198404Y-63912380D01*
X126198404Y-62912380D01*
X124626976Y-63388571D02*
X124484119Y-63436190D01*
X124436500Y-63483809D01*
X124388880Y-63579047D01*
X124388880Y-63721904D01*
X124436500Y-63817142D01*
X124484119Y-63864761D01*
X124579357Y-63912380D01*
X124960309Y-63912380D01*
X124960309Y-62912380D01*
X124626976Y-62912380D01*
X124531738Y-62960000D01*
X124484119Y-63007619D01*
X124436500Y-63102857D01*
X124436500Y-63198095D01*
X124484119Y-63293333D01*
X124531738Y-63340952D01*
X124626976Y-63388571D01*
X124960309Y-63388571D01*
X123436500Y-63912380D02*
X124007928Y-63912380D01*
X123722214Y-63912380D02*
X123722214Y-62912380D01*
X123817452Y-63055238D01*
X123912690Y-63150476D01*
X124007928Y-63198095D01*
X122817452Y-62912380D02*
X122722214Y-62912380D01*
X122626976Y-62960000D01*
X122579357Y-63007619D01*
X122531738Y-63102857D01*
X122484119Y-63293333D01*
X122484119Y-63531428D01*
X122531738Y-63721904D01*
X122579357Y-63817142D01*
X122626976Y-63864761D01*
X122722214Y-63912380D01*
X122817452Y-63912380D01*
X122912690Y-63864761D01*
X122960309Y-63817142D01*
X123007928Y-63721904D01*
X123055547Y-63531428D01*
X123055547Y-63293333D01*
X123007928Y-63102857D01*
X122960309Y-63007619D01*
X122912690Y-62960000D01*
X122817452Y-62912380D01*
X121865071Y-62912380D02*
X121769833Y-62912380D01*
X121674595Y-62960000D01*
X121626976Y-63007619D01*
X121579357Y-63102857D01*
X121531738Y-63293333D01*
X121531738Y-63531428D01*
X121579357Y-63721904D01*
X121626976Y-63817142D01*
X121674595Y-63864761D01*
X121769833Y-63912380D01*
X121865071Y-63912380D01*
X121960309Y-63864761D01*
X122007928Y-63817142D01*
X122055547Y-63721904D01*
X122103166Y-63531428D01*
X122103166Y-63293333D01*
X122055547Y-63102857D01*
X122007928Y-63007619D01*
X121960309Y-62960000D01*
X121865071Y-62912380D01*
X121103166Y-63912380D02*
X121103166Y-62912380D01*
X121007928Y-63531428D02*
X120722214Y-63912380D01*
X120722214Y-63245714D02*
X121103166Y-63626666D01*
D12*
X124714285Y-66452380D02*
X125285714Y-66452380D01*
X125000000Y-66452380D02*
X125000000Y-65452380D01*
X125095238Y-65595238D01*
X125190476Y-65690476D01*
X125285714Y-65738095D01*
D11*
G04 #@! TO.C,RV2*
X98460309Y-62912380D02*
X98126976Y-63912380D01*
X97793642Y-62912380D01*
X97269833Y-62912380D02*
X97079357Y-62912380D01*
X96984119Y-62960000D01*
X96888880Y-63055238D01*
X96841261Y-63245714D01*
X96841261Y-63579047D01*
X96888880Y-63769523D01*
X96984119Y-63864761D01*
X97079357Y-63912380D01*
X97269833Y-63912380D01*
X97365071Y-63864761D01*
X97460309Y-63769523D01*
X97507928Y-63579047D01*
X97507928Y-63245714D01*
X97460309Y-63055238D01*
X97365071Y-62960000D01*
X97269833Y-62912380D01*
X95936500Y-63912380D02*
X96412690Y-63912380D01*
X96412690Y-62912380D01*
X95603166Y-62912380D02*
X95603166Y-63721904D01*
X95555547Y-63817142D01*
X95507928Y-63864761D01*
X95412690Y-63912380D01*
X95222214Y-63912380D01*
X95126976Y-63864761D01*
X95079357Y-63817142D01*
X95031738Y-63721904D01*
X95031738Y-62912380D01*
X94555547Y-63912380D02*
X94555547Y-62912380D01*
X94222214Y-63626666D01*
X93888880Y-62912380D01*
X93888880Y-63912380D01*
X93412690Y-63388571D02*
X93079357Y-63388571D01*
X92936500Y-63912380D02*
X93412690Y-63912380D01*
X93412690Y-62912380D01*
X92936500Y-62912380D01*
X91412690Y-63388571D02*
X91269833Y-63436190D01*
X91222214Y-63483809D01*
X91174595Y-63579047D01*
X91174595Y-63721904D01*
X91222214Y-63817142D01*
X91269833Y-63864761D01*
X91365071Y-63912380D01*
X91746023Y-63912380D01*
X91746023Y-62912380D01*
X91412690Y-62912380D01*
X91317452Y-62960000D01*
X91269833Y-63007619D01*
X91222214Y-63102857D01*
X91222214Y-63198095D01*
X91269833Y-63293333D01*
X91317452Y-63340952D01*
X91412690Y-63388571D01*
X91746023Y-63388571D01*
X90222214Y-63912380D02*
X90793642Y-63912380D01*
X90507928Y-63912380D02*
X90507928Y-62912380D01*
X90603166Y-63055238D01*
X90698404Y-63150476D01*
X90793642Y-63198095D01*
X89603166Y-62912380D02*
X89507928Y-62912380D01*
X89412690Y-62960000D01*
X89365071Y-63007619D01*
X89317452Y-63102857D01*
X89269833Y-63293333D01*
X89269833Y-63531428D01*
X89317452Y-63721904D01*
X89365071Y-63817142D01*
X89412690Y-63864761D01*
X89507928Y-63912380D01*
X89603166Y-63912380D01*
X89698404Y-63864761D01*
X89746023Y-63817142D01*
X89793642Y-63721904D01*
X89841261Y-63531428D01*
X89841261Y-63293333D01*
X89793642Y-63102857D01*
X89746023Y-63007619D01*
X89698404Y-62960000D01*
X89603166Y-62912380D01*
X88650785Y-62912380D02*
X88555547Y-62912380D01*
X88460309Y-62960000D01*
X88412690Y-63007619D01*
X88365071Y-63102857D01*
X88317452Y-63293333D01*
X88317452Y-63531428D01*
X88365071Y-63721904D01*
X88412690Y-63817142D01*
X88460309Y-63864761D01*
X88555547Y-63912380D01*
X88650785Y-63912380D01*
X88746023Y-63864761D01*
X88793642Y-63817142D01*
X88841261Y-63721904D01*
X88888880Y-63531428D01*
X88888880Y-63293333D01*
X88841261Y-63102857D01*
X88793642Y-63007619D01*
X88746023Y-62960000D01*
X88650785Y-62912380D01*
X87888880Y-63912380D02*
X87888880Y-62912380D01*
X87793642Y-63531428D02*
X87507928Y-63912380D01*
X87507928Y-63245714D02*
X87888880Y-63626666D01*
D12*
X92714285Y-66452380D02*
X93285714Y-66452380D01*
X93000000Y-66452380D02*
X93000000Y-65452380D01*
X93095238Y-65595238D01*
X93190476Y-65690476D01*
X93285714Y-65738095D01*
D11*
G04 #@! TO.C,J1*
X108339523Y-79945000D02*
X108415714Y-79906904D01*
X108530000Y-79906904D01*
X108644285Y-79945000D01*
X108720476Y-80021190D01*
X108758571Y-80097380D01*
X108796666Y-80249761D01*
X108796666Y-80364047D01*
X108758571Y-80516428D01*
X108720476Y-80592619D01*
X108644285Y-80668809D01*
X108530000Y-80706904D01*
X108453809Y-80706904D01*
X108339523Y-80668809D01*
X108301428Y-80630714D01*
X108301428Y-80364047D01*
X108453809Y-80364047D01*
X107958571Y-80706904D02*
X107958571Y-79906904D01*
X107501428Y-80706904D01*
X107501428Y-79906904D01*
X107120476Y-80706904D02*
X107120476Y-79906904D01*
X106930000Y-79906904D01*
X106815714Y-79945000D01*
X106739523Y-80021190D01*
X106701428Y-80097380D01*
X106663333Y-80249761D01*
X106663333Y-80364047D01*
X106701428Y-80516428D01*
X106739523Y-80592619D01*
X106815714Y-80668809D01*
X106930000Y-80706904D01*
X107120476Y-80706904D01*
X113610000Y-79906904D02*
X113457619Y-79906904D01*
X113381428Y-79945000D01*
X113305238Y-80021190D01*
X113267142Y-80173571D01*
X113267142Y-80440238D01*
X113305238Y-80592619D01*
X113381428Y-80668809D01*
X113457619Y-80706904D01*
X113610000Y-80706904D01*
X113686190Y-80668809D01*
X113762380Y-80592619D01*
X113800476Y-80440238D01*
X113800476Y-80173571D01*
X113762380Y-80021190D01*
X113686190Y-79945000D01*
X113610000Y-79906904D01*
X112924285Y-79906904D02*
X112924285Y-80554523D01*
X112886190Y-80630714D01*
X112848095Y-80668809D01*
X112771904Y-80706904D01*
X112619523Y-80706904D01*
X112543333Y-80668809D01*
X112505238Y-80630714D01*
X112467142Y-80554523D01*
X112467142Y-79906904D01*
X112200476Y-79906904D02*
X111743333Y-79906904D01*
X111971904Y-80706904D02*
X111971904Y-79906904D01*
X105609047Y-80706904D02*
X105609047Y-79906904D01*
X105228095Y-80706904D02*
X105228095Y-79906904D01*
X104770952Y-80706904D01*
X104770952Y-79906904D01*
G04 #@! TO.C,J2*
X99949904Y-79931904D02*
X99683238Y-80731904D01*
X99416571Y-79931904D01*
X99149904Y-80427142D02*
X98540380Y-80427142D01*
X98845142Y-80731904D02*
X98845142Y-80122380D01*
X102337523Y-79970000D02*
X102413714Y-79931904D01*
X102528000Y-79931904D01*
X102642285Y-79970000D01*
X102718476Y-80046190D01*
X102756571Y-80122380D01*
X102794666Y-80274761D01*
X102794666Y-80389047D01*
X102756571Y-80541428D01*
X102718476Y-80617619D01*
X102642285Y-80693809D01*
X102528000Y-80731904D01*
X102451809Y-80731904D01*
X102337523Y-80693809D01*
X102299428Y-80655714D01*
X102299428Y-80389047D01*
X102451809Y-80389047D01*
X101956571Y-80731904D02*
X101956571Y-79931904D01*
X101499428Y-80731904D01*
X101499428Y-79931904D01*
X101118476Y-80731904D02*
X101118476Y-79931904D01*
X100928000Y-79931904D01*
X100813714Y-79970000D01*
X100737523Y-80046190D01*
X100699428Y-80122380D01*
X100661333Y-80274761D01*
X100661333Y-80389047D01*
X100699428Y-80541428D01*
X100737523Y-80617619D01*
X100813714Y-80693809D01*
X100928000Y-80731904D01*
X101118476Y-80731904D01*
D10*
G04 #@! TO.C,RV3*
X110524000Y-57524000D02*
X107476000Y-57524000D01*
X105444000Y-54476000D02*
X102396000Y-54476000D01*
X112556000Y-54476000D02*
X112556000Y-57524000D01*
X115604000Y-57524000D02*
X112556000Y-57524000D01*
X117890000Y-70605000D02*
X100110000Y-70605000D01*
X105444000Y-57524000D02*
X105444000Y-54476000D01*
X116620000Y-66160000D02*
X116620000Y-57651000D01*
X105444000Y-57524000D02*
X102396000Y-57524000D01*
X101380000Y-57651000D02*
X101380000Y-66160000D01*
X110524000Y-57524000D02*
X110524000Y-54476000D01*
X110524000Y-54476000D02*
X107476000Y-54476000D01*
X115604000Y-57524000D02*
X115604000Y-54476000D01*
X109000000Y-61715000D02*
X109000000Y-79495000D01*
X115604000Y-54476000D02*
X112556000Y-54476000D01*
X116620000Y-57651000D02*
X101380000Y-57651000D01*
X102396000Y-54476000D02*
X102396000Y-57524000D01*
X107476000Y-54476000D02*
X107476000Y-57524000D01*
X108999998Y-79495000D02*
G75*
G03*
X117890000Y-70605000I101J8889901D01*
G01*
X100110000Y-70604998D02*
G75*
G03*
X109000000Y-79495000I8889901J-101D01*
G01*
X109000000Y-61715000D02*
G75*
G03*
X100110000Y-70605000I0J-8890000D01*
G01*
X117890000Y-70605000D02*
G75*
G03*
X109000000Y-61715000I-8890000J0D01*
G01*
X109898000Y-70605000D02*
G75*
G03*
X109898000Y-70605000I-898000J0D01*
G01*
G04 #@! TO.C,RV1*
X128556000Y-67524000D02*
X131604000Y-67524000D01*
X132620000Y-64349000D02*
X132620000Y-55840000D01*
X131604000Y-67524000D02*
X131604000Y-64476000D01*
X118396000Y-64476000D02*
X121444000Y-64476000D01*
X116110000Y-51395000D02*
X133890000Y-51395000D01*
X121444000Y-67524000D02*
X121444000Y-64476000D01*
X126524000Y-67524000D02*
X126524000Y-64476000D01*
X118396000Y-64476000D02*
X118396000Y-67524000D01*
X117380000Y-64349000D02*
X132620000Y-64349000D01*
X123476000Y-64476000D02*
X126524000Y-64476000D01*
X117380000Y-55840000D02*
X117380000Y-64349000D01*
X123476000Y-67524000D02*
X126524000Y-67524000D01*
X118396000Y-67524000D02*
X121444000Y-67524000D01*
X128556000Y-64476000D02*
X131604000Y-64476000D01*
X123476000Y-64476000D02*
X123476000Y-67524000D01*
X125000000Y-60285000D02*
X125000000Y-42505000D01*
X128556000Y-64476000D02*
X128556000Y-67524000D01*
X125000000Y-60285000D02*
G75*
G03*
X133890000Y-51395000I0J8890000D01*
G01*
X133890000Y-51395002D02*
G75*
G03*
X125000000Y-42505000I-8889901J101D01*
G01*
X125000002Y-42505000D02*
G75*
G03*
X116110000Y-51395000I-101J-8889901D01*
G01*
X116110000Y-51395000D02*
G75*
G03*
X125000000Y-60285000I8890000J0D01*
G01*
X125898000Y-51395000D02*
G75*
G03*
X125898000Y-51395000I-898000J0D01*
G01*
G04 #@! TO.C,RV2*
X96556000Y-67524000D02*
X99604000Y-67524000D01*
X85380000Y-55840000D02*
X85380000Y-64349000D01*
X91476000Y-64476000D02*
X94524000Y-64476000D01*
X93000000Y-60285000D02*
X93000000Y-42505000D01*
X85380000Y-64349000D02*
X100620000Y-64349000D01*
X86396000Y-64476000D02*
X89444000Y-64476000D01*
X99604000Y-67524000D02*
X99604000Y-64476000D01*
X96556000Y-64476000D02*
X99604000Y-64476000D01*
X100620000Y-64349000D02*
X100620000Y-55840000D01*
X86396000Y-64476000D02*
X86396000Y-67524000D01*
X96556000Y-64476000D02*
X96556000Y-67524000D01*
X94524000Y-67524000D02*
X94524000Y-64476000D01*
X86396000Y-67524000D02*
X89444000Y-67524000D01*
X89444000Y-67524000D02*
X89444000Y-64476000D01*
X91476000Y-64476000D02*
X91476000Y-67524000D01*
X91476000Y-67524000D02*
X94524000Y-67524000D01*
X84110000Y-51395000D02*
X101890000Y-51395000D01*
X93000000Y-60285000D02*
G75*
G03*
X101890000Y-51395000I0J8890000D01*
G01*
X84110000Y-51395000D02*
G75*
G03*
X93000000Y-60285000I8890000J0D01*
G01*
X93000002Y-42505000D02*
G75*
G03*
X84110000Y-51395000I-101J-8889901D01*
G01*
X101890000Y-51395002D02*
G75*
G03*
X93000000Y-42505000I-8889901J101D01*
G01*
X93898000Y-51395000D02*
G75*
G03*
X93898000Y-51395000I-898000J0D01*
G01*
G04 #@! TO.C,J1*
X103920000Y-83520000D02*
X114080000Y-83520000D01*
X114080000Y-80980000D02*
X114080000Y-79710000D01*
X103920000Y-80980000D02*
X103920000Y-79710000D01*
X103920000Y-79710000D02*
X114080000Y-79710000D01*
X103920000Y-83520000D02*
X103920000Y-80980000D01*
X114080000Y-80980000D02*
X103920000Y-80980000D01*
X114080000Y-83520000D02*
X114080000Y-80980000D01*
G04 #@! TO.C,J2*
X103125000Y-81005000D02*
X103125000Y-79735000D01*
X103125000Y-81005000D02*
X98045000Y-81005000D01*
X98045000Y-79735000D02*
X103125000Y-79735000D01*
X103125000Y-83545000D02*
X103125000Y-81005000D01*
X98045000Y-81005000D02*
X98045000Y-79735000D01*
X98045000Y-83545000D02*
X103125000Y-83545000D01*
X98045000Y-83545000D02*
X98045000Y-81005000D01*
G04 #@! TD*
%LPC*%
D13*
G04 #@! TO.C,U1*
X114800000Y-61200000D03*
D14*
X112260000Y-61200000D03*
X109720000Y-61200000D03*
X107180000Y-61200000D03*
X107180000Y-68820000D03*
X109720000Y-68820000D03*
X112260000Y-68820000D03*
X114800000Y-68820000D03*
G04 #@! TD*
D13*
G04 #@! TO.C,D5*
X126400000Y-75590000D03*
D14*
X118780000Y-75590000D03*
G04 #@! TD*
D13*
G04 #@! TO.C,C6*
X90570000Y-59120000D03*
D15*
X88070000Y-59120000D03*
G04 #@! TD*
G04 #@! TO.C,R8*
X88970000Y-77500000D03*
D14*
X88970000Y-69880000D03*
G04 #@! TD*
D16*
G04 #@! TO.C,RV3*
X103920000Y-56000000D03*
D17*
X109000000Y-56000000D03*
X114080000Y-56000000D03*
G04 #@! TD*
D18*
G04 #@! TO.C,D3*
X95210000Y-72010000D03*
D19*
X95210000Y-82170000D03*
G04 #@! TD*
D15*
G04 #@! TO.C,C2*
X94530000Y-56810000D03*
X94530000Y-61810000D03*
G04 #@! TD*
G04 #@! TO.C,R4*
X97630000Y-61020000D03*
D14*
X97630000Y-53400000D03*
G04 #@! TD*
D15*
G04 #@! TO.C,R1*
X105575000Y-78025000D03*
D14*
X97955000Y-78025000D03*
G04 #@! TD*
D13*
G04 #@! TO.C,D4*
X126400000Y-78200000D03*
D14*
X118780000Y-78200000D03*
G04 #@! TD*
D15*
G04 #@! TO.C,C8*
X124070000Y-70190000D03*
X119070000Y-70190000D03*
G04 #@! TD*
G04 #@! TO.C,R10*
X109000000Y-74970000D03*
D14*
X116620000Y-74970000D03*
G04 #@! TD*
D15*
G04 #@! TO.C,C7*
X109975000Y-71925000D03*
X114975000Y-71925000D03*
G04 #@! TD*
G04 #@! TO.C,R6*
X120830000Y-61810000D03*
D14*
X128450000Y-61810000D03*
G04 #@! TD*
D13*
G04 #@! TO.C,D2*
X120800000Y-53030000D03*
D14*
X128420000Y-53030000D03*
G04 #@! TD*
D15*
G04 #@! TO.C,R5*
X120830000Y-58750000D03*
D14*
X128450000Y-58750000D03*
G04 #@! TD*
D15*
G04 #@! TO.C,R2*
X100720000Y-61030000D03*
D14*
X100720000Y-53410000D03*
G04 #@! TD*
D15*
G04 #@! TO.C,R11*
X103990000Y-67820000D03*
D14*
X103990000Y-60200000D03*
G04 #@! TD*
D16*
G04 #@! TO.C,RV1*
X130080000Y-66000000D03*
D17*
X125000000Y-66000000D03*
X119920000Y-66000000D03*
G04 #@! TD*
D15*
G04 #@! TO.C,C3*
X94690000Y-52900000D03*
X89690000Y-52900000D03*
G04 #@! TD*
G04 #@! TO.C,C9*
X114575000Y-52750000D03*
X109575000Y-52750000D03*
G04 #@! TD*
G04 #@! TO.C,R7*
X92030000Y-77500000D03*
D14*
X92030000Y-69880000D03*
G04 #@! TD*
D15*
G04 #@! TO.C,R9*
X109000000Y-78050000D03*
D14*
X116620000Y-78050000D03*
G04 #@! TD*
D16*
G04 #@! TO.C,RV2*
X98080000Y-66000000D03*
D17*
X93000000Y-66000000D03*
X87920000Y-66000000D03*
G04 #@! TD*
D15*
G04 #@! TO.C,C5*
X130140000Y-69180000D03*
X130140000Y-74180000D03*
G04 #@! TD*
D13*
G04 #@! TO.C,D1*
X120830000Y-55930000D03*
D14*
X128450000Y-55930000D03*
G04 #@! TD*
D13*
G04 #@! TO.C,D7*
X126400000Y-73000000D03*
D14*
X118780000Y-73000000D03*
G04 #@! TD*
D13*
G04 #@! TO.C,D6*
X126400000Y-80790000D03*
D14*
X118780000Y-80790000D03*
G04 #@! TD*
D15*
G04 #@! TO.C,C4*
X118170000Y-56070000D03*
X118170000Y-61070000D03*
G04 #@! TD*
D20*
G04 #@! TO.C,J1*
X105190000Y-82250000D03*
D21*
X107730000Y-82250000D03*
X110270000Y-82250000D03*
X112810000Y-82250000D03*
G04 #@! TD*
D15*
G04 #@! TO.C,R3*
X105540000Y-74930000D03*
D14*
X97920000Y-74930000D03*
G04 #@! TD*
D15*
G04 #@! TO.C,C1*
X103400000Y-71900000D03*
X98400000Y-71900000D03*
G04 #@! TD*
D20*
G04 #@! TO.C,J2*
X99315000Y-82275000D03*
D21*
X101855000Y-82275000D03*
G04 #@! TD*
M02*
