G04 #@! TF.GenerationSoftware,KiCad,Pcbnew,(5.99.0-8228-g6def20e3f7)*
G04 #@! TF.CreationDate,2021-01-08T15:13:12+02:00*
G04 #@! TF.ProjectId,wattbreaker,77617474-6272-4656-916b-65722e6b6963,rev?*
G04 #@! TF.SameCoordinates,Original*
G04 #@! TF.FileFunction,Legend,Top*
G04 #@! TF.FilePolarity,Positive*
%FSLAX46Y46*%
G04 Gerber Fmt 4.6, Leading zero omitted, Abs format (unit mm)*
G04 Created by KiCad (PCBNEW (5.99.0-8228-g6def20e3f7)) date 2021-01-08 15:13:12*
%MOMM*%
%LPD*%
G01*
G04 APERTURE LIST*
%ADD10C,0.150000*%
%ADD11C,0.127000*%
%ADD12C,0.100000*%
%ADD13C,0.120000*%
%ADD14R,1.600000X1.600000*%
%ADD15O,1.600000X1.600000*%
%ADD16C,1.600000*%
%ADD17R,2.540000X2.540000*%
%ADD18O,2.540000X2.540000*%
%ADD19R,2.200000X2.200000*%
%ADD20O,2.200000X2.200000*%
%ADD21R,1.930400X1.930400*%
%ADD22O,1.930400X1.930400*%
G04 APERTURE END LIST*
D10*
G04 #@! TO.C,U1*
X110252380Y-65761904D02*
X111061904Y-65761904D01*
X111157142Y-65714285D01*
X111204761Y-65666666D01*
X111252380Y-65571428D01*
X111252380Y-65380952D01*
X111204761Y-65285714D01*
X111157142Y-65238095D01*
X111061904Y-65190476D01*
X110252380Y-65190476D01*
X111252380Y-64190476D02*
X111252380Y-64761904D01*
X111252380Y-64476190D02*
X110252380Y-64476190D01*
X110395238Y-64571428D01*
X110490476Y-64666666D01*
X110538095Y-64761904D01*
G04 #@! TO.C,D5*
X121661904Y-76042380D02*
X121661904Y-75042380D01*
X121900000Y-75042380D01*
X122042857Y-75090000D01*
X122138095Y-75185238D01*
X122185714Y-75280476D01*
X122233333Y-75470952D01*
X122233333Y-75613809D01*
X122185714Y-75804285D01*
X122138095Y-75899523D01*
X122042857Y-75994761D01*
X121900000Y-76042380D01*
X121661904Y-76042380D01*
X123138095Y-75042380D02*
X122661904Y-75042380D01*
X122614285Y-75518571D01*
X122661904Y-75470952D01*
X122757142Y-75423333D01*
X122995238Y-75423333D01*
X123090476Y-75470952D01*
X123138095Y-75518571D01*
X123185714Y-75613809D01*
X123185714Y-75851904D01*
X123138095Y-75947142D01*
X123090476Y-75994761D01*
X122995238Y-76042380D01*
X122757142Y-76042380D01*
X122661904Y-75994761D01*
X122614285Y-75947142D01*
D11*
X124966666Y-76656666D02*
X124966666Y-75956666D01*
X125366666Y-76656666D02*
X125066666Y-76256666D01*
X125366666Y-75956666D02*
X124966666Y-76356666D01*
D10*
G04 #@! TO.C,C6*
X89153333Y-63877142D02*
X89105714Y-63924761D01*
X88962857Y-63972380D01*
X88867619Y-63972380D01*
X88724761Y-63924761D01*
X88629523Y-63829523D01*
X88581904Y-63734285D01*
X88534285Y-63543809D01*
X88534285Y-63400952D01*
X88581904Y-63210476D01*
X88629523Y-63115238D01*
X88724761Y-63020000D01*
X88867619Y-62972380D01*
X88962857Y-62972380D01*
X89105714Y-63020000D01*
X89153333Y-63067619D01*
X90010476Y-62972380D02*
X89820000Y-62972380D01*
X89724761Y-63020000D01*
X89677142Y-63067619D01*
X89581904Y-63210476D01*
X89534285Y-63400952D01*
X89534285Y-63781904D01*
X89581904Y-63877142D01*
X89629523Y-63924761D01*
X89724761Y-63972380D01*
X89915238Y-63972380D01*
X90010476Y-63924761D01*
X90058095Y-63877142D01*
X90105714Y-63781904D01*
X90105714Y-63543809D01*
X90058095Y-63448571D01*
X90010476Y-63400952D01*
X89915238Y-63353333D01*
X89724761Y-63353333D01*
X89629523Y-63400952D01*
X89581904Y-63448571D01*
X89534285Y-63543809D01*
G04 #@! TO.C,R8*
X89422380Y-73856666D02*
X88946190Y-74190000D01*
X89422380Y-74428095D02*
X88422380Y-74428095D01*
X88422380Y-74047142D01*
X88470000Y-73951904D01*
X88517619Y-73904285D01*
X88612857Y-73856666D01*
X88755714Y-73856666D01*
X88850952Y-73904285D01*
X88898571Y-73951904D01*
X88946190Y-74047142D01*
X88946190Y-74428095D01*
X88850952Y-73285238D02*
X88803333Y-73380476D01*
X88755714Y-73428095D01*
X88660476Y-73475714D01*
X88612857Y-73475714D01*
X88517619Y-73428095D01*
X88470000Y-73380476D01*
X88422380Y-73285238D01*
X88422380Y-73094761D01*
X88470000Y-72999523D01*
X88517619Y-72951904D01*
X88612857Y-72904285D01*
X88660476Y-72904285D01*
X88755714Y-72951904D01*
X88803333Y-72999523D01*
X88850952Y-73094761D01*
X88850952Y-73285238D01*
X88898571Y-73380476D01*
X88946190Y-73428095D01*
X89041428Y-73475714D01*
X89231904Y-73475714D01*
X89327142Y-73428095D01*
X89374761Y-73380476D01*
X89422380Y-73285238D01*
X89422380Y-73094761D01*
X89374761Y-72999523D01*
X89327142Y-72951904D01*
X89231904Y-72904285D01*
X89041428Y-72904285D01*
X88946190Y-72951904D01*
X88898571Y-72999523D01*
X88850952Y-73094761D01*
D12*
G04 #@! TO.C,RV3*
X102870617Y-58449310D02*
X102429382Y-58449310D01*
X102650000Y-58449310D02*
X102650000Y-57677150D01*
X102576460Y-57787459D01*
X102502921Y-57860998D01*
X102429382Y-57897767D01*
D10*
G04 #@! TO.C,D3*
X95662380Y-78248095D02*
X94662380Y-78248095D01*
X94662380Y-78010000D01*
X94710000Y-77867142D01*
X94805238Y-77771904D01*
X94900476Y-77724285D01*
X95090952Y-77676666D01*
X95233809Y-77676666D01*
X95424285Y-77724285D01*
X95519523Y-77771904D01*
X95614761Y-77867142D01*
X95662380Y-78010000D01*
X95662380Y-78248095D01*
X94662380Y-77343333D02*
X94662380Y-76724285D01*
X95043333Y-77057619D01*
X95043333Y-76914761D01*
X95090952Y-76819523D01*
X95138571Y-76771904D01*
X95233809Y-76724285D01*
X95471904Y-76724285D01*
X95567142Y-76771904D01*
X95614761Y-76819523D01*
X95662380Y-76914761D01*
X95662380Y-77200476D01*
X95614761Y-77295714D01*
X95567142Y-77343333D01*
X96412380Y-74021904D02*
X95412380Y-74021904D01*
X96412380Y-73450476D02*
X95840952Y-73879047D01*
X95412380Y-73450476D02*
X95983809Y-74021904D01*
G04 #@! TO.C,C2*
X94887142Y-59476666D02*
X94934761Y-59524285D01*
X94982380Y-59667142D01*
X94982380Y-59762380D01*
X94934761Y-59905238D01*
X94839523Y-60000476D01*
X94744285Y-60048095D01*
X94553809Y-60095714D01*
X94410952Y-60095714D01*
X94220476Y-60048095D01*
X94125238Y-60000476D01*
X94030000Y-59905238D01*
X93982380Y-59762380D01*
X93982380Y-59667142D01*
X94030000Y-59524285D01*
X94077619Y-59476666D01*
X94077619Y-59095714D02*
X94030000Y-59048095D01*
X93982380Y-58952857D01*
X93982380Y-58714761D01*
X94030000Y-58619523D01*
X94077619Y-58571904D01*
X94172857Y-58524285D01*
X94268095Y-58524285D01*
X94410952Y-58571904D01*
X94982380Y-59143333D01*
X94982380Y-58524285D01*
G04 #@! TO.C,R4*
X98082380Y-57376666D02*
X97606190Y-57710000D01*
X98082380Y-57948095D02*
X97082380Y-57948095D01*
X97082380Y-57567142D01*
X97130000Y-57471904D01*
X97177619Y-57424285D01*
X97272857Y-57376666D01*
X97415714Y-57376666D01*
X97510952Y-57424285D01*
X97558571Y-57471904D01*
X97606190Y-57567142D01*
X97606190Y-57948095D01*
X97415714Y-56519523D02*
X98082380Y-56519523D01*
X97034761Y-56757619D02*
X97749047Y-56995714D01*
X97749047Y-56376666D01*
G04 #@! TO.C,R1*
X101598333Y-78477380D02*
X101265000Y-78001190D01*
X101026904Y-78477380D02*
X101026904Y-77477380D01*
X101407857Y-77477380D01*
X101503095Y-77525000D01*
X101550714Y-77572619D01*
X101598333Y-77667857D01*
X101598333Y-77810714D01*
X101550714Y-77905952D01*
X101503095Y-77953571D01*
X101407857Y-78001190D01*
X101026904Y-78001190D01*
X102550714Y-78477380D02*
X101979285Y-78477380D01*
X102265000Y-78477380D02*
X102265000Y-77477380D01*
X102169761Y-77620238D01*
X102074523Y-77715476D01*
X101979285Y-77763095D01*
G04 #@! TO.C,D4*
X121661904Y-78652380D02*
X121661904Y-77652380D01*
X121900000Y-77652380D01*
X122042857Y-77700000D01*
X122138095Y-77795238D01*
X122185714Y-77890476D01*
X122233333Y-78080952D01*
X122233333Y-78223809D01*
X122185714Y-78414285D01*
X122138095Y-78509523D01*
X122042857Y-78604761D01*
X121900000Y-78652380D01*
X121661904Y-78652380D01*
X123090476Y-77985714D02*
X123090476Y-78652380D01*
X122852380Y-77604761D02*
X122614285Y-78319047D01*
X123233333Y-78319047D01*
D11*
X124966666Y-79266666D02*
X124966666Y-78566666D01*
X125366666Y-79266666D02*
X125066666Y-78866666D01*
X125366666Y-78566666D02*
X124966666Y-78966666D01*
D10*
G04 #@! TO.C,C8*
X121403333Y-70547142D02*
X121355714Y-70594761D01*
X121212857Y-70642380D01*
X121117619Y-70642380D01*
X120974761Y-70594761D01*
X120879523Y-70499523D01*
X120831904Y-70404285D01*
X120784285Y-70213809D01*
X120784285Y-70070952D01*
X120831904Y-69880476D01*
X120879523Y-69785238D01*
X120974761Y-69690000D01*
X121117619Y-69642380D01*
X121212857Y-69642380D01*
X121355714Y-69690000D01*
X121403333Y-69737619D01*
X121974761Y-70070952D02*
X121879523Y-70023333D01*
X121831904Y-69975714D01*
X121784285Y-69880476D01*
X121784285Y-69832857D01*
X121831904Y-69737619D01*
X121879523Y-69690000D01*
X121974761Y-69642380D01*
X122165238Y-69642380D01*
X122260476Y-69690000D01*
X122308095Y-69737619D01*
X122355714Y-69832857D01*
X122355714Y-69880476D01*
X122308095Y-69975714D01*
X122260476Y-70023333D01*
X122165238Y-70070952D01*
X121974761Y-70070952D01*
X121879523Y-70118571D01*
X121831904Y-70166190D01*
X121784285Y-70261428D01*
X121784285Y-70451904D01*
X121831904Y-70547142D01*
X121879523Y-70594761D01*
X121974761Y-70642380D01*
X122165238Y-70642380D01*
X122260476Y-70594761D01*
X122308095Y-70547142D01*
X122355714Y-70451904D01*
X122355714Y-70261428D01*
X122308095Y-70166190D01*
X122260476Y-70118571D01*
X122165238Y-70070952D01*
G04 #@! TO.C,R10*
X112167142Y-75422380D02*
X111833809Y-74946190D01*
X111595714Y-75422380D02*
X111595714Y-74422380D01*
X111976666Y-74422380D01*
X112071904Y-74470000D01*
X112119523Y-74517619D01*
X112167142Y-74612857D01*
X112167142Y-74755714D01*
X112119523Y-74850952D01*
X112071904Y-74898571D01*
X111976666Y-74946190D01*
X111595714Y-74946190D01*
X113119523Y-75422380D02*
X112548095Y-75422380D01*
X112833809Y-75422380D02*
X112833809Y-74422380D01*
X112738571Y-74565238D01*
X112643333Y-74660476D01*
X112548095Y-74708095D01*
X113738571Y-74422380D02*
X113833809Y-74422380D01*
X113929047Y-74470000D01*
X113976666Y-74517619D01*
X114024285Y-74612857D01*
X114071904Y-74803333D01*
X114071904Y-75041428D01*
X114024285Y-75231904D01*
X113976666Y-75327142D01*
X113929047Y-75374761D01*
X113833809Y-75422380D01*
X113738571Y-75422380D01*
X113643333Y-75374761D01*
X113595714Y-75327142D01*
X113548095Y-75231904D01*
X113500476Y-75041428D01*
X113500476Y-74803333D01*
X113548095Y-74612857D01*
X113595714Y-74517619D01*
X113643333Y-74470000D01*
X113738571Y-74422380D01*
G04 #@! TO.C,C7*
X112308333Y-72282142D02*
X112260714Y-72329761D01*
X112117857Y-72377380D01*
X112022619Y-72377380D01*
X111879761Y-72329761D01*
X111784523Y-72234523D01*
X111736904Y-72139285D01*
X111689285Y-71948809D01*
X111689285Y-71805952D01*
X111736904Y-71615476D01*
X111784523Y-71520238D01*
X111879761Y-71425000D01*
X112022619Y-71377380D01*
X112117857Y-71377380D01*
X112260714Y-71425000D01*
X112308333Y-71472619D01*
X112641666Y-71377380D02*
X113308333Y-71377380D01*
X112879761Y-72377380D01*
G04 #@! TO.C,R6*
X124473333Y-62262380D02*
X124140000Y-61786190D01*
X123901904Y-62262380D02*
X123901904Y-61262380D01*
X124282857Y-61262380D01*
X124378095Y-61310000D01*
X124425714Y-61357619D01*
X124473333Y-61452857D01*
X124473333Y-61595714D01*
X124425714Y-61690952D01*
X124378095Y-61738571D01*
X124282857Y-61786190D01*
X123901904Y-61786190D01*
X125330476Y-61262380D02*
X125140000Y-61262380D01*
X125044761Y-61310000D01*
X124997142Y-61357619D01*
X124901904Y-61500476D01*
X124854285Y-61690952D01*
X124854285Y-62071904D01*
X124901904Y-62167142D01*
X124949523Y-62214761D01*
X125044761Y-62262380D01*
X125235238Y-62262380D01*
X125330476Y-62214761D01*
X125378095Y-62167142D01*
X125425714Y-62071904D01*
X125425714Y-61833809D01*
X125378095Y-61738571D01*
X125330476Y-61690952D01*
X125235238Y-61643333D01*
X125044761Y-61643333D01*
X124949523Y-61690952D01*
X124901904Y-61738571D01*
X124854285Y-61833809D01*
G04 #@! TO.C,D2*
X124061904Y-53532380D02*
X124061904Y-52532380D01*
X124300000Y-52532380D01*
X124442857Y-52580000D01*
X124538095Y-52675238D01*
X124585714Y-52770476D01*
X124633333Y-52960952D01*
X124633333Y-53103809D01*
X124585714Y-53294285D01*
X124538095Y-53389523D01*
X124442857Y-53484761D01*
X124300000Y-53532380D01*
X124061904Y-53532380D01*
X125014285Y-52627619D02*
X125061904Y-52580000D01*
X125157142Y-52532380D01*
X125395238Y-52532380D01*
X125490476Y-52580000D01*
X125538095Y-52627619D01*
X125585714Y-52722857D01*
X125585714Y-52818095D01*
X125538095Y-52960952D01*
X124966666Y-53532380D01*
X125585714Y-53532380D01*
D11*
X121866666Y-52646666D02*
X121866666Y-51946666D01*
X122266666Y-52646666D02*
X121966666Y-52246666D01*
X122266666Y-51946666D02*
X121866666Y-52346666D01*
D10*
G04 #@! TO.C,R5*
X124473333Y-59202380D02*
X124140000Y-58726190D01*
X123901904Y-59202380D02*
X123901904Y-58202380D01*
X124282857Y-58202380D01*
X124378095Y-58250000D01*
X124425714Y-58297619D01*
X124473333Y-58392857D01*
X124473333Y-58535714D01*
X124425714Y-58630952D01*
X124378095Y-58678571D01*
X124282857Y-58726190D01*
X123901904Y-58726190D01*
X125378095Y-58202380D02*
X124901904Y-58202380D01*
X124854285Y-58678571D01*
X124901904Y-58630952D01*
X124997142Y-58583333D01*
X125235238Y-58583333D01*
X125330476Y-58630952D01*
X125378095Y-58678571D01*
X125425714Y-58773809D01*
X125425714Y-59011904D01*
X125378095Y-59107142D01*
X125330476Y-59154761D01*
X125235238Y-59202380D01*
X124997142Y-59202380D01*
X124901904Y-59154761D01*
X124854285Y-59107142D01*
G04 #@! TO.C,R2*
X101172380Y-57386666D02*
X100696190Y-57720000D01*
X101172380Y-57958095D02*
X100172380Y-57958095D01*
X100172380Y-57577142D01*
X100220000Y-57481904D01*
X100267619Y-57434285D01*
X100362857Y-57386666D01*
X100505714Y-57386666D01*
X100600952Y-57434285D01*
X100648571Y-57481904D01*
X100696190Y-57577142D01*
X100696190Y-57958095D01*
X100267619Y-57005714D02*
X100220000Y-56958095D01*
X100172380Y-56862857D01*
X100172380Y-56624761D01*
X100220000Y-56529523D01*
X100267619Y-56481904D01*
X100362857Y-56434285D01*
X100458095Y-56434285D01*
X100600952Y-56481904D01*
X101172380Y-57053333D01*
X101172380Y-56434285D01*
G04 #@! TO.C,R11*
X104442380Y-64652857D02*
X103966190Y-64986190D01*
X104442380Y-65224285D02*
X103442380Y-65224285D01*
X103442380Y-64843333D01*
X103490000Y-64748095D01*
X103537619Y-64700476D01*
X103632857Y-64652857D01*
X103775714Y-64652857D01*
X103870952Y-64700476D01*
X103918571Y-64748095D01*
X103966190Y-64843333D01*
X103966190Y-65224285D01*
X104442380Y-63700476D02*
X104442380Y-64271904D01*
X104442380Y-63986190D02*
X103442380Y-63986190D01*
X103585238Y-64081428D01*
X103680476Y-64176666D01*
X103728095Y-64271904D01*
X104442380Y-62748095D02*
X104442380Y-63319523D01*
X104442380Y-63033809D02*
X103442380Y-63033809D01*
X103585238Y-63129047D01*
X103680476Y-63224285D01*
X103728095Y-63319523D01*
D12*
G04 #@! TO.C,RV1*
X131570617Y-64317310D02*
X131129382Y-64317310D01*
X131350000Y-64317310D02*
X131350000Y-63545150D01*
X131276460Y-63655459D01*
X131202921Y-63728998D01*
X131129382Y-63765767D01*
D10*
G04 #@! TO.C,C3*
X92023333Y-53157142D02*
X91975714Y-53204761D01*
X91832857Y-53252380D01*
X91737619Y-53252380D01*
X91594761Y-53204761D01*
X91499523Y-53109523D01*
X91451904Y-53014285D01*
X91404285Y-52823809D01*
X91404285Y-52680952D01*
X91451904Y-52490476D01*
X91499523Y-52395238D01*
X91594761Y-52300000D01*
X91737619Y-52252380D01*
X91832857Y-52252380D01*
X91975714Y-52300000D01*
X92023333Y-52347619D01*
X92356666Y-52252380D02*
X92975714Y-52252380D01*
X92642380Y-52633333D01*
X92785238Y-52633333D01*
X92880476Y-52680952D01*
X92928095Y-52728571D01*
X92975714Y-52823809D01*
X92975714Y-53061904D01*
X92928095Y-53157142D01*
X92880476Y-53204761D01*
X92785238Y-53252380D01*
X92499523Y-53252380D01*
X92404285Y-53204761D01*
X92356666Y-53157142D01*
G04 #@! TO.C,C9*
X111908333Y-53107142D02*
X111860714Y-53154761D01*
X111717857Y-53202380D01*
X111622619Y-53202380D01*
X111479761Y-53154761D01*
X111384523Y-53059523D01*
X111336904Y-52964285D01*
X111289285Y-52773809D01*
X111289285Y-52630952D01*
X111336904Y-52440476D01*
X111384523Y-52345238D01*
X111479761Y-52250000D01*
X111622619Y-52202380D01*
X111717857Y-52202380D01*
X111860714Y-52250000D01*
X111908333Y-52297619D01*
X112384523Y-53202380D02*
X112575000Y-53202380D01*
X112670238Y-53154761D01*
X112717857Y-53107142D01*
X112813095Y-52964285D01*
X112860714Y-52773809D01*
X112860714Y-52392857D01*
X112813095Y-52297619D01*
X112765476Y-52250000D01*
X112670238Y-52202380D01*
X112479761Y-52202380D01*
X112384523Y-52250000D01*
X112336904Y-52297619D01*
X112289285Y-52392857D01*
X112289285Y-52630952D01*
X112336904Y-52726190D01*
X112384523Y-52773809D01*
X112479761Y-52821428D01*
X112670238Y-52821428D01*
X112765476Y-52773809D01*
X112813095Y-52726190D01*
X112860714Y-52630952D01*
G04 #@! TO.C,R7*
X92482380Y-73856666D02*
X92006190Y-74190000D01*
X92482380Y-74428095D02*
X91482380Y-74428095D01*
X91482380Y-74047142D01*
X91530000Y-73951904D01*
X91577619Y-73904285D01*
X91672857Y-73856666D01*
X91815714Y-73856666D01*
X91910952Y-73904285D01*
X91958571Y-73951904D01*
X92006190Y-74047142D01*
X92006190Y-74428095D01*
X91482380Y-73523333D02*
X91482380Y-72856666D01*
X92482380Y-73285238D01*
G04 #@! TO.C,R9*
X112643333Y-78502380D02*
X112310000Y-78026190D01*
X112071904Y-78502380D02*
X112071904Y-77502380D01*
X112452857Y-77502380D01*
X112548095Y-77550000D01*
X112595714Y-77597619D01*
X112643333Y-77692857D01*
X112643333Y-77835714D01*
X112595714Y-77930952D01*
X112548095Y-77978571D01*
X112452857Y-78026190D01*
X112071904Y-78026190D01*
X113119523Y-78502380D02*
X113310000Y-78502380D01*
X113405238Y-78454761D01*
X113452857Y-78407142D01*
X113548095Y-78264285D01*
X113595714Y-78073809D01*
X113595714Y-77692857D01*
X113548095Y-77597619D01*
X113500476Y-77550000D01*
X113405238Y-77502380D01*
X113214761Y-77502380D01*
X113119523Y-77550000D01*
X113071904Y-77597619D01*
X113024285Y-77692857D01*
X113024285Y-77930952D01*
X113071904Y-78026190D01*
X113119523Y-78073809D01*
X113214761Y-78121428D01*
X113405238Y-78121428D01*
X113500476Y-78073809D01*
X113548095Y-78026190D01*
X113595714Y-77930952D01*
D12*
G04 #@! TO.C,RV2*
X99570617Y-64317310D02*
X99129382Y-64317310D01*
X99350000Y-64317310D02*
X99350000Y-63545150D01*
X99276460Y-63655459D01*
X99202921Y-63728998D01*
X99129382Y-63765767D01*
D10*
G04 #@! TO.C,C5*
X130497142Y-71846666D02*
X130544761Y-71894285D01*
X130592380Y-72037142D01*
X130592380Y-72132380D01*
X130544761Y-72275238D01*
X130449523Y-72370476D01*
X130354285Y-72418095D01*
X130163809Y-72465714D01*
X130020952Y-72465714D01*
X129830476Y-72418095D01*
X129735238Y-72370476D01*
X129640000Y-72275238D01*
X129592380Y-72132380D01*
X129592380Y-72037142D01*
X129640000Y-71894285D01*
X129687619Y-71846666D01*
X129592380Y-70941904D02*
X129592380Y-71418095D01*
X130068571Y-71465714D01*
X130020952Y-71418095D01*
X129973333Y-71322857D01*
X129973333Y-71084761D01*
X130020952Y-70989523D01*
X130068571Y-70941904D01*
X130163809Y-70894285D01*
X130401904Y-70894285D01*
X130497142Y-70941904D01*
X130544761Y-70989523D01*
X130592380Y-71084761D01*
X130592380Y-71322857D01*
X130544761Y-71418095D01*
X130497142Y-71465714D01*
G04 #@! TO.C,D1*
X124341904Y-56382380D02*
X124341904Y-55382380D01*
X124580000Y-55382380D01*
X124722857Y-55430000D01*
X124818095Y-55525238D01*
X124865714Y-55620476D01*
X124913333Y-55810952D01*
X124913333Y-55953809D01*
X124865714Y-56144285D01*
X124818095Y-56239523D01*
X124722857Y-56334761D01*
X124580000Y-56382380D01*
X124341904Y-56382380D01*
X125865714Y-56382380D02*
X125294285Y-56382380D01*
X125580000Y-56382380D02*
X125580000Y-55382380D01*
X125484761Y-55525238D01*
X125389523Y-55620476D01*
X125294285Y-55668095D01*
D11*
X121896666Y-55496666D02*
X121896666Y-54796666D01*
X122296666Y-55496666D02*
X121996666Y-55096666D01*
X122296666Y-54796666D02*
X121896666Y-55196666D01*
D10*
G04 #@! TO.C,D7*
X121661904Y-73452380D02*
X121661904Y-72452380D01*
X121900000Y-72452380D01*
X122042857Y-72500000D01*
X122138095Y-72595238D01*
X122185714Y-72690476D01*
X122233333Y-72880952D01*
X122233333Y-73023809D01*
X122185714Y-73214285D01*
X122138095Y-73309523D01*
X122042857Y-73404761D01*
X121900000Y-73452380D01*
X121661904Y-73452380D01*
X122566666Y-72452380D02*
X123233333Y-72452380D01*
X122804761Y-73452380D01*
D11*
X124966666Y-74066666D02*
X124966666Y-73366666D01*
X125366666Y-74066666D02*
X125066666Y-73666666D01*
X125366666Y-73366666D02*
X124966666Y-73766666D01*
D10*
G04 #@! TO.C,D6*
X121661904Y-81242380D02*
X121661904Y-80242380D01*
X121900000Y-80242380D01*
X122042857Y-80290000D01*
X122138095Y-80385238D01*
X122185714Y-80480476D01*
X122233333Y-80670952D01*
X122233333Y-80813809D01*
X122185714Y-81004285D01*
X122138095Y-81099523D01*
X122042857Y-81194761D01*
X121900000Y-81242380D01*
X121661904Y-81242380D01*
X123090476Y-80242380D02*
X122900000Y-80242380D01*
X122804761Y-80290000D01*
X122757142Y-80337619D01*
X122661904Y-80480476D01*
X122614285Y-80670952D01*
X122614285Y-81051904D01*
X122661904Y-81147142D01*
X122709523Y-81194761D01*
X122804761Y-81242380D01*
X122995238Y-81242380D01*
X123090476Y-81194761D01*
X123138095Y-81147142D01*
X123185714Y-81051904D01*
X123185714Y-80813809D01*
X123138095Y-80718571D01*
X123090476Y-80670952D01*
X122995238Y-80623333D01*
X122804761Y-80623333D01*
X122709523Y-80670952D01*
X122661904Y-80718571D01*
X122614285Y-80813809D01*
D11*
X124966666Y-81856666D02*
X124966666Y-81156666D01*
X125366666Y-81856666D02*
X125066666Y-81456666D01*
X125366666Y-81156666D02*
X124966666Y-81556666D01*
D10*
G04 #@! TO.C,C4*
X118527142Y-58736666D02*
X118574761Y-58784285D01*
X118622380Y-58927142D01*
X118622380Y-59022380D01*
X118574761Y-59165238D01*
X118479523Y-59260476D01*
X118384285Y-59308095D01*
X118193809Y-59355714D01*
X118050952Y-59355714D01*
X117860476Y-59308095D01*
X117765238Y-59260476D01*
X117670000Y-59165238D01*
X117622380Y-59022380D01*
X117622380Y-58927142D01*
X117670000Y-58784285D01*
X117717619Y-58736666D01*
X117955714Y-57879523D02*
X118622380Y-57879523D01*
X117574761Y-58117619D02*
X118289047Y-58355714D01*
X118289047Y-57736666D01*
G04 #@! TO.C,J1*
X112010000Y-79906904D02*
X112162380Y-79906904D01*
X112238571Y-79945000D01*
X112314761Y-80021190D01*
X112352857Y-80173571D01*
X112352857Y-80440238D01*
X112314761Y-80592619D01*
X112238571Y-80668809D01*
X112162380Y-80706904D01*
X112010000Y-80706904D01*
X111933809Y-80668809D01*
X111857619Y-80592619D01*
X111819523Y-80440238D01*
X111819523Y-80173571D01*
X111857619Y-80021190D01*
X111933809Y-79945000D01*
X112010000Y-79906904D01*
X112695714Y-79906904D02*
X112695714Y-80554523D01*
X112733809Y-80630714D01*
X112771904Y-80668809D01*
X112848095Y-80706904D01*
X113000476Y-80706904D01*
X113076666Y-80668809D01*
X113114761Y-80630714D01*
X113152857Y-80554523D01*
X113152857Y-79906904D01*
X113419523Y-79906904D02*
X113876666Y-79906904D01*
X113648095Y-80706904D02*
X113648095Y-79906904D01*
X104770952Y-80706904D02*
X104770952Y-79906904D01*
X105151904Y-80706904D02*
X105151904Y-79906904D01*
X105609047Y-80706904D01*
X105609047Y-79906904D01*
X107120476Y-79945000D02*
X107044285Y-79906904D01*
X106930000Y-79906904D01*
X106815714Y-79945000D01*
X106739523Y-80021190D01*
X106701428Y-80097380D01*
X106663333Y-80249761D01*
X106663333Y-80364047D01*
X106701428Y-80516428D01*
X106739523Y-80592619D01*
X106815714Y-80668809D01*
X106930000Y-80706904D01*
X107006190Y-80706904D01*
X107120476Y-80668809D01*
X107158571Y-80630714D01*
X107158571Y-80364047D01*
X107006190Y-80364047D01*
X107501428Y-80706904D02*
X107501428Y-79906904D01*
X107958571Y-80706904D01*
X107958571Y-79906904D01*
X108339523Y-80706904D02*
X108339523Y-79906904D01*
X108530000Y-79906904D01*
X108644285Y-79945000D01*
X108720476Y-80021190D01*
X108758571Y-80097380D01*
X108796666Y-80249761D01*
X108796666Y-80364047D01*
X108758571Y-80516428D01*
X108720476Y-80592619D01*
X108644285Y-80668809D01*
X108530000Y-80706904D01*
X108339523Y-80706904D01*
G04 #@! TO.C,R3*
X101563333Y-75382380D02*
X101230000Y-74906190D01*
X100991904Y-75382380D02*
X100991904Y-74382380D01*
X101372857Y-74382380D01*
X101468095Y-74430000D01*
X101515714Y-74477619D01*
X101563333Y-74572857D01*
X101563333Y-74715714D01*
X101515714Y-74810952D01*
X101468095Y-74858571D01*
X101372857Y-74906190D01*
X100991904Y-74906190D01*
X101896666Y-74382380D02*
X102515714Y-74382380D01*
X102182380Y-74763333D01*
X102325238Y-74763333D01*
X102420476Y-74810952D01*
X102468095Y-74858571D01*
X102515714Y-74953809D01*
X102515714Y-75191904D01*
X102468095Y-75287142D01*
X102420476Y-75334761D01*
X102325238Y-75382380D01*
X102039523Y-75382380D01*
X101944285Y-75334761D01*
X101896666Y-75287142D01*
G04 #@! TO.C,C1*
X100733333Y-72257142D02*
X100685714Y-72304761D01*
X100542857Y-72352380D01*
X100447619Y-72352380D01*
X100304761Y-72304761D01*
X100209523Y-72209523D01*
X100161904Y-72114285D01*
X100114285Y-71923809D01*
X100114285Y-71780952D01*
X100161904Y-71590476D01*
X100209523Y-71495238D01*
X100304761Y-71400000D01*
X100447619Y-71352380D01*
X100542857Y-71352380D01*
X100685714Y-71400000D01*
X100733333Y-71447619D01*
X101685714Y-72352380D02*
X101114285Y-72352380D01*
X101400000Y-72352380D02*
X101400000Y-71352380D01*
X101304761Y-71495238D01*
X101209523Y-71590476D01*
X101114285Y-71638095D01*
G04 #@! TO.C,J2*
X101245476Y-79970000D02*
X101169285Y-79931904D01*
X101055000Y-79931904D01*
X100940714Y-79970000D01*
X100864523Y-80046190D01*
X100826428Y-80122380D01*
X100788333Y-80274761D01*
X100788333Y-80389047D01*
X100826428Y-80541428D01*
X100864523Y-80617619D01*
X100940714Y-80693809D01*
X101055000Y-80731904D01*
X101131190Y-80731904D01*
X101245476Y-80693809D01*
X101283571Y-80655714D01*
X101283571Y-80389047D01*
X101131190Y-80389047D01*
X101626428Y-80731904D02*
X101626428Y-79931904D01*
X102083571Y-80731904D01*
X102083571Y-79931904D01*
X102464523Y-80731904D02*
X102464523Y-79931904D01*
X102655000Y-79931904D01*
X102769285Y-79970000D01*
X102845476Y-80046190D01*
X102883571Y-80122380D01*
X102921666Y-80274761D01*
X102921666Y-80389047D01*
X102883571Y-80541428D01*
X102845476Y-80617619D01*
X102769285Y-80693809D01*
X102655000Y-80731904D01*
X102464523Y-80731904D01*
X98553095Y-79931904D02*
X98819761Y-80731904D01*
X99086428Y-79931904D01*
X99353095Y-80427142D02*
X99962619Y-80427142D01*
X99657857Y-80731904D02*
X99657857Y-80122380D01*
D13*
G04 #@! TO.C,U1*
X116130000Y-67660000D02*
X116130000Y-66010000D01*
X116190000Y-70150000D02*
X116190000Y-59870000D01*
X105850000Y-67660000D02*
X116130000Y-67660000D01*
X105790000Y-70150000D02*
X116190000Y-70150000D01*
X105850000Y-62360000D02*
X105850000Y-67660000D01*
X116190000Y-59870000D02*
X105790000Y-59870000D01*
X116130000Y-64010000D02*
X116130000Y-62360000D01*
X116130000Y-62360000D02*
X105850000Y-62360000D01*
X105790000Y-59870000D02*
X105790000Y-70150000D01*
X116130000Y-66010000D02*
G75*
G02*
X116130000Y-64010000I0J1000000D01*
G01*
G04 #@! TO.C,D5*
X124710000Y-74470000D02*
X120470000Y-74470000D01*
X120470000Y-74470000D02*
X120470000Y-76710000D01*
X124110000Y-76710000D02*
X124110000Y-74470000D01*
X120470000Y-76710000D02*
X124710000Y-76710000D01*
X123870000Y-76710000D02*
X123870000Y-74470000D01*
X119820000Y-75590000D02*
X120470000Y-75590000D01*
X124710000Y-76710000D02*
X124710000Y-74470000D01*
X123990000Y-76710000D02*
X123990000Y-74470000D01*
X125360000Y-75590000D02*
X124710000Y-75590000D01*
G04 #@! TO.C,C6*
X87399000Y-61727000D02*
X87399000Y-60160000D01*
X88319000Y-62194000D02*
X88319000Y-60160000D01*
X88800000Y-62309000D02*
X88800000Y-60160000D01*
X88199000Y-58080000D02*
X88199000Y-56087000D01*
X87279000Y-61636000D02*
X87279000Y-60160000D01*
X88599000Y-62270000D02*
X88599000Y-60160000D01*
X87519000Y-61810000D02*
X87519000Y-60160000D01*
X88599000Y-58080000D02*
X88599000Y-55970000D01*
X87199000Y-61570000D02*
X87199000Y-60160000D01*
X89240000Y-62350000D02*
X89240000Y-55890000D01*
X89040000Y-62338000D02*
X89040000Y-60160000D01*
X86359000Y-60470000D02*
X86359000Y-57770000D01*
X87239000Y-61604000D02*
X87239000Y-60160000D01*
X87039000Y-58080000D02*
X87039000Y-56815000D01*
X86639000Y-60954000D02*
X86639000Y-57286000D01*
X86279000Y-60285000D02*
X86279000Y-57955000D01*
X86919000Y-61302000D02*
X86919000Y-56938000D01*
X87679000Y-61910000D02*
X87679000Y-60160000D01*
X89200000Y-62348000D02*
X89200000Y-55892000D01*
X87799000Y-58080000D02*
X87799000Y-56264000D01*
X87959000Y-58080000D02*
X87959000Y-56186000D01*
X87319000Y-58080000D02*
X87319000Y-56572000D01*
X88720000Y-58080000D02*
X88720000Y-55945000D01*
X88239000Y-62167000D02*
X88239000Y-60160000D01*
X87759000Y-61954000D02*
X87759000Y-60160000D01*
X87079000Y-61463000D02*
X87079000Y-60160000D01*
X87039000Y-61425000D02*
X87039000Y-60160000D01*
X87839000Y-58080000D02*
X87839000Y-56244000D01*
X86799000Y-61164000D02*
X86799000Y-57076000D01*
X88159000Y-58080000D02*
X88159000Y-56102000D01*
X88319000Y-58080000D02*
X88319000Y-56046000D01*
X87479000Y-58080000D02*
X87479000Y-56456000D01*
X88439000Y-58080000D02*
X88439000Y-56010000D01*
X88479000Y-62241000D02*
X88479000Y-60160000D01*
X88680000Y-62287000D02*
X88680000Y-60160000D01*
X87359000Y-61698000D02*
X87359000Y-60160000D01*
X88880000Y-58080000D02*
X88880000Y-55919000D01*
X87359000Y-58080000D02*
X87359000Y-56542000D01*
X86999000Y-61385000D02*
X86999000Y-56855000D01*
X88720000Y-62295000D02*
X88720000Y-60160000D01*
X88640000Y-62279000D02*
X88640000Y-60160000D01*
X88760000Y-58080000D02*
X88760000Y-55938000D01*
X86839000Y-61212000D02*
X86839000Y-57028000D01*
X87159000Y-61536000D02*
X87159000Y-60160000D01*
X89120000Y-62344000D02*
X89120000Y-55896000D01*
X88199000Y-62153000D02*
X88199000Y-60160000D01*
X88680000Y-58080000D02*
X88680000Y-55953000D01*
X89320000Y-62350000D02*
X89320000Y-55890000D01*
X87279000Y-58080000D02*
X87279000Y-56604000D01*
X88399000Y-58080000D02*
X88399000Y-56022000D01*
X87719000Y-58080000D02*
X87719000Y-56308000D01*
X87319000Y-61668000D02*
X87319000Y-60160000D01*
X86319000Y-60382000D02*
X86319000Y-57858000D01*
X86439000Y-60629000D02*
X86439000Y-57611000D01*
X86199000Y-60060000D02*
X86199000Y-58180000D01*
X89080000Y-58080000D02*
X89080000Y-55898000D01*
X88279000Y-58080000D02*
X88279000Y-56059000D01*
X88840000Y-58080000D02*
X88840000Y-55925000D01*
X88920000Y-62326000D02*
X88920000Y-60160000D01*
X88359000Y-62206000D02*
X88359000Y-60160000D01*
X87879000Y-58080000D02*
X87879000Y-56224000D01*
X88920000Y-58080000D02*
X88920000Y-55914000D01*
X87799000Y-61976000D02*
X87799000Y-60160000D01*
X88079000Y-58080000D02*
X88079000Y-56134000D01*
X86559000Y-60834000D02*
X86559000Y-57406000D01*
X88760000Y-62302000D02*
X88760000Y-60160000D01*
X88519000Y-58080000D02*
X88519000Y-55989000D01*
X88359000Y-58080000D02*
X88359000Y-56034000D01*
X88119000Y-58080000D02*
X88119000Y-56118000D01*
X87479000Y-61784000D02*
X87479000Y-60160000D01*
X88559000Y-58080000D02*
X88559000Y-55979000D01*
X87719000Y-61932000D02*
X87719000Y-60160000D01*
X88279000Y-62181000D02*
X88279000Y-60160000D01*
X89000000Y-58080000D02*
X89000000Y-55905000D01*
X87559000Y-61836000D02*
X87559000Y-60160000D01*
X87519000Y-58080000D02*
X87519000Y-56430000D01*
X87999000Y-62072000D02*
X87999000Y-60160000D01*
X86079000Y-59522000D02*
X86079000Y-58718000D01*
X88479000Y-58080000D02*
X88479000Y-55999000D01*
X87919000Y-58080000D02*
X87919000Y-56204000D01*
X87559000Y-58080000D02*
X87559000Y-56404000D01*
X87239000Y-58080000D02*
X87239000Y-56636000D01*
X87759000Y-58080000D02*
X87759000Y-56286000D01*
X88439000Y-62230000D02*
X88439000Y-60160000D01*
X88519000Y-62251000D02*
X88519000Y-60160000D01*
X88840000Y-62315000D02*
X88840000Y-60160000D01*
X87159000Y-58080000D02*
X87159000Y-56704000D01*
X86759000Y-61115000D02*
X86759000Y-57125000D01*
X86239000Y-60179000D02*
X86239000Y-58061000D01*
X87119000Y-58080000D02*
X87119000Y-56740000D01*
X87639000Y-58080000D02*
X87639000Y-56354000D01*
X88079000Y-62106000D02*
X88079000Y-60160000D01*
X87599000Y-61862000D02*
X87599000Y-60160000D01*
X92287000Y-59120000D02*
X91657000Y-59120000D01*
X88960000Y-58080000D02*
X88960000Y-55909000D01*
X88039000Y-62090000D02*
X88039000Y-60160000D01*
X88640000Y-58080000D02*
X88640000Y-55961000D01*
X88559000Y-62261000D02*
X88559000Y-60160000D01*
X87639000Y-61886000D02*
X87639000Y-60160000D01*
X86519000Y-60770000D02*
X86519000Y-57470000D01*
X89280000Y-62350000D02*
X89280000Y-55890000D01*
X87919000Y-62036000D02*
X87919000Y-60160000D01*
X87839000Y-61996000D02*
X87839000Y-60160000D01*
X89080000Y-62342000D02*
X89080000Y-60160000D01*
X88239000Y-58080000D02*
X88239000Y-56073000D01*
X87079000Y-58080000D02*
X87079000Y-56777000D01*
X88800000Y-58080000D02*
X88800000Y-55931000D01*
X87199000Y-58080000D02*
X87199000Y-56670000D01*
X87679000Y-58080000D02*
X87679000Y-56330000D01*
X86719000Y-61064000D02*
X86719000Y-57176000D01*
X91972000Y-59435000D02*
X91972000Y-58805000D01*
X88880000Y-62321000D02*
X88880000Y-60160000D01*
X86599000Y-60896000D02*
X86599000Y-57344000D01*
X87959000Y-62054000D02*
X87959000Y-60160000D01*
X89040000Y-58080000D02*
X89040000Y-55902000D01*
X86679000Y-61010000D02*
X86679000Y-57230000D01*
X86399000Y-60552000D02*
X86399000Y-57688000D01*
X87439000Y-61756000D02*
X87439000Y-60160000D01*
X88960000Y-62331000D02*
X88960000Y-60160000D01*
X87119000Y-61500000D02*
X87119000Y-60160000D01*
X88399000Y-62218000D02*
X88399000Y-60160000D01*
X89000000Y-62335000D02*
X89000000Y-60160000D01*
X88119000Y-62122000D02*
X88119000Y-60160000D01*
X88039000Y-58080000D02*
X88039000Y-56150000D01*
X86119000Y-59753000D02*
X86119000Y-58487000D01*
X87599000Y-58080000D02*
X87599000Y-56378000D01*
X87439000Y-58080000D02*
X87439000Y-56484000D01*
X87879000Y-62016000D02*
X87879000Y-60160000D01*
X88159000Y-62138000D02*
X88159000Y-60160000D01*
X87999000Y-58080000D02*
X87999000Y-56168000D01*
X86959000Y-61344000D02*
X86959000Y-56896000D01*
X86479000Y-60701000D02*
X86479000Y-57539000D01*
X86879000Y-61257000D02*
X86879000Y-56983000D01*
X86159000Y-59922000D02*
X86159000Y-58318000D01*
X87399000Y-58080000D02*
X87399000Y-56513000D01*
X89160000Y-62347000D02*
X89160000Y-55893000D01*
X92590000Y-59120000D02*
G75*
G03*
X92590000Y-59120000I-3270000J0D01*
G01*
G04 #@! TO.C,R8*
X90340000Y-76960000D02*
X90340000Y-70420000D01*
X87930000Y-76960000D02*
X87600000Y-76960000D01*
X87600000Y-76960000D02*
X87600000Y-70420000D01*
X87600000Y-70420000D02*
X87930000Y-70420000D01*
X90010000Y-76960000D02*
X90340000Y-76960000D01*
X90340000Y-70420000D02*
X90010000Y-70420000D01*
D11*
G04 #@! TO.C,RV3*
X110524000Y-54476000D02*
X107476000Y-54476000D01*
X110524000Y-57524000D02*
X107476000Y-57524000D01*
X105444000Y-57524000D02*
X105444000Y-54476000D01*
X105444000Y-54476000D02*
X102396000Y-54476000D01*
X107476000Y-54476000D02*
X107476000Y-57524000D01*
X102396000Y-54476000D02*
X102396000Y-57524000D01*
X115604000Y-57524000D02*
X112556000Y-57524000D01*
X115604000Y-57524000D02*
X115604000Y-54476000D01*
X110524000Y-57524000D02*
X110524000Y-54476000D01*
X115604000Y-54476000D02*
X112556000Y-54476000D01*
X112556000Y-54476000D02*
X112556000Y-57524000D01*
X105444000Y-57524000D02*
X102396000Y-57524000D01*
D13*
G04 #@! TO.C,D3*
X95210000Y-73350000D02*
X95210000Y-74370000D01*
X93740000Y-74370000D02*
X93740000Y-79810000D01*
X93740000Y-79810000D02*
X96680000Y-79810000D01*
X96680000Y-75150000D02*
X93740000Y-75150000D01*
X96680000Y-74370000D02*
X93740000Y-74370000D01*
X96680000Y-75270000D02*
X93740000Y-75270000D01*
X96680000Y-75390000D02*
X93740000Y-75390000D01*
X96680000Y-79810000D02*
X96680000Y-74370000D01*
X95210000Y-80830000D02*
X95210000Y-79810000D01*
G04 #@! TO.C,C2*
X95900000Y-55590000D02*
X93160000Y-55590000D01*
X95900000Y-55590000D02*
X95900000Y-63030000D01*
X93160000Y-55590000D02*
X93160000Y-63030000D01*
X95900000Y-63030000D02*
X93160000Y-63030000D01*
G04 #@! TO.C,R4*
X98670000Y-60480000D02*
X99000000Y-60480000D01*
X96590000Y-60480000D02*
X96260000Y-60480000D01*
X96260000Y-53940000D02*
X96590000Y-53940000D01*
X99000000Y-60480000D02*
X99000000Y-53940000D01*
X96260000Y-60480000D02*
X96260000Y-53940000D01*
X99000000Y-53940000D02*
X98670000Y-53940000D01*
G04 #@! TO.C,R1*
X105035000Y-76655000D02*
X98495000Y-76655000D01*
X98495000Y-79395000D02*
X98495000Y-79065000D01*
X105035000Y-76985000D02*
X105035000Y-76655000D01*
X98495000Y-76655000D02*
X98495000Y-76985000D01*
X105035000Y-79395000D02*
X98495000Y-79395000D01*
X105035000Y-79065000D02*
X105035000Y-79395000D01*
G04 #@! TO.C,D4*
X124710000Y-79320000D02*
X124710000Y-77080000D01*
X119820000Y-78200000D02*
X120470000Y-78200000D01*
X124710000Y-77080000D02*
X120470000Y-77080000D01*
X120470000Y-79320000D02*
X124710000Y-79320000D01*
X123870000Y-79320000D02*
X123870000Y-77080000D01*
X123990000Y-79320000D02*
X123990000Y-77080000D01*
X120470000Y-77080000D02*
X120470000Y-79320000D01*
X125360000Y-78200000D02*
X124710000Y-78200000D01*
X124110000Y-79320000D02*
X124110000Y-77080000D01*
G04 #@! TO.C,C8*
X125290000Y-71560000D02*
X125290000Y-68820000D01*
X125290000Y-68820000D02*
X117850000Y-68820000D01*
X117850000Y-71560000D02*
X117850000Y-68820000D01*
X125290000Y-71560000D02*
X117850000Y-71560000D01*
G04 #@! TO.C,R10*
X109540000Y-73930000D02*
X109540000Y-73600000D01*
X109540000Y-73600000D02*
X116080000Y-73600000D01*
X116080000Y-76340000D02*
X116080000Y-76010000D01*
X109540000Y-76010000D02*
X109540000Y-76340000D01*
X109540000Y-76340000D02*
X116080000Y-76340000D01*
X116080000Y-73600000D02*
X116080000Y-73930000D01*
G04 #@! TO.C,C7*
X108755000Y-73295000D02*
X116195000Y-73295000D01*
X116195000Y-70555000D02*
X116195000Y-73295000D01*
X108755000Y-70555000D02*
X116195000Y-70555000D01*
X108755000Y-70555000D02*
X108755000Y-73295000D01*
G04 #@! TO.C,R6*
X121370000Y-60440000D02*
X127910000Y-60440000D01*
X121370000Y-62850000D02*
X121370000Y-63180000D01*
X121370000Y-63180000D02*
X127910000Y-63180000D01*
X127910000Y-63180000D02*
X127910000Y-62850000D01*
X121370000Y-60770000D02*
X121370000Y-60440000D01*
X127910000Y-60440000D02*
X127910000Y-60770000D01*
G04 #@! TO.C,D2*
X123210000Y-51910000D02*
X123210000Y-54150000D01*
X127380000Y-53030000D02*
X126730000Y-53030000D01*
X126730000Y-54150000D02*
X126730000Y-51910000D01*
X122490000Y-54150000D02*
X126730000Y-54150000D01*
X122490000Y-51910000D02*
X122490000Y-54150000D01*
X126730000Y-51910000D02*
X122490000Y-51910000D01*
X123330000Y-51910000D02*
X123330000Y-54150000D01*
X123090000Y-51910000D02*
X123090000Y-54150000D01*
X121840000Y-53030000D02*
X122490000Y-53030000D01*
G04 #@! TO.C,R5*
X121370000Y-60120000D02*
X127910000Y-60120000D01*
X127910000Y-60120000D02*
X127910000Y-59790000D01*
X121370000Y-57380000D02*
X127910000Y-57380000D01*
X121370000Y-59790000D02*
X121370000Y-60120000D01*
X121370000Y-57710000D02*
X121370000Y-57380000D01*
X127910000Y-57380000D02*
X127910000Y-57710000D01*
G04 #@! TO.C,R2*
X102090000Y-60490000D02*
X102090000Y-53950000D01*
X99350000Y-53950000D02*
X99680000Y-53950000D01*
X101760000Y-60490000D02*
X102090000Y-60490000D01*
X99350000Y-60490000D02*
X99350000Y-53950000D01*
X102090000Y-53950000D02*
X101760000Y-53950000D01*
X99680000Y-60490000D02*
X99350000Y-60490000D01*
G04 #@! TO.C,R11*
X105030000Y-67280000D02*
X105360000Y-67280000D01*
X102950000Y-67280000D02*
X102620000Y-67280000D01*
X102620000Y-67280000D02*
X102620000Y-60740000D01*
X105360000Y-60740000D02*
X105030000Y-60740000D01*
X105360000Y-67280000D02*
X105360000Y-60740000D01*
X102620000Y-60740000D02*
X102950000Y-60740000D01*
D11*
G04 #@! TO.C,RV1*
X121444000Y-67524000D02*
X121444000Y-64476000D01*
X128556000Y-64476000D02*
X131604000Y-64476000D01*
X131604000Y-67524000D02*
X131604000Y-64476000D01*
X123476000Y-67524000D02*
X126524000Y-67524000D01*
X118396000Y-67524000D02*
X121444000Y-67524000D01*
X128556000Y-67524000D02*
X131604000Y-67524000D01*
X126524000Y-67524000D02*
X126524000Y-64476000D01*
X128556000Y-64476000D02*
X128556000Y-67524000D01*
X118396000Y-64476000D02*
X121444000Y-64476000D01*
X118396000Y-64476000D02*
X118396000Y-67524000D01*
X123476000Y-64476000D02*
X123476000Y-67524000D01*
X123476000Y-64476000D02*
X126524000Y-64476000D01*
D13*
G04 #@! TO.C,C3*
X95910000Y-55270000D02*
X95910000Y-50530000D01*
X95910000Y-50530000D02*
X88470000Y-50530000D01*
X95910000Y-55270000D02*
X88470000Y-55270000D01*
X88470000Y-55270000D02*
X88470000Y-50530000D01*
G04 #@! TO.C,C9*
X115795000Y-51380000D02*
X108355000Y-51380000D01*
X115795000Y-54120000D02*
X108355000Y-54120000D01*
X115795000Y-54120000D02*
X115795000Y-51380000D01*
X108355000Y-54120000D02*
X108355000Y-51380000D01*
G04 #@! TO.C,R7*
X90990000Y-76960000D02*
X90660000Y-76960000D01*
X93400000Y-76960000D02*
X93400000Y-70420000D01*
X93400000Y-70420000D02*
X93070000Y-70420000D01*
X90660000Y-70420000D02*
X90990000Y-70420000D01*
X90660000Y-76960000D02*
X90660000Y-70420000D01*
X93070000Y-76960000D02*
X93400000Y-76960000D01*
G04 #@! TO.C,R9*
X116080000Y-76680000D02*
X116080000Y-77010000D01*
X109540000Y-76680000D02*
X116080000Y-76680000D01*
X109540000Y-79420000D02*
X116080000Y-79420000D01*
X116080000Y-79420000D02*
X116080000Y-79090000D01*
X109540000Y-77010000D02*
X109540000Y-76680000D01*
X109540000Y-79090000D02*
X109540000Y-79420000D01*
D11*
G04 #@! TO.C,RV2*
X91476000Y-64476000D02*
X94524000Y-64476000D01*
X91476000Y-64476000D02*
X91476000Y-67524000D01*
X86396000Y-64476000D02*
X86396000Y-67524000D01*
X91476000Y-67524000D02*
X94524000Y-67524000D01*
X96556000Y-67524000D02*
X99604000Y-67524000D01*
X94524000Y-67524000D02*
X94524000Y-64476000D01*
X86396000Y-67524000D02*
X89444000Y-67524000D01*
X89444000Y-67524000D02*
X89444000Y-64476000D01*
X86396000Y-64476000D02*
X89444000Y-64476000D01*
X96556000Y-64476000D02*
X96556000Y-67524000D01*
X99604000Y-67524000D02*
X99604000Y-64476000D01*
X96556000Y-64476000D02*
X99604000Y-64476000D01*
D13*
G04 #@! TO.C,C5*
X132510000Y-67960000D02*
X132510000Y-75400000D01*
X127770000Y-67960000D02*
X127770000Y-75400000D01*
X132510000Y-75400000D02*
X127770000Y-75400000D01*
X132510000Y-67960000D02*
X127770000Y-67960000D01*
G04 #@! TO.C,D1*
X123120000Y-54810000D02*
X123120000Y-57050000D01*
X121870000Y-55930000D02*
X122520000Y-55930000D01*
X123360000Y-54810000D02*
X123360000Y-57050000D01*
X123240000Y-54810000D02*
X123240000Y-57050000D01*
X122520000Y-54810000D02*
X122520000Y-57050000D01*
X126760000Y-54810000D02*
X122520000Y-54810000D01*
X126760000Y-57050000D02*
X126760000Y-54810000D01*
X127410000Y-55930000D02*
X126760000Y-55930000D01*
X122520000Y-57050000D02*
X126760000Y-57050000D01*
G04 #@! TO.C,D7*
X124710000Y-74120000D02*
X124710000Y-71880000D01*
X123990000Y-74120000D02*
X123990000Y-71880000D01*
X124110000Y-74120000D02*
X124110000Y-71880000D01*
X120470000Y-71880000D02*
X120470000Y-74120000D01*
X125360000Y-73000000D02*
X124710000Y-73000000D01*
X123870000Y-74120000D02*
X123870000Y-71880000D01*
X119820000Y-73000000D02*
X120470000Y-73000000D01*
X124710000Y-71880000D02*
X120470000Y-71880000D01*
X120470000Y-74120000D02*
X124710000Y-74120000D01*
G04 #@! TO.C,D6*
X124710000Y-81910000D02*
X124710000Y-79670000D01*
X124710000Y-79670000D02*
X120470000Y-79670000D01*
X124110000Y-81910000D02*
X124110000Y-79670000D01*
X119820000Y-80790000D02*
X120470000Y-80790000D01*
X123990000Y-81910000D02*
X123990000Y-79670000D01*
X125360000Y-80790000D02*
X124710000Y-80790000D01*
X120470000Y-81910000D02*
X124710000Y-81910000D01*
X123870000Y-81910000D02*
X123870000Y-79670000D01*
X120470000Y-79670000D02*
X120470000Y-81910000D01*
G04 #@! TO.C,C4*
X119540000Y-54850000D02*
X119540000Y-62290000D01*
X119540000Y-62290000D02*
X116800000Y-62290000D01*
X119540000Y-54850000D02*
X116800000Y-54850000D01*
X116800000Y-54850000D02*
X116800000Y-62290000D01*
D11*
G04 #@! TO.C,J1*
X103920000Y-80980000D02*
X103920000Y-79710000D01*
X114080000Y-83520000D02*
X103920000Y-83520000D01*
X114080000Y-80980000D02*
X114080000Y-79710000D01*
X103920000Y-80980000D02*
X114080000Y-80980000D01*
X103920000Y-83520000D02*
X103920000Y-80980000D01*
X114080000Y-83520000D02*
X114080000Y-80980000D01*
X114080000Y-79710000D02*
X103920000Y-79710000D01*
D13*
G04 #@! TO.C,R3*
X105000000Y-73890000D02*
X105000000Y-73560000D01*
X98460000Y-73560000D02*
X98460000Y-73890000D01*
X105000000Y-76300000D02*
X98460000Y-76300000D01*
X98460000Y-76300000D02*
X98460000Y-75970000D01*
X105000000Y-75970000D02*
X105000000Y-76300000D01*
X105000000Y-73560000D02*
X98460000Y-73560000D01*
G04 #@! TO.C,C1*
X97180000Y-73270000D02*
X97180000Y-70530000D01*
X104620000Y-73270000D02*
X104620000Y-70530000D01*
X104620000Y-73270000D02*
X97180000Y-73270000D01*
X104620000Y-70530000D02*
X97180000Y-70530000D01*
D11*
G04 #@! TO.C,J2*
X103125000Y-83545000D02*
X98045000Y-83545000D01*
X98045000Y-81005000D02*
X98045000Y-79735000D01*
X98045000Y-83545000D02*
X98045000Y-81005000D01*
X103125000Y-81005000D02*
X103125000Y-79735000D01*
X103125000Y-79735000D02*
X98045000Y-79735000D01*
X103125000Y-83545000D02*
X103125000Y-81005000D01*
X98045000Y-81005000D02*
X103125000Y-81005000D01*
G04 #@! TD*
%LPC*%
D14*
G04 #@! TO.C,U1*
X114800000Y-61200000D03*
D15*
X112260000Y-61200000D03*
X109720000Y-61200000D03*
X107180000Y-61200000D03*
X107180000Y-68820000D03*
X109720000Y-68820000D03*
X112260000Y-68820000D03*
X114800000Y-68820000D03*
G04 #@! TD*
D14*
G04 #@! TO.C,D5*
X126400000Y-75590000D03*
D15*
X118780000Y-75590000D03*
G04 #@! TD*
D14*
G04 #@! TO.C,C6*
X90570000Y-59120000D03*
D16*
X88070000Y-59120000D03*
G04 #@! TD*
G04 #@! TO.C,R8*
X88970000Y-77500000D03*
D15*
X88970000Y-69880000D03*
G04 #@! TD*
D17*
G04 #@! TO.C,RV3*
X103920000Y-56000000D03*
D18*
X109000000Y-56000000D03*
X114080000Y-56000000D03*
G04 #@! TD*
D19*
G04 #@! TO.C,D3*
X95210000Y-72010000D03*
D20*
X95210000Y-82170000D03*
G04 #@! TD*
D16*
G04 #@! TO.C,C2*
X94530000Y-56810000D03*
X94530000Y-61810000D03*
G04 #@! TD*
G04 #@! TO.C,R4*
X97630000Y-61020000D03*
D15*
X97630000Y-53400000D03*
G04 #@! TD*
D16*
G04 #@! TO.C,R1*
X105575000Y-78025000D03*
D15*
X97955000Y-78025000D03*
G04 #@! TD*
D14*
G04 #@! TO.C,D4*
X126400000Y-78200000D03*
D15*
X118780000Y-78200000D03*
G04 #@! TD*
D16*
G04 #@! TO.C,C8*
X124070000Y-70190000D03*
X119070000Y-70190000D03*
G04 #@! TD*
G04 #@! TO.C,R10*
X109000000Y-74970000D03*
D15*
X116620000Y-74970000D03*
G04 #@! TD*
D16*
G04 #@! TO.C,C7*
X109975000Y-71925000D03*
X114975000Y-71925000D03*
G04 #@! TD*
G04 #@! TO.C,R6*
X120830000Y-61810000D03*
D15*
X128450000Y-61810000D03*
G04 #@! TD*
D14*
G04 #@! TO.C,D2*
X120800000Y-53030000D03*
D15*
X128420000Y-53030000D03*
G04 #@! TD*
D16*
G04 #@! TO.C,R5*
X120830000Y-58750000D03*
D15*
X128450000Y-58750000D03*
G04 #@! TD*
D16*
G04 #@! TO.C,R2*
X100720000Y-61030000D03*
D15*
X100720000Y-53410000D03*
G04 #@! TD*
D16*
G04 #@! TO.C,R11*
X103990000Y-67820000D03*
D15*
X103990000Y-60200000D03*
G04 #@! TD*
D17*
G04 #@! TO.C,RV1*
X130080000Y-66000000D03*
D18*
X125000000Y-66000000D03*
X119920000Y-66000000D03*
G04 #@! TD*
D16*
G04 #@! TO.C,C3*
X94690000Y-52900000D03*
X89690000Y-52900000D03*
G04 #@! TD*
G04 #@! TO.C,C9*
X114575000Y-52750000D03*
X109575000Y-52750000D03*
G04 #@! TD*
G04 #@! TO.C,R7*
X92030000Y-77500000D03*
D15*
X92030000Y-69880000D03*
G04 #@! TD*
D16*
G04 #@! TO.C,R9*
X109000000Y-78050000D03*
D15*
X116620000Y-78050000D03*
G04 #@! TD*
D17*
G04 #@! TO.C,RV2*
X98080000Y-66000000D03*
D18*
X93000000Y-66000000D03*
X87920000Y-66000000D03*
G04 #@! TD*
D16*
G04 #@! TO.C,C5*
X130140000Y-69180000D03*
X130140000Y-74180000D03*
G04 #@! TD*
D14*
G04 #@! TO.C,D1*
X120830000Y-55930000D03*
D15*
X128450000Y-55930000D03*
G04 #@! TD*
D14*
G04 #@! TO.C,D7*
X126400000Y-73000000D03*
D15*
X118780000Y-73000000D03*
G04 #@! TD*
D14*
G04 #@! TO.C,D6*
X126400000Y-80790000D03*
D15*
X118780000Y-80790000D03*
G04 #@! TD*
D16*
G04 #@! TO.C,C4*
X118170000Y-56070000D03*
X118170000Y-61070000D03*
G04 #@! TD*
D21*
G04 #@! TO.C,J1*
X105190000Y-82250000D03*
D22*
X107730000Y-82250000D03*
X110270000Y-82250000D03*
X112810000Y-82250000D03*
G04 #@! TD*
D16*
G04 #@! TO.C,R3*
X105540000Y-74930000D03*
D15*
X97920000Y-74930000D03*
G04 #@! TD*
D16*
G04 #@! TO.C,C1*
X103400000Y-71900000D03*
X98400000Y-71900000D03*
G04 #@! TD*
D21*
G04 #@! TO.C,J2*
X99315000Y-82275000D03*
D22*
X101855000Y-82275000D03*
G04 #@! TD*
M02*
