G04 #@! TF.GenerationSoftware,KiCad,Pcbnew,(5.99.0-8228-g6def20e3f7)*
G04 #@! TF.CreationDate,2021-01-08T15:13:11+02:00*
G04 #@! TF.ProjectId,wattbreaker,77617474-6272-4656-916b-65722e6b6963,rev?*
G04 #@! TF.SameCoordinates,Original*
G04 #@! TF.FileFunction,Copper,L1,Top*
G04 #@! TF.FilePolarity,Positive*
%FSLAX46Y46*%
G04 Gerber Fmt 4.6, Leading zero omitted, Abs format (unit mm)*
G04 Created by KiCad (PCBNEW (5.99.0-8228-g6def20e3f7)) date 2021-01-08 15:13:11*
%MOMM*%
%LPD*%
G01*
G04 APERTURE LIST*
G04 #@! TA.AperFunction,ComponentPad*
%ADD10R,1.600000X1.600000*%
G04 #@! TD*
G04 #@! TA.AperFunction,ComponentPad*
%ADD11O,1.600000X1.600000*%
G04 #@! TD*
G04 #@! TA.AperFunction,ComponentPad*
%ADD12C,1.600000*%
G04 #@! TD*
G04 #@! TA.AperFunction,ComponentPad*
%ADD13R,2.540000X2.540000*%
G04 #@! TD*
G04 #@! TA.AperFunction,ComponentPad*
%ADD14O,2.540000X2.540000*%
G04 #@! TD*
G04 #@! TA.AperFunction,ComponentPad*
%ADD15R,2.200000X2.200000*%
G04 #@! TD*
G04 #@! TA.AperFunction,ComponentPad*
%ADD16O,2.200000X2.200000*%
G04 #@! TD*
G04 #@! TA.AperFunction,ComponentPad*
%ADD17R,1.930400X1.930400*%
G04 #@! TD*
G04 #@! TA.AperFunction,ComponentPad*
%ADD18O,1.930400X1.930400*%
G04 #@! TD*
G04 #@! TA.AperFunction,ViaPad*
%ADD19C,0.800000*%
G04 #@! TD*
G04 #@! TA.AperFunction,Conductor*
%ADD20C,0.350000*%
G04 #@! TD*
G04 APERTURE END LIST*
D10*
G04 #@! TO.P,U1,1*
G04 #@! TO.N,Net-(C4-Pad2)*
X114800000Y-61200000D03*
D11*
G04 #@! TO.P,U1,2,-*
G04 #@! TO.N,Net-(C4-Pad1)*
X112260000Y-61200000D03*
G04 #@! TO.P,U1,3,+*
G04 #@! TO.N,Net-(C1-Pad2)*
X109720000Y-61200000D03*
G04 #@! TO.P,U1,4,V-*
G04 #@! TO.N,VCC*
X107180000Y-61200000D03*
G04 #@! TO.P,U1,5,+*
G04 #@! TO.N,VEE*
X107180000Y-68820000D03*
G04 #@! TO.P,U1,6,-*
G04 #@! TO.N,Net-(C5-Pad2)*
X109720000Y-68820000D03*
G04 #@! TO.P,U1,7*
G04 #@! TO.N,Net-(C7-Pad2)*
X112260000Y-68820000D03*
G04 #@! TO.P,U1,8,V+*
G04 #@! TO.N,GND*
X114800000Y-68820000D03*
G04 #@! TD*
D10*
G04 #@! TO.P,D5,1,K*
G04 #@! TO.N,Net-(D4-Pad2)*
X126400000Y-75590000D03*
D11*
G04 #@! TO.P,D5,2,A*
G04 #@! TO.N,Net-(D5-Pad2)*
X118780000Y-75590000D03*
G04 #@! TD*
D10*
G04 #@! TO.P,C6,1*
G04 #@! TO.N,VEE*
X90570000Y-59120000D03*
D12*
G04 #@! TO.P,C6,2*
G04 #@! TO.N,GND*
X88070000Y-59120000D03*
G04 #@! TD*
G04 #@! TO.P,R8,1*
G04 #@! TO.N,VEE*
X88970000Y-77500000D03*
D11*
G04 #@! TO.P,R8,2*
G04 #@! TO.N,GND*
X88970000Y-69880000D03*
G04 #@! TD*
D13*
G04 #@! TO.P,RV3,1,1*
G04 #@! TO.N,Net-(R11-Pad2)*
X103920000Y-56000000D03*
D14*
G04 #@! TO.P,RV3,2,2*
G04 #@! TO.N,Net-(C9-Pad1)*
X109000000Y-56000000D03*
G04 #@! TO.P,RV3,3,3*
X114080000Y-56000000D03*
G04 #@! TD*
D15*
G04 #@! TO.P,D3,1,K*
G04 #@! TO.N,VCC*
X95210000Y-72010000D03*
D16*
G04 #@! TO.P,D3,2,A*
G04 #@! TO.N,+9V*
X95210000Y-82170000D03*
G04 #@! TD*
D12*
G04 #@! TO.P,C2,1*
G04 #@! TO.N,Net-(C2-Pad1)*
X94530000Y-56810000D03*
G04 #@! TO.P,C2,2*
G04 #@! TO.N,VEE*
X94530000Y-61810000D03*
G04 #@! TD*
G04 #@! TO.P,R4,1*
G04 #@! TO.N,Net-(C4-Pad1)*
X97630000Y-61020000D03*
D11*
G04 #@! TO.P,R4,2*
G04 #@! TO.N,Net-(C3-Pad1)*
X97630000Y-53400000D03*
G04 #@! TD*
D12*
G04 #@! TO.P,R1,1*
G04 #@! TO.N,IN*
X105575000Y-78025000D03*
D11*
G04 #@! TO.P,R1,2*
G04 #@! TO.N,GND*
X97955000Y-78025000D03*
G04 #@! TD*
D10*
G04 #@! TO.P,D4,1,K*
G04 #@! TO.N,Net-(D4-Pad1)*
X126400000Y-78200000D03*
D11*
G04 #@! TO.P,D4,2,A*
G04 #@! TO.N,Net-(D4-Pad2)*
X118780000Y-78200000D03*
G04 #@! TD*
D12*
G04 #@! TO.P,C8,1*
G04 #@! TO.N,Net-(C7-Pad2)*
X124070000Y-70190000D03*
G04 #@! TO.P,C8,2*
G04 #@! TO.N,Net-(C8-Pad2)*
X119070000Y-70190000D03*
G04 #@! TD*
G04 #@! TO.P,R10,1*
G04 #@! TO.N,Net-(C5-Pad2)*
X109000000Y-74970000D03*
D11*
G04 #@! TO.P,R10,2*
G04 #@! TO.N,Net-(C7-Pad2)*
X116620000Y-74970000D03*
G04 #@! TD*
D12*
G04 #@! TO.P,C7,1*
G04 #@! TO.N,Net-(C5-Pad2)*
X109975000Y-71925000D03*
G04 #@! TO.P,C7,2*
G04 #@! TO.N,Net-(C7-Pad2)*
X114975000Y-71925000D03*
G04 #@! TD*
G04 #@! TO.P,R6,1*
G04 #@! TO.N,Net-(R6-Pad1)*
X120830000Y-61810000D03*
D11*
G04 #@! TO.P,R6,2*
G04 #@! TO.N,Net-(C5-Pad1)*
X128450000Y-61810000D03*
G04 #@! TD*
D10*
G04 #@! TO.P,D2,1,K*
G04 #@! TO.N,Net-(C4-Pad1)*
X120800000Y-53030000D03*
D11*
G04 #@! TO.P,D2,2,A*
G04 #@! TO.N,Net-(C4-Pad2)*
X128420000Y-53030000D03*
G04 #@! TD*
D12*
G04 #@! TO.P,R5,1*
G04 #@! TO.N,Net-(C4-Pad1)*
X120830000Y-58750000D03*
D11*
G04 #@! TO.P,R5,2*
G04 #@! TO.N,Net-(R5-Pad2)*
X128450000Y-58750000D03*
G04 #@! TD*
D12*
G04 #@! TO.P,R2,1*
G04 #@! TO.N,Net-(C4-Pad1)*
X100720000Y-61030000D03*
D11*
G04 #@! TO.P,R2,2*
G04 #@! TO.N,Net-(C2-Pad1)*
X100720000Y-53410000D03*
G04 #@! TD*
D12*
G04 #@! TO.P,R11,1*
G04 #@! TO.N,Net-(C8-Pad2)*
X103990000Y-67820000D03*
D11*
G04 #@! TO.P,R11,2*
G04 #@! TO.N,Net-(R11-Pad2)*
X103990000Y-60200000D03*
G04 #@! TD*
D13*
G04 #@! TO.P,RV1,1,1*
G04 #@! TO.N,Net-(R5-Pad2)*
X130080000Y-66000000D03*
D14*
G04 #@! TO.P,RV1,2,2*
G04 #@! TO.N,Net-(C4-Pad2)*
X125000000Y-66000000D03*
G04 #@! TO.P,RV1,3,3*
G04 #@! TO.N,Net-(R6-Pad1)*
X119920000Y-66000000D03*
G04 #@! TD*
D12*
G04 #@! TO.P,C3,1*
G04 #@! TO.N,Net-(C3-Pad1)*
X94690000Y-52900000D03*
G04 #@! TO.P,C3,2*
G04 #@! TO.N,VEE*
X89690000Y-52900000D03*
G04 #@! TD*
G04 #@! TO.P,C9,1*
G04 #@! TO.N,Net-(C9-Pad1)*
X114575000Y-52750000D03*
G04 #@! TO.P,C9,2*
G04 #@! TO.N,GND*
X109575000Y-52750000D03*
G04 #@! TD*
G04 #@! TO.P,R7,1*
G04 #@! TO.N,VCC*
X92030000Y-77500000D03*
D11*
G04 #@! TO.P,R7,2*
G04 #@! TO.N,VEE*
X92030000Y-69880000D03*
G04 #@! TD*
D12*
G04 #@! TO.P,R9,1*
G04 #@! TO.N,Net-(C5-Pad2)*
X109000000Y-78050000D03*
D11*
G04 #@! TO.P,R9,2*
G04 #@! TO.N,Net-(D4-Pad2)*
X116620000Y-78050000D03*
G04 #@! TD*
D13*
G04 #@! TO.P,RV2,1,1*
G04 #@! TO.N,GND*
X98080000Y-66000000D03*
D14*
G04 #@! TO.P,RV2,2,2*
G04 #@! TO.N,OUT*
X93000000Y-66000000D03*
G04 #@! TO.P,RV2,3,3*
G04 #@! TO.N,Net-(C9-Pad1)*
X87920000Y-66000000D03*
G04 #@! TD*
D12*
G04 #@! TO.P,C5,1*
G04 #@! TO.N,Net-(C5-Pad1)*
X130140000Y-69180000D03*
G04 #@! TO.P,C5,2*
G04 #@! TO.N,Net-(C5-Pad2)*
X130140000Y-74180000D03*
G04 #@! TD*
D10*
G04 #@! TO.P,D1,1,K*
G04 #@! TO.N,Net-(C4-Pad2)*
X120830000Y-55930000D03*
D11*
G04 #@! TO.P,D1,2,A*
G04 #@! TO.N,Net-(C4-Pad1)*
X128450000Y-55930000D03*
G04 #@! TD*
D10*
G04 #@! TO.P,D7,1,K*
G04 #@! TO.N,Net-(D5-Pad2)*
X126400000Y-73000000D03*
D11*
G04 #@! TO.P,D7,2,A*
G04 #@! TO.N,Net-(C7-Pad2)*
X118780000Y-73000000D03*
G04 #@! TD*
D10*
G04 #@! TO.P,D6,1,K*
G04 #@! TO.N,Net-(C7-Pad2)*
X126400000Y-80790000D03*
D11*
G04 #@! TO.P,D6,2,A*
G04 #@! TO.N,Net-(D4-Pad1)*
X118780000Y-80790000D03*
G04 #@! TD*
D12*
G04 #@! TO.P,C4,1*
G04 #@! TO.N,Net-(C4-Pad1)*
X118170000Y-56070000D03*
G04 #@! TO.P,C4,2*
G04 #@! TO.N,Net-(C4-Pad2)*
X118170000Y-61070000D03*
G04 #@! TD*
D17*
G04 #@! TO.P,J1,1,Pin_1*
G04 #@! TO.N,IN*
X105190000Y-82250000D03*
D18*
G04 #@! TO.P,J1,2,Pin_2*
G04 #@! TO.N,GND*
X107730000Y-82250000D03*
G04 #@! TO.P,J1,3,Pin_3*
G04 #@! TO.N,no_connect_23*
X110270000Y-82250000D03*
G04 #@! TO.P,J1,4,Pin_4*
G04 #@! TO.N,OUT*
X112810000Y-82250000D03*
G04 #@! TD*
D12*
G04 #@! TO.P,R3,1*
G04 #@! TO.N,VEE*
X105540000Y-74930000D03*
D11*
G04 #@! TO.P,R3,2*
G04 #@! TO.N,Net-(C1-Pad2)*
X97920000Y-74930000D03*
G04 #@! TD*
D12*
G04 #@! TO.P,C1,1*
G04 #@! TO.N,IN*
X103400000Y-71900000D03*
G04 #@! TO.P,C1,2*
G04 #@! TO.N,Net-(C1-Pad2)*
X98400000Y-71900000D03*
G04 #@! TD*
D17*
G04 #@! TO.P,J2,1,Pin_1*
G04 #@! TO.N,+9V*
X99315000Y-82275000D03*
D18*
G04 #@! TO.P,J2,2,Pin_2*
G04 #@! TO.N,GND*
X101855000Y-82275000D03*
G04 #@! TD*
D19*
G04 #@! TO.N,GND*
X114930000Y-75860000D03*
X123840000Y-55320000D03*
G04 #@! TD*
D20*
G04 #@! TO.N,Net-(C1-Pad2)*
X107850000Y-64950000D02*
X109720000Y-63080000D01*
X101490000Y-66000000D02*
X101490000Y-68810000D01*
X102540000Y-64950000D02*
X107850000Y-64950000D01*
X101490000Y-66000000D02*
X102045000Y-65445000D01*
X98400000Y-71900000D02*
X98400000Y-71330000D01*
X101490000Y-66000000D02*
X102540000Y-64950000D01*
X97920000Y-72380000D02*
X98400000Y-71900000D01*
X109720000Y-63080000D02*
X109720000Y-61200000D01*
X97920000Y-74930000D02*
X97920000Y-72380000D01*
X101490000Y-68810000D02*
X98400000Y-71900000D01*
G04 #@! TO.N,IN*
X106715011Y-74365994D02*
X106715011Y-76884989D01*
X104249017Y-71900000D02*
X106715011Y-74365994D01*
X103400000Y-71900000D02*
X104249017Y-71900000D01*
X106715011Y-76884989D02*
X105575000Y-78025000D01*
X105600000Y-81840000D02*
X105600000Y-78000000D01*
X105190000Y-82250000D02*
X105600000Y-81840000D01*
G04 #@! TO.N,VEE*
X105540000Y-74930000D02*
X105540000Y-75500000D01*
X94620000Y-61820000D02*
X94620000Y-61420000D01*
X89010000Y-74810000D02*
X92030000Y-71790000D01*
X90660000Y-53790000D02*
X89780000Y-52910000D01*
X103450000Y-70100000D02*
X105900000Y-70100000D01*
X89020000Y-78740000D02*
X89020000Y-77550000D01*
X105540000Y-75500000D02*
X104780000Y-76260000D01*
X93370000Y-79850000D02*
X90130000Y-79850000D01*
X90130000Y-79850000D02*
X89020000Y-78740000D01*
X102224989Y-71325011D02*
X103450000Y-70100000D01*
X96960000Y-76260000D02*
X93370000Y-79850000D01*
X94650000Y-61850000D02*
X94620000Y-61820000D01*
X102224989Y-72574989D02*
X102224989Y-71325011D01*
X92330000Y-59130000D02*
X90660000Y-59130000D01*
X105900000Y-70100000D02*
X107180000Y-68820000D01*
X92030000Y-71790000D02*
X92030000Y-69880000D01*
X105540000Y-74930000D02*
X104580000Y-74930000D01*
X89020000Y-77550000D02*
X88970000Y-77500000D01*
X92020000Y-69890000D02*
X92030000Y-69880000D01*
X90660000Y-59130000D02*
X90660000Y-53790000D01*
X94650000Y-67260000D02*
X94650000Y-61850000D01*
X89010000Y-77460000D02*
X89010000Y-74810000D01*
X104580000Y-74930000D02*
X102224989Y-72574989D01*
X104780000Y-76260000D02*
X96960000Y-76260000D01*
X92030000Y-69880000D02*
X94650000Y-67260000D01*
X88970000Y-77500000D02*
X89010000Y-77460000D01*
X94620000Y-61420000D02*
X92330000Y-59130000D01*
G04 #@! TO.N,Net-(C2-Pad1)*
X94990000Y-56450000D02*
X98480000Y-56450000D01*
X94620000Y-56820000D02*
X94990000Y-56450000D01*
X98480000Y-56450000D02*
X100780000Y-54150000D01*
G04 #@! TO.N,Net-(C3-Pad1)*
X95190000Y-53400000D02*
X94690000Y-52900000D01*
X97630000Y-53400000D02*
X95190000Y-53400000D01*
G04 #@! TO.N,Net-(C4-Pad2)*
X129014006Y-57105011D02*
X123715011Y-57105011D01*
X122005011Y-59844989D02*
X122005011Y-57105011D01*
X118170000Y-61070000D02*
X119314989Y-59925011D01*
X123715011Y-57105011D02*
X122540000Y-55930000D01*
X125000000Y-62839978D02*
X122005011Y-59844989D01*
X122005011Y-57105011D02*
X120830000Y-55930000D01*
X114800000Y-61200000D02*
X118040000Y-61200000D01*
X118040000Y-61200000D02*
X118170000Y-61070000D01*
X120830000Y-55930000D02*
X122250000Y-55930000D01*
X122250000Y-55930000D02*
X122390000Y-55930000D01*
X121924989Y-59925011D02*
X122005011Y-59844989D01*
X129625011Y-54235011D02*
X129625011Y-56494006D01*
X119314989Y-59925011D02*
X121924989Y-59925011D01*
X125000000Y-66000000D02*
X125000000Y-62839978D01*
X122540000Y-55930000D02*
X122250000Y-55930000D01*
X129625011Y-56494006D02*
X129014006Y-57105011D01*
X128420000Y-53030000D02*
X129625011Y-54235011D01*
G04 #@! TO.N,Net-(C4-Pad1)*
X117090000Y-59120000D02*
X114340000Y-59120000D01*
X120800000Y-53030000D02*
X120900000Y-53130000D01*
X114340000Y-59120000D02*
X112260000Y-61200000D01*
X125650000Y-53130000D02*
X128450000Y-55930000D01*
X97640000Y-61030000D02*
X97630000Y-61020000D01*
X118120000Y-58090000D02*
X117090000Y-59120000D01*
X101065011Y-61375011D02*
X105265971Y-61375011D01*
X120830000Y-58730000D02*
X118170000Y-56070000D01*
X100720000Y-61030000D02*
X101065011Y-61375011D01*
X118170000Y-56070000D02*
X118170000Y-55660000D01*
X120830000Y-58750000D02*
X120830000Y-58730000D01*
X120900000Y-53130000D02*
X125650000Y-53130000D01*
X111084989Y-60024989D02*
X106615994Y-60024989D01*
X100720000Y-61030000D02*
X97640000Y-61030000D01*
X118170000Y-56070000D02*
X118120000Y-56120000D01*
X125650000Y-53130000D02*
X126435000Y-53915000D01*
X120830000Y-58750000D02*
X120460000Y-59120000D01*
X106615994Y-60024989D02*
X105490491Y-61150491D01*
X118120000Y-56120000D02*
X118120000Y-58090000D01*
X112260000Y-61200000D02*
X111084989Y-60024989D01*
X118170000Y-55660000D02*
X120800000Y-53030000D01*
X105265971Y-61375011D02*
X105490491Y-61150491D01*
G04 #@! TO.N,Net-(C5-Pad2)*
X112360000Y-78050000D02*
X110420000Y-78050000D01*
X112360000Y-78050000D02*
X109000000Y-78050000D01*
X130140000Y-79400040D02*
X127150040Y-82390000D01*
X109975000Y-73995000D02*
X109000000Y-74970000D01*
X130140000Y-74180000D02*
X130140000Y-79400040D01*
X108980000Y-74990000D02*
X108980000Y-78030000D01*
X127150040Y-82390000D02*
X116700000Y-82390000D01*
X109975000Y-71925000D02*
X109975000Y-73995000D01*
X109720000Y-71670000D02*
X109975000Y-71925000D01*
X109000000Y-74970000D02*
X108980000Y-74990000D01*
X108980000Y-78030000D02*
X109000000Y-78050000D01*
X109720000Y-68820000D02*
X109720000Y-71670000D01*
X116700000Y-82390000D02*
X112360000Y-78050000D01*
G04 #@! TO.N,Net-(C5-Pad1)*
X128450000Y-62589960D02*
X128434980Y-62604980D01*
X128450000Y-61810000D02*
X128450000Y-62589960D01*
X128434980Y-62604980D02*
X128434980Y-67474980D01*
X128434980Y-67474980D02*
X130140000Y-69180000D01*
G04 #@! TO.N,Net-(C7-Pad2)*
X121390000Y-70190000D02*
X124070000Y-70190000D01*
X116330000Y-74970000D02*
X114975000Y-73615000D01*
X118780000Y-73000000D02*
X118780000Y-72800000D01*
X116620000Y-74970000D02*
X116810000Y-74970000D01*
X126400000Y-80790000D02*
X127575020Y-79614980D01*
X127575020Y-79614980D02*
X127575020Y-72015020D01*
X114975000Y-73615000D02*
X114975000Y-71925000D01*
X118780000Y-72800000D02*
X121390000Y-70190000D01*
X127575020Y-72015020D02*
X125750000Y-70190000D01*
X114975000Y-71925000D02*
X114975000Y-71535000D01*
X116620000Y-74970000D02*
X116330000Y-74970000D01*
X125750000Y-70190000D02*
X124070000Y-70190000D01*
X116810000Y-74970000D02*
X118780000Y-73000000D01*
X114975000Y-71535000D02*
X112260000Y-68820000D01*
G04 #@! TO.N,Net-(C8-Pad2)*
X116520000Y-67720000D02*
X116511005Y-67720000D01*
X116391005Y-67600000D02*
X104210000Y-67600000D01*
X119070000Y-70190000D02*
X118990000Y-70190000D01*
X104210000Y-67600000D02*
X103990000Y-67820000D01*
X116511005Y-67720000D02*
X116391005Y-67600000D01*
X118990000Y-70190000D02*
X116520000Y-67720000D01*
X116391005Y-67600000D02*
X107490000Y-67600000D01*
G04 #@! TO.N,Net-(C9-Pad1)*
X104724989Y-51724989D02*
X88855993Y-51724989D01*
X87685491Y-52895491D02*
X86984989Y-53595993D01*
X87920000Y-66000000D02*
X86894989Y-64974989D01*
X109000000Y-56000000D02*
X104724989Y-51724989D01*
X114080000Y-56000000D02*
X109000000Y-56000000D01*
X86894989Y-64974989D02*
X86894989Y-53685993D01*
X87960491Y-52620491D02*
X87685491Y-52895491D01*
X114575000Y-55505000D02*
X114080000Y-56000000D01*
X86894989Y-53685993D02*
X87685491Y-52895491D01*
X88855993Y-51724989D02*
X87960491Y-52620491D01*
X114575000Y-52750000D02*
X114575000Y-55505000D01*
X88845993Y-51734989D02*
X87960491Y-52620491D01*
G04 #@! TO.N,+9V*
X99280000Y-82310000D02*
X95200000Y-82310000D01*
X99315000Y-82275000D02*
X99280000Y-82310000D01*
G04 #@! TO.N,VCC*
X99775000Y-65665000D02*
X99770000Y-65660000D01*
X95210000Y-74320000D02*
X95210000Y-72010000D01*
X95300000Y-71920000D02*
X95300000Y-70060000D01*
X99775000Y-67385000D02*
X99775000Y-65665000D01*
X102950000Y-63190000D02*
X103320000Y-63190000D01*
X107180000Y-62220000D02*
X107180000Y-61200000D01*
X106210000Y-63190000D02*
X107180000Y-62220000D01*
X92030000Y-77500000D02*
X95210000Y-74320000D01*
X102950000Y-63190000D02*
X104840000Y-63190000D01*
X103320000Y-63190000D02*
X104840000Y-63190000D01*
X101310000Y-63190000D02*
X102410000Y-63190000D01*
X99775000Y-67385000D02*
X98360000Y-68800000D01*
X95210000Y-72010000D02*
X95300000Y-71920000D01*
X104840000Y-63190000D02*
X102410000Y-63190000D01*
X96560000Y-68800000D02*
X98200000Y-68800000D01*
X95300000Y-70060000D02*
X96560000Y-68800000D01*
X99770000Y-65660000D02*
X99770000Y-64730000D01*
X99770000Y-64730000D02*
X101310000Y-63190000D01*
X98360000Y-68800000D02*
X98200000Y-68800000D01*
X103320000Y-63190000D02*
X104200000Y-63190000D01*
X104840000Y-63190000D02*
X106210000Y-63190000D01*
G04 #@! TO.N,Net-(D4-Pad2)*
X118580000Y-78000000D02*
X118780000Y-78200000D01*
X121180000Y-75600000D02*
X126390000Y-75600000D01*
X118780000Y-78000000D02*
X121180000Y-75600000D01*
X118780000Y-78200000D02*
X118780000Y-78000000D01*
X116420000Y-78000000D02*
X118580000Y-78000000D01*
X126390000Y-75600000D02*
X126400000Y-75590000D01*
G04 #@! TO.N,Net-(D4-Pad1)*
X121180000Y-78200000D02*
X126400000Y-78200000D01*
X118780000Y-80790000D02*
X118780000Y-80600000D01*
X118780000Y-80600000D02*
X121180000Y-78200000D01*
G04 #@! TO.N,Net-(D5-Pad2)*
X118780000Y-75590000D02*
X118780000Y-75400000D01*
X121180000Y-73000000D02*
X126400000Y-73000000D01*
X118780000Y-75400000D02*
X121180000Y-73000000D01*
G04 #@! TO.N,OUT*
X90915000Y-68085000D02*
X93000000Y-66000000D01*
X87100000Y-81060000D02*
X87100000Y-68870000D01*
X87885000Y-68085000D02*
X90915000Y-68085000D01*
X87100000Y-68870000D02*
X87885000Y-68085000D01*
X90355011Y-83645011D02*
X111414989Y-83645011D01*
X90855011Y-83645011D02*
X89685011Y-83645011D01*
X90855011Y-83645011D02*
X99874989Y-83645011D01*
X111414989Y-83645011D02*
X112810000Y-82250000D01*
X90355011Y-83645011D02*
X90855011Y-83645011D01*
X89685011Y-83645011D02*
X87100000Y-81060000D01*
G04 #@! TO.N,Net-(R5-Pad2)*
X130080000Y-66000000D02*
X131170000Y-64910000D01*
X131170000Y-64910000D02*
X131170000Y-60020000D01*
X131170000Y-60020000D02*
X129900000Y-58750000D01*
X129900000Y-58750000D02*
X128450000Y-58750000D01*
G04 #@! TO.N,Net-(R6-Pad1)*
X121600000Y-64320000D02*
X121360000Y-64560000D01*
X121600000Y-64320000D02*
X119920000Y-66000000D01*
X121600000Y-62580000D02*
X121600000Y-64320000D01*
X120830000Y-61810000D02*
X121600000Y-62580000D01*
G04 #@! TO.N,Net-(R11-Pad2)*
X104000000Y-60190000D02*
X104000000Y-56080000D01*
X103990000Y-60200000D02*
X104000000Y-60190000D01*
X104000000Y-56080000D02*
X103920000Y-56000000D01*
G04 #@! TD*
G04 #@! TA.AperFunction,Conductor*
G04 #@! TO.N,GND*
G36*
X132154121Y-50758002D02*
G01*
X132200614Y-50811658D01*
X132212000Y-50864000D01*
X132212000Y-83691000D01*
X132191998Y-83759121D01*
X132138342Y-83805614D01*
X132086000Y-83817000D01*
X113504801Y-83817000D01*
X113436680Y-83796998D01*
X113390187Y-83743342D01*
X113380083Y-83673068D01*
X113409577Y-83608488D01*
X113449369Y-83577848D01*
X113562520Y-83522416D01*
X113567158Y-83520144D01*
X113612104Y-83488084D01*
X113760226Y-83382430D01*
X113760231Y-83382426D01*
X113764438Y-83379425D01*
X113936087Y-83208375D01*
X114077493Y-83011587D01*
X114088213Y-82989898D01*
X114152799Y-82859217D01*
X114184860Y-82794346D01*
X114246239Y-82592326D01*
X114253801Y-82567438D01*
X114253802Y-82567432D01*
X114255305Y-82562486D01*
X114286935Y-82322234D01*
X114288700Y-82250000D01*
X114268844Y-82008490D01*
X114209810Y-81773466D01*
X114125906Y-81580500D01*
X114115243Y-81555976D01*
X114115241Y-81555973D01*
X114113183Y-81551239D01*
X113981559Y-81347778D01*
X113976959Y-81342722D01*
X113821949Y-81172369D01*
X113821947Y-81172368D01*
X113818471Y-81168547D01*
X113814420Y-81165348D01*
X113814416Y-81165344D01*
X113632355Y-81021561D01*
X113632351Y-81021559D01*
X113628300Y-81018359D01*
X113617881Y-81012607D01*
X113547090Y-80973529D01*
X113416153Y-80901248D01*
X113411284Y-80899524D01*
X113411280Y-80899522D01*
X113192603Y-80822084D01*
X113192599Y-80822083D01*
X113187728Y-80820358D01*
X113182638Y-80819451D01*
X113182633Y-80819450D01*
X113048033Y-80795475D01*
X112949158Y-80777863D01*
X112858181Y-80776751D01*
X112712021Y-80774965D01*
X112712019Y-80774965D01*
X112706851Y-80774902D01*
X112467314Y-80811556D01*
X112236981Y-80886841D01*
X112232393Y-80889229D01*
X112232389Y-80889231D01*
X112118479Y-80948529D01*
X112022036Y-80998734D01*
X112017903Y-81001837D01*
X112017900Y-81001839D01*
X111833714Y-81140130D01*
X111828252Y-81144231D01*
X111763757Y-81211721D01*
X111664742Y-81315335D01*
X111660834Y-81319424D01*
X111645237Y-81342289D01*
X111590325Y-81387291D01*
X111519800Y-81395462D01*
X111456053Y-81364207D01*
X111442969Y-81349958D01*
X111441559Y-81347778D01*
X111322278Y-81216690D01*
X111281949Y-81172369D01*
X111281947Y-81172368D01*
X111278471Y-81168547D01*
X111274420Y-81165348D01*
X111274416Y-81165344D01*
X111092355Y-81021561D01*
X111092351Y-81021559D01*
X111088300Y-81018359D01*
X111077881Y-81012607D01*
X111007090Y-80973529D01*
X110876153Y-80901248D01*
X110871284Y-80899524D01*
X110871280Y-80899522D01*
X110652603Y-80822084D01*
X110652599Y-80822083D01*
X110647728Y-80820358D01*
X110642638Y-80819451D01*
X110642633Y-80819450D01*
X110508033Y-80795475D01*
X110409158Y-80777863D01*
X110318181Y-80776751D01*
X110172021Y-80774965D01*
X110172019Y-80774965D01*
X110166851Y-80774902D01*
X109927314Y-80811556D01*
X109696981Y-80886841D01*
X109692393Y-80889229D01*
X109692389Y-80889231D01*
X109578479Y-80948529D01*
X109482036Y-80998734D01*
X109477903Y-81001837D01*
X109477900Y-81001839D01*
X109293714Y-81140130D01*
X109288252Y-81144231D01*
X109223757Y-81211721D01*
X109124742Y-81315335D01*
X109120834Y-81319424D01*
X109104940Y-81342723D01*
X109050032Y-81387725D01*
X108979507Y-81395898D01*
X108915759Y-81364644D01*
X108901027Y-81348600D01*
X108897686Y-81344262D01*
X108741608Y-81172735D01*
X108734075Y-81165710D01*
X108552081Y-81021981D01*
X108543494Y-81016276D01*
X108340482Y-80904207D01*
X108331070Y-80899977D01*
X108112469Y-80822566D01*
X108102512Y-80819936D01*
X108001836Y-80802002D01*
X107988541Y-80803461D01*
X107984000Y-80818019D01*
X107984000Y-82378000D01*
X107963998Y-82446121D01*
X107910342Y-82492614D01*
X107858000Y-82504000D01*
X107602000Y-82504000D01*
X107533879Y-82483998D01*
X107487386Y-82430342D01*
X107476000Y-82378000D01*
X107476000Y-80816605D01*
X107472082Y-80803261D01*
X107457806Y-80801274D01*
X107392542Y-80811261D01*
X107382515Y-80813650D01*
X107162092Y-80885695D01*
X107152582Y-80889692D01*
X106946891Y-80996768D01*
X106938166Y-81002262D01*
X106803476Y-81103391D01*
X106736991Y-81128297D01*
X106667596Y-81113305D01*
X106621826Y-81070753D01*
X106543277Y-80948529D01*
X106536467Y-80942628D01*
X106439631Y-80858718D01*
X106439628Y-80858716D01*
X106432819Y-80852816D01*
X106357157Y-80818262D01*
X106303502Y-80771770D01*
X106283500Y-80703649D01*
X106283500Y-79191879D01*
X106303502Y-79123758D01*
X106337230Y-79088666D01*
X106369115Y-79066340D01*
X106419302Y-79031199D01*
X106581199Y-78869302D01*
X106584980Y-78863903D01*
X106709367Y-78686259D01*
X106709368Y-78686257D01*
X106712524Y-78681750D01*
X106714847Y-78676768D01*
X106714850Y-78676763D01*
X106806963Y-78479225D01*
X106806964Y-78479224D01*
X106809286Y-78474243D01*
X106868545Y-78253087D01*
X106888500Y-78025000D01*
X106868545Y-77796913D01*
X106866484Y-77789220D01*
X106866510Y-77788133D01*
X106866166Y-77786183D01*
X106866558Y-77786114D01*
X106868176Y-77718244D01*
X106899097Y-77667518D01*
X107178690Y-77387925D01*
X107184956Y-77382071D01*
X107220939Y-77350681D01*
X107226666Y-77345685D01*
X107262033Y-77295362D01*
X107265959Y-77290077D01*
X107299240Y-77247632D01*
X107299242Y-77247628D01*
X107303929Y-77241651D01*
X107307055Y-77234728D01*
X107309655Y-77230435D01*
X107315054Y-77220969D01*
X107317422Y-77216552D01*
X107321788Y-77210340D01*
X107344133Y-77153028D01*
X107346689Y-77146947D01*
X107368880Y-77097800D01*
X107372005Y-77090879D01*
X107373390Y-77083407D01*
X107374894Y-77078606D01*
X107377869Y-77068164D01*
X107379119Y-77063295D01*
X107381881Y-77056212D01*
X107388071Y-77009195D01*
X107389915Y-76995191D01*
X107390942Y-76988703D01*
X107402151Y-76928221D01*
X107399527Y-76882700D01*
X107398720Y-76868712D01*
X107398511Y-76861459D01*
X107398511Y-74393730D01*
X107398803Y-74385161D01*
X107402050Y-74337536D01*
X107402050Y-74337532D01*
X107402566Y-74329960D01*
X107391989Y-74269353D01*
X107391029Y-74262849D01*
X107384550Y-74209308D01*
X107383637Y-74201764D01*
X107380951Y-74194657D01*
X107379757Y-74189795D01*
X107376893Y-74179325D01*
X107375430Y-74174478D01*
X107374124Y-74166995D01*
X107349391Y-74110650D01*
X107346910Y-74104569D01*
X107327849Y-74054125D01*
X107327848Y-74054123D01*
X107325162Y-74047015D01*
X107320857Y-74040751D01*
X107318511Y-74036264D01*
X107313228Y-74026772D01*
X107310683Y-74022469D01*
X107307632Y-74015518D01*
X107303010Y-74009495D01*
X107303008Y-74009491D01*
X107270167Y-73966691D01*
X107266291Y-73961357D01*
X107261352Y-73954171D01*
X107231462Y-73910681D01*
X107193031Y-73876440D01*
X107186936Y-73871010D01*
X107181660Y-73866028D01*
X104751960Y-71436329D01*
X104746106Y-71430063D01*
X104714709Y-71394072D01*
X104709713Y-71388345D01*
X104659377Y-71352968D01*
X104654091Y-71349042D01*
X104634412Y-71333612D01*
X104605678Y-71311082D01*
X104598749Y-71307954D01*
X104592257Y-71304022D01*
X104593441Y-71302067D01*
X104548148Y-71263155D01*
X104540705Y-71249719D01*
X104539850Y-71248239D01*
X104537524Y-71243250D01*
X104423704Y-71080698D01*
X104409358Y-71060209D01*
X104409356Y-71060206D01*
X104406199Y-71055698D01*
X104349096Y-70998595D01*
X104315070Y-70936283D01*
X104320135Y-70865468D01*
X104362682Y-70808632D01*
X104429202Y-70783821D01*
X104438191Y-70783500D01*
X105872263Y-70783500D01*
X105880832Y-70783792D01*
X105928457Y-70787039D01*
X105928461Y-70787039D01*
X105936033Y-70787555D01*
X105943510Y-70786250D01*
X105943512Y-70786250D01*
X105982960Y-70779365D01*
X105996629Y-70776979D01*
X106003114Y-70776022D01*
X106064230Y-70768626D01*
X106071336Y-70765941D01*
X106076226Y-70764740D01*
X106086688Y-70761878D01*
X106091520Y-70760419D01*
X106098998Y-70759114D01*
X106105947Y-70756064D01*
X106105956Y-70756061D01*
X106155330Y-70734388D01*
X106161433Y-70731897D01*
X106211869Y-70712838D01*
X106211871Y-70712837D01*
X106218979Y-70710151D01*
X106225244Y-70705845D01*
X106229737Y-70703496D01*
X106239181Y-70698240D01*
X106243521Y-70695674D01*
X106250475Y-70692621D01*
X106260204Y-70685156D01*
X106299284Y-70655168D01*
X106304622Y-70651290D01*
X106349054Y-70620753D01*
X106349056Y-70620752D01*
X106355313Y-70616451D01*
X106362950Y-70607880D01*
X106394978Y-70571932D01*
X106399959Y-70566655D01*
X106822519Y-70144096D01*
X106884831Y-70110071D01*
X106941140Y-70111412D01*
X106941183Y-70111166D01*
X106942800Y-70111451D01*
X106944225Y-70111485D01*
X106946598Y-70112121D01*
X106946600Y-70112121D01*
X106951913Y-70113545D01*
X107180000Y-70133500D01*
X107408087Y-70113545D01*
X107413400Y-70112121D01*
X107413402Y-70112121D01*
X107623933Y-70055709D01*
X107623935Y-70055708D01*
X107629243Y-70054286D01*
X107693439Y-70024351D01*
X107831763Y-69959850D01*
X107831768Y-69959847D01*
X107836750Y-69957524D01*
X107851706Y-69947052D01*
X108019791Y-69829358D01*
X108019794Y-69829356D01*
X108024302Y-69826199D01*
X108186199Y-69664302D01*
X108192769Y-69654920D01*
X108314367Y-69481259D01*
X108314368Y-69481257D01*
X108317524Y-69476750D01*
X108319847Y-69471768D01*
X108319850Y-69471763D01*
X108335805Y-69437546D01*
X108382722Y-69384261D01*
X108450999Y-69364800D01*
X108518959Y-69385342D01*
X108564195Y-69437546D01*
X108580150Y-69471763D01*
X108580153Y-69471768D01*
X108582476Y-69476750D01*
X108585632Y-69481257D01*
X108585633Y-69481259D01*
X108707232Y-69654920D01*
X108713801Y-69664302D01*
X108875698Y-69826199D01*
X108880206Y-69829356D01*
X108880209Y-69829358D01*
X108982771Y-69901173D01*
X109027099Y-69956631D01*
X109036500Y-70004386D01*
X109036501Y-70960808D01*
X109016499Y-71028929D01*
X108999596Y-71049903D01*
X108968801Y-71080698D01*
X108965644Y-71085206D01*
X108965642Y-71085209D01*
X108840633Y-71263741D01*
X108837476Y-71268250D01*
X108835153Y-71273232D01*
X108835150Y-71273237D01*
X108743040Y-71470769D01*
X108740714Y-71475757D01*
X108739292Y-71481065D01*
X108739291Y-71481067D01*
X108687099Y-71675848D01*
X108681455Y-71696913D01*
X108661500Y-71925000D01*
X108681455Y-72153087D01*
X108682879Y-72158400D01*
X108682879Y-72158402D01*
X108738757Y-72366938D01*
X108740714Y-72374243D01*
X108743036Y-72379224D01*
X108743037Y-72379225D01*
X108835150Y-72576763D01*
X108835153Y-72576768D01*
X108837476Y-72581750D01*
X108840632Y-72586257D01*
X108840633Y-72586259D01*
X108963449Y-72761658D01*
X108968801Y-72769302D01*
X109130698Y-72931199D01*
X109199858Y-72979625D01*
X109237771Y-73006172D01*
X109282100Y-73061629D01*
X109291501Y-73109385D01*
X109291501Y-73544498D01*
X109271499Y-73612619D01*
X109217843Y-73659112D01*
X109154520Y-73670019D01*
X109000000Y-73656500D01*
X108771913Y-73676455D01*
X108766600Y-73677879D01*
X108766598Y-73677879D01*
X108556067Y-73734291D01*
X108556065Y-73734292D01*
X108550757Y-73735714D01*
X108545776Y-73738036D01*
X108545775Y-73738037D01*
X108348237Y-73830150D01*
X108348232Y-73830153D01*
X108343250Y-73832476D01*
X108338743Y-73835632D01*
X108338741Y-73835633D01*
X108160209Y-73960642D01*
X108160206Y-73960644D01*
X108155698Y-73963801D01*
X107993801Y-74125698D01*
X107990644Y-74130206D01*
X107990642Y-74130209D01*
X107875255Y-74295000D01*
X107862476Y-74313250D01*
X107860153Y-74318232D01*
X107860150Y-74318237D01*
X107772796Y-74505569D01*
X107765714Y-74520757D01*
X107764292Y-74526065D01*
X107764291Y-74526067D01*
X107708516Y-74734220D01*
X107706455Y-74741913D01*
X107686500Y-74970000D01*
X107706455Y-75198087D01*
X107707879Y-75203400D01*
X107707879Y-75203402D01*
X107733440Y-75298794D01*
X107765714Y-75419243D01*
X107768036Y-75424224D01*
X107768037Y-75424225D01*
X107860150Y-75621763D01*
X107860153Y-75621768D01*
X107862476Y-75626750D01*
X107865632Y-75631257D01*
X107865633Y-75631259D01*
X107977327Y-75790774D01*
X107993801Y-75814302D01*
X108155698Y-75976199D01*
X108160208Y-75979357D01*
X108160214Y-75979362D01*
X108242770Y-76037168D01*
X108287099Y-76092625D01*
X108296500Y-76140381D01*
X108296501Y-76879619D01*
X108276499Y-76947740D01*
X108242771Y-76982832D01*
X108155698Y-77043801D01*
X107993801Y-77205698D01*
X107990645Y-77210205D01*
X107990642Y-77210209D01*
X107865633Y-77388741D01*
X107862476Y-77393250D01*
X107860153Y-77398232D01*
X107860150Y-77398237D01*
X107770800Y-77589849D01*
X107765714Y-77600757D01*
X107764292Y-77606065D01*
X107764291Y-77606067D01*
X107707879Y-77816598D01*
X107706455Y-77821913D01*
X107686500Y-78050000D01*
X107706455Y-78278087D01*
X107707879Y-78283400D01*
X107707879Y-78283402D01*
X107757547Y-78468762D01*
X107765714Y-78499243D01*
X107768036Y-78504224D01*
X107768037Y-78504225D01*
X107860150Y-78701763D01*
X107860153Y-78701768D01*
X107862476Y-78706750D01*
X107865632Y-78711257D01*
X107865633Y-78711259D01*
X107990642Y-78889790D01*
X107993801Y-78894302D01*
X108155698Y-79056199D01*
X108160206Y-79059356D01*
X108160209Y-79059358D01*
X108338741Y-79184367D01*
X108343250Y-79187524D01*
X108348232Y-79189847D01*
X108348237Y-79189850D01*
X108545775Y-79281963D01*
X108550757Y-79284286D01*
X108556065Y-79285708D01*
X108556067Y-79285709D01*
X108766598Y-79342121D01*
X108766600Y-79342121D01*
X108771913Y-79343545D01*
X109000000Y-79363500D01*
X109228087Y-79343545D01*
X109233400Y-79342121D01*
X109233402Y-79342121D01*
X109443933Y-79285709D01*
X109443935Y-79285708D01*
X109449243Y-79284286D01*
X109454225Y-79281963D01*
X109651763Y-79189850D01*
X109651768Y-79189847D01*
X109656750Y-79187524D01*
X109661259Y-79184367D01*
X109839791Y-79059358D01*
X109839794Y-79059356D01*
X109844302Y-79056199D01*
X110006199Y-78894302D01*
X110081171Y-78787230D01*
X110136628Y-78742901D01*
X110184384Y-78733500D01*
X112024696Y-78733500D01*
X112092817Y-78753502D01*
X112113791Y-78770405D01*
X114156548Y-80813163D01*
X116197064Y-82853679D01*
X116202918Y-82859945D01*
X116239304Y-82901655D01*
X116289627Y-82937022D01*
X116294912Y-82940948D01*
X116337357Y-82974229D01*
X116337361Y-82974231D01*
X116343338Y-82978918D01*
X116350261Y-82982044D01*
X116354554Y-82984644D01*
X116364020Y-82990043D01*
X116368437Y-82992411D01*
X116374649Y-82996777D01*
X116412635Y-83011587D01*
X116431961Y-83019122D01*
X116438042Y-83021678D01*
X116443759Y-83024259D01*
X116494110Y-83046994D01*
X116501578Y-83048378D01*
X116506422Y-83049896D01*
X116516808Y-83052855D01*
X116521704Y-83054112D01*
X116528777Y-83056870D01*
X116536307Y-83057861D01*
X116536310Y-83057862D01*
X116589775Y-83064900D01*
X116596292Y-83065932D01*
X116637125Y-83073500D01*
X116656769Y-83077141D01*
X116664349Y-83076704D01*
X116664350Y-83076704D01*
X116716288Y-83073709D01*
X116723541Y-83073500D01*
X127122303Y-83073500D01*
X127130872Y-83073792D01*
X127178497Y-83077039D01*
X127178501Y-83077039D01*
X127186073Y-83077555D01*
X127193550Y-83076250D01*
X127193552Y-83076250D01*
X127231181Y-83069683D01*
X127246669Y-83066979D01*
X127253154Y-83066022D01*
X127314270Y-83058626D01*
X127321376Y-83055941D01*
X127326266Y-83054740D01*
X127336728Y-83051878D01*
X127341560Y-83050419D01*
X127349038Y-83049114D01*
X127355987Y-83046064D01*
X127355996Y-83046061D01*
X127405370Y-83024388D01*
X127411473Y-83021897D01*
X127461909Y-83002838D01*
X127461911Y-83002837D01*
X127469019Y-83000151D01*
X127475284Y-82995845D01*
X127479777Y-82993496D01*
X127489221Y-82988240D01*
X127493561Y-82985674D01*
X127500515Y-82982621D01*
X127511452Y-82974229D01*
X127549324Y-82945168D01*
X127554662Y-82941290D01*
X127599094Y-82910753D01*
X127599096Y-82910752D01*
X127605353Y-82906451D01*
X127645027Y-82861922D01*
X127650007Y-82856647D01*
X130603679Y-79902976D01*
X130609945Y-79897122D01*
X130645928Y-79865732D01*
X130651655Y-79860736D01*
X130687022Y-79810413D01*
X130690948Y-79805128D01*
X130724229Y-79762683D01*
X130724231Y-79762679D01*
X130728918Y-79756702D01*
X130732044Y-79749779D01*
X130734644Y-79745486D01*
X130740043Y-79736020D01*
X130742411Y-79731603D01*
X130746777Y-79725391D01*
X130769122Y-79668079D01*
X130771678Y-79661998D01*
X130793869Y-79612851D01*
X130796994Y-79605930D01*
X130798379Y-79598458D01*
X130799883Y-79593657D01*
X130802858Y-79583215D01*
X130804108Y-79578346D01*
X130806870Y-79571263D01*
X130814904Y-79510242D01*
X130815931Y-79503754D01*
X130827140Y-79443272D01*
X130826244Y-79427722D01*
X130823709Y-79383763D01*
X130823500Y-79376510D01*
X130823500Y-75364384D01*
X130843502Y-75296263D01*
X130877230Y-75261171D01*
X130975150Y-75192607D01*
X130984302Y-75186199D01*
X131146199Y-75024302D01*
X131161988Y-75001754D01*
X131274367Y-74841259D01*
X131274368Y-74841257D01*
X131277524Y-74836750D01*
X131279847Y-74831768D01*
X131279850Y-74831763D01*
X131371963Y-74634225D01*
X131371964Y-74634224D01*
X131374286Y-74629243D01*
X131378768Y-74612518D01*
X131432121Y-74413402D01*
X131432121Y-74413400D01*
X131433545Y-74408087D01*
X131453500Y-74180000D01*
X131433545Y-73951913D01*
X131426836Y-73926873D01*
X131375709Y-73736067D01*
X131375708Y-73736065D01*
X131374286Y-73730757D01*
X131369308Y-73720081D01*
X131279850Y-73528237D01*
X131279847Y-73528232D01*
X131277524Y-73523250D01*
X131259898Y-73498077D01*
X131149358Y-73340209D01*
X131149356Y-73340206D01*
X131146199Y-73335698D01*
X130984302Y-73173801D01*
X130979794Y-73170644D01*
X130979791Y-73170642D01*
X130801259Y-73045633D01*
X130801257Y-73045632D01*
X130796750Y-73042476D01*
X130791768Y-73040153D01*
X130791763Y-73040150D01*
X130594225Y-72948037D01*
X130594224Y-72948036D01*
X130589243Y-72945714D01*
X130583935Y-72944292D01*
X130583933Y-72944291D01*
X130373402Y-72887879D01*
X130373400Y-72887879D01*
X130368087Y-72886455D01*
X130140000Y-72866500D01*
X129911913Y-72886455D01*
X129906600Y-72887879D01*
X129906598Y-72887879D01*
X129696067Y-72944291D01*
X129696065Y-72944292D01*
X129690757Y-72945714D01*
X129685776Y-72948036D01*
X129685775Y-72948037D01*
X129488237Y-73040150D01*
X129488232Y-73040153D01*
X129483250Y-73042476D01*
X129478743Y-73045632D01*
X129478741Y-73045633D01*
X129300209Y-73170642D01*
X129300206Y-73170644D01*
X129295698Y-73173801D01*
X129133801Y-73335698D01*
X129130644Y-73340206D01*
X129130642Y-73340209D01*
X129020102Y-73498077D01*
X129002476Y-73523250D01*
X129000153Y-73528232D01*
X129000150Y-73528237D01*
X128910692Y-73720081D01*
X128905714Y-73730757D01*
X128904292Y-73736065D01*
X128904291Y-73736067D01*
X128853164Y-73926873D01*
X128846455Y-73951913D01*
X128826500Y-74180000D01*
X128846455Y-74408087D01*
X128847879Y-74413400D01*
X128847879Y-74413402D01*
X128901233Y-74612518D01*
X128905714Y-74629243D01*
X128908036Y-74634224D01*
X128908037Y-74634225D01*
X129000150Y-74831763D01*
X129000153Y-74831768D01*
X129002476Y-74836750D01*
X129005632Y-74841257D01*
X129005633Y-74841259D01*
X129118013Y-75001754D01*
X129133801Y-75024302D01*
X129295698Y-75186199D01*
X129300208Y-75189357D01*
X129300214Y-75189362D01*
X129402770Y-75261172D01*
X129447099Y-75316629D01*
X129456500Y-75364385D01*
X129456501Y-79064734D01*
X129436499Y-79132855D01*
X129419596Y-79153829D01*
X128587874Y-79985552D01*
X127928595Y-80644831D01*
X127866283Y-80678856D01*
X127795468Y-80673792D01*
X127738632Y-80631245D01*
X127713821Y-80564725D01*
X127713500Y-80555736D01*
X127713500Y-80495305D01*
X127733502Y-80427184D01*
X127750405Y-80406210D01*
X128038701Y-80117914D01*
X128044967Y-80112060D01*
X128080950Y-80080670D01*
X128086675Y-80075676D01*
X128091044Y-80069460D01*
X128122045Y-80025351D01*
X128125976Y-80020058D01*
X128159249Y-79977622D01*
X128159252Y-79977617D01*
X128163937Y-79971642D01*
X128167062Y-79964720D01*
X128169680Y-79960398D01*
X128175040Y-79951001D01*
X128177428Y-79946548D01*
X128181797Y-79940331D01*
X128184555Y-79933257D01*
X128184561Y-79933246D01*
X128204156Y-79882988D01*
X128206711Y-79876909D01*
X128228888Y-79827792D01*
X128228889Y-79827789D01*
X128232013Y-79820870D01*
X128233397Y-79813403D01*
X128234911Y-79808572D01*
X128237883Y-79798142D01*
X128239132Y-79793278D01*
X128241890Y-79786203D01*
X128249924Y-79725180D01*
X128250956Y-79718665D01*
X128260776Y-79665680D01*
X128262160Y-79658212D01*
X128258729Y-79598703D01*
X128258520Y-79591450D01*
X128258520Y-72042756D01*
X128258812Y-72034187D01*
X128262059Y-71986562D01*
X128262059Y-71986558D01*
X128262575Y-71978986D01*
X128261270Y-71971510D01*
X128261270Y-71971504D01*
X128252001Y-71918393D01*
X128251038Y-71911871D01*
X128245060Y-71862476D01*
X128243646Y-71850790D01*
X128240962Y-71843687D01*
X128239760Y-71838793D01*
X128236903Y-71828350D01*
X128235440Y-71823504D01*
X128234134Y-71816021D01*
X128231080Y-71809063D01*
X128209405Y-71759684D01*
X128206913Y-71753579D01*
X128187856Y-71703146D01*
X128187855Y-71703144D01*
X128185171Y-71696041D01*
X128180868Y-71689781D01*
X128178501Y-71685253D01*
X128173266Y-71675848D01*
X128170693Y-71671497D01*
X128167641Y-71664544D01*
X128163019Y-71658521D01*
X128163017Y-71658517D01*
X128130176Y-71615717D01*
X128126300Y-71610383D01*
X128091471Y-71559707D01*
X128046951Y-71520041D01*
X128041676Y-71515061D01*
X126252943Y-69726329D01*
X126247089Y-69720063D01*
X126215692Y-69684072D01*
X126210696Y-69678345D01*
X126160360Y-69642968D01*
X126155074Y-69639042D01*
X126141078Y-69628068D01*
X126106661Y-69601082D01*
X126099732Y-69597954D01*
X126095380Y-69595318D01*
X126086030Y-69589985D01*
X126081566Y-69587591D01*
X126075351Y-69583223D01*
X126068276Y-69580464D01*
X126068273Y-69580463D01*
X126018032Y-69560875D01*
X126011951Y-69558319D01*
X125962813Y-69536132D01*
X125962811Y-69536131D01*
X125955889Y-69533006D01*
X125948420Y-69531622D01*
X125943574Y-69530103D01*
X125933163Y-69527138D01*
X125928301Y-69525890D01*
X125921223Y-69523130D01*
X125890076Y-69519030D01*
X125860206Y-69515097D01*
X125853692Y-69514065D01*
X125800700Y-69504244D01*
X125800698Y-69504244D01*
X125793231Y-69502860D01*
X125785650Y-69503297D01*
X125785649Y-69503297D01*
X125733723Y-69506291D01*
X125726470Y-69506500D01*
X125254384Y-69506500D01*
X125186263Y-69486498D01*
X125151171Y-69452770D01*
X125076199Y-69345698D01*
X124914302Y-69183801D01*
X124909794Y-69180644D01*
X124909791Y-69180642D01*
X124731259Y-69055633D01*
X124731257Y-69055632D01*
X124726750Y-69052476D01*
X124721768Y-69050153D01*
X124721763Y-69050150D01*
X124524225Y-68958037D01*
X124524224Y-68958036D01*
X124519243Y-68955714D01*
X124513935Y-68954292D01*
X124513933Y-68954291D01*
X124303402Y-68897879D01*
X124303400Y-68897879D01*
X124298087Y-68896455D01*
X124070000Y-68876500D01*
X123841913Y-68896455D01*
X123836600Y-68897879D01*
X123836598Y-68897879D01*
X123626067Y-68954291D01*
X123626065Y-68954292D01*
X123620757Y-68955714D01*
X123615776Y-68958036D01*
X123615775Y-68958037D01*
X123418237Y-69050150D01*
X123418232Y-69050153D01*
X123413250Y-69052476D01*
X123408743Y-69055632D01*
X123408741Y-69055633D01*
X123230209Y-69180642D01*
X123230206Y-69180644D01*
X123225698Y-69183801D01*
X123063801Y-69345698D01*
X122988829Y-69452770D01*
X122933372Y-69497099D01*
X122885616Y-69506500D01*
X121417736Y-69506500D01*
X121409167Y-69506208D01*
X121361542Y-69502961D01*
X121361538Y-69502961D01*
X121353966Y-69502445D01*
X121293359Y-69513022D01*
X121286868Y-69513980D01*
X121225770Y-69521374D01*
X121218663Y-69524060D01*
X121213801Y-69525254D01*
X121203355Y-69528112D01*
X121198494Y-69529580D01*
X121191001Y-69530887D01*
X121184040Y-69533943D01*
X121184039Y-69533943D01*
X121134680Y-69555609D01*
X121128575Y-69558101D01*
X121124410Y-69559675D01*
X121071021Y-69579849D01*
X121064762Y-69584151D01*
X121060308Y-69586479D01*
X121050825Y-69591756D01*
X121046477Y-69594328D01*
X121039524Y-69597380D01*
X120990705Y-69634841D01*
X120985396Y-69638697D01*
X120934687Y-69673549D01*
X120929635Y-69679219D01*
X120929634Y-69679220D01*
X120895022Y-69718068D01*
X120890041Y-69723344D01*
X120577441Y-70035944D01*
X120515129Y-70069970D01*
X120444314Y-70064905D01*
X120387478Y-70022358D01*
X120364260Y-69968729D01*
X120364024Y-69967394D01*
X120363545Y-69961913D01*
X120304286Y-69740757D01*
X120296166Y-69723344D01*
X120209850Y-69538237D01*
X120209847Y-69538232D01*
X120207524Y-69533250D01*
X120204367Y-69528741D01*
X120079358Y-69350209D01*
X120079356Y-69350206D01*
X120076199Y-69345698D01*
X119914302Y-69183801D01*
X119909794Y-69180644D01*
X119909791Y-69180642D01*
X119731259Y-69055633D01*
X119731257Y-69055632D01*
X119726750Y-69052476D01*
X119721768Y-69050153D01*
X119721763Y-69050150D01*
X119524225Y-68958037D01*
X119524224Y-68958036D01*
X119519243Y-68955714D01*
X119513935Y-68954292D01*
X119513933Y-68954291D01*
X119303402Y-68897879D01*
X119303400Y-68897879D01*
X119298087Y-68896455D01*
X119070000Y-68876500D01*
X118841913Y-68896455D01*
X118836600Y-68897879D01*
X118836598Y-68897879D01*
X118771130Y-68915421D01*
X118700153Y-68913731D01*
X118649424Y-68882809D01*
X117022943Y-67256329D01*
X117017089Y-67250063D01*
X116985691Y-67214070D01*
X116985688Y-67214067D01*
X116980696Y-67208345D01*
X116970618Y-67201262D01*
X116940050Y-67179778D01*
X116923405Y-67165786D01*
X116893948Y-67136329D01*
X116888094Y-67130063D01*
X116856697Y-67094072D01*
X116851701Y-67088345D01*
X116801365Y-67052968D01*
X116796079Y-67049042D01*
X116788372Y-67043000D01*
X116747666Y-67011082D01*
X116740737Y-67007954D01*
X116736385Y-67005318D01*
X116727035Y-66999985D01*
X116722571Y-66997591D01*
X116716356Y-66993223D01*
X116709281Y-66990464D01*
X116709278Y-66990463D01*
X116659037Y-66970875D01*
X116652956Y-66968319D01*
X116603818Y-66946132D01*
X116603816Y-66946131D01*
X116596894Y-66943006D01*
X116589425Y-66941622D01*
X116584579Y-66940103D01*
X116574168Y-66937138D01*
X116569306Y-66935890D01*
X116562228Y-66933130D01*
X116531081Y-66929030D01*
X116501211Y-66925097D01*
X116494697Y-66924065D01*
X116441705Y-66914244D01*
X116441703Y-66914244D01*
X116434236Y-66912860D01*
X116426655Y-66913297D01*
X116426654Y-66913297D01*
X116374728Y-66916291D01*
X116367475Y-66916500D01*
X104989191Y-66916500D01*
X104921070Y-66896498D01*
X104900096Y-66879595D01*
X104834302Y-66813801D01*
X104829794Y-66810644D01*
X104829791Y-66810642D01*
X104651259Y-66685633D01*
X104651257Y-66685632D01*
X104646750Y-66682476D01*
X104641768Y-66680153D01*
X104641763Y-66680150D01*
X104444225Y-66588037D01*
X104444224Y-66588036D01*
X104439243Y-66585714D01*
X104433935Y-66584292D01*
X104433933Y-66584291D01*
X104223402Y-66527879D01*
X104223400Y-66527879D01*
X104218087Y-66526455D01*
X103990000Y-66506500D01*
X103761913Y-66526455D01*
X103756600Y-66527879D01*
X103756598Y-66527879D01*
X103546067Y-66584291D01*
X103546065Y-66584292D01*
X103540757Y-66585714D01*
X103535776Y-66588036D01*
X103535775Y-66588037D01*
X103338237Y-66680150D01*
X103338232Y-66680153D01*
X103333250Y-66682476D01*
X103328743Y-66685632D01*
X103328741Y-66685633D01*
X103150209Y-66810642D01*
X103150206Y-66810644D01*
X103145698Y-66813801D01*
X102983801Y-66975698D01*
X102980644Y-66980206D01*
X102980642Y-66980209D01*
X102873453Y-67133291D01*
X102852476Y-67163250D01*
X102850153Y-67168232D01*
X102850150Y-67168237D01*
X102759001Y-67363708D01*
X102755714Y-67370757D01*
X102754292Y-67376065D01*
X102754291Y-67376067D01*
X102701024Y-67574861D01*
X102696455Y-67591913D01*
X102676500Y-67820000D01*
X102696455Y-68048087D01*
X102697879Y-68053400D01*
X102697879Y-68053402D01*
X102722139Y-68143939D01*
X102755714Y-68269243D01*
X102788806Y-68340209D01*
X102850150Y-68471763D01*
X102850153Y-68471768D01*
X102852476Y-68476750D01*
X102855632Y-68481257D01*
X102855633Y-68481259D01*
X102970786Y-68645714D01*
X102983801Y-68664302D01*
X103145698Y-68826199D01*
X103150206Y-68829356D01*
X103150209Y-68829358D01*
X103328741Y-68954367D01*
X103333250Y-68957524D01*
X103338232Y-68959847D01*
X103338237Y-68959850D01*
X103511259Y-69040531D01*
X103540757Y-69054286D01*
X103546065Y-69055708D01*
X103546067Y-69055709D01*
X103756598Y-69112121D01*
X103756600Y-69112121D01*
X103761913Y-69113545D01*
X103990000Y-69133500D01*
X104218087Y-69113545D01*
X104223400Y-69112121D01*
X104223402Y-69112121D01*
X104433933Y-69055709D01*
X104433935Y-69055708D01*
X104439243Y-69054286D01*
X104468741Y-69040531D01*
X104641763Y-68959850D01*
X104641768Y-68959847D01*
X104646750Y-68957524D01*
X104651259Y-68954367D01*
X104829791Y-68829358D01*
X104829794Y-68829356D01*
X104834302Y-68826199D01*
X104996199Y-68664302D01*
X105009215Y-68645714D01*
X105124367Y-68481259D01*
X105124368Y-68481257D01*
X105127524Y-68476750D01*
X105129847Y-68471768D01*
X105129850Y-68471763D01*
X105183714Y-68356250D01*
X105230631Y-68302965D01*
X105297909Y-68283500D01*
X105804888Y-68283500D01*
X105873009Y-68303502D01*
X105919502Y-68357158D01*
X105929606Y-68427432D01*
X105926597Y-68442102D01*
X105886455Y-68591913D01*
X105866500Y-68820000D01*
X105886455Y-69048087D01*
X105887879Y-69053400D01*
X105887879Y-69053402D01*
X105888515Y-69055775D01*
X105888489Y-69056861D01*
X105888834Y-69058817D01*
X105888441Y-69058886D01*
X105886825Y-69126751D01*
X105855904Y-69177481D01*
X105653791Y-69379595D01*
X105591479Y-69413620D01*
X105564695Y-69416500D01*
X103477736Y-69416500D01*
X103469167Y-69416208D01*
X103421542Y-69412961D01*
X103421538Y-69412961D01*
X103413966Y-69412445D01*
X103353359Y-69423022D01*
X103346868Y-69423980D01*
X103285770Y-69431374D01*
X103278663Y-69434060D01*
X103273801Y-69435254D01*
X103263331Y-69438118D01*
X103258484Y-69439581D01*
X103251001Y-69440887D01*
X103194656Y-69465620D01*
X103188575Y-69468101D01*
X103138131Y-69487162D01*
X103138129Y-69487163D01*
X103131021Y-69489849D01*
X103124757Y-69494154D01*
X103120270Y-69496500D01*
X103110778Y-69501783D01*
X103106475Y-69504328D01*
X103099524Y-69507379D01*
X103093501Y-69512001D01*
X103093497Y-69512003D01*
X103050697Y-69544844D01*
X103045372Y-69548713D01*
X102994687Y-69583549D01*
X102956864Y-69626001D01*
X102955022Y-69628068D01*
X102950041Y-69633344D01*
X101761311Y-70822075D01*
X101755045Y-70827929D01*
X101713335Y-70864315D01*
X101677953Y-70914658D01*
X101674047Y-70919918D01*
X101661215Y-70936283D01*
X101641985Y-70960808D01*
X101636071Y-70968350D01*
X101632946Y-70975271D01*
X101630330Y-70979591D01*
X101624991Y-70988951D01*
X101622582Y-70993444D01*
X101618213Y-70999660D01*
X101596365Y-71055698D01*
X101595871Y-71056964D01*
X101593315Y-71063043D01*
X101571120Y-71112200D01*
X101567995Y-71119122D01*
X101566612Y-71126585D01*
X101565103Y-71131399D01*
X101562134Y-71141823D01*
X101560879Y-71146712D01*
X101558120Y-71153788D01*
X101552121Y-71199358D01*
X101550089Y-71214790D01*
X101549059Y-71221293D01*
X101537849Y-71281780D01*
X101538286Y-71289361D01*
X101538286Y-71289362D01*
X101541281Y-71341305D01*
X101541490Y-71348558D01*
X101541489Y-72547251D01*
X101541197Y-72555820D01*
X101537434Y-72611022D01*
X101538739Y-72618498D01*
X101538739Y-72618504D01*
X101548008Y-72671615D01*
X101548971Y-72678137D01*
X101556363Y-72739218D01*
X101559047Y-72746321D01*
X101560249Y-72751215D01*
X101563106Y-72761658D01*
X101564569Y-72766504D01*
X101565875Y-72773987D01*
X101568928Y-72780943D01*
X101568929Y-72780945D01*
X101590604Y-72830324D01*
X101593096Y-72836429D01*
X101594847Y-72841061D01*
X101614838Y-72893967D01*
X101619141Y-72900227D01*
X101621508Y-72904755D01*
X101626743Y-72914160D01*
X101629316Y-72918511D01*
X101632368Y-72925464D01*
X101636990Y-72931487D01*
X101636992Y-72931491D01*
X101669833Y-72974291D01*
X101673702Y-72979616D01*
X101708538Y-73030301D01*
X101753060Y-73069969D01*
X101758336Y-73074950D01*
X104044790Y-75361405D01*
X104078816Y-75423717D01*
X104073751Y-75494533D01*
X104031204Y-75551368D01*
X103964684Y-75576179D01*
X103955695Y-75576500D01*
X99260084Y-75576500D01*
X99191963Y-75556498D01*
X99145470Y-75502842D01*
X99135366Y-75432568D01*
X99145890Y-75397249D01*
X99151961Y-75384230D01*
X99151963Y-75384225D01*
X99154286Y-75379243D01*
X99158268Y-75364384D01*
X99212121Y-75163402D01*
X99212121Y-75163400D01*
X99213545Y-75158087D01*
X99233500Y-74930000D01*
X99213545Y-74701913D01*
X99192108Y-74621910D01*
X99155709Y-74486067D01*
X99155708Y-74486065D01*
X99154286Y-74480757D01*
X99141501Y-74453339D01*
X99059850Y-74278237D01*
X99059847Y-74278232D01*
X99057524Y-74273250D01*
X99052542Y-74266135D01*
X98929358Y-74090209D01*
X98929356Y-74090206D01*
X98926199Y-74085698D01*
X98764302Y-73923801D01*
X98657230Y-73848829D01*
X98612901Y-73793372D01*
X98603500Y-73745616D01*
X98603500Y-73296816D01*
X98623502Y-73228695D01*
X98677158Y-73182202D01*
X98696884Y-73175111D01*
X98800369Y-73147382D01*
X98843933Y-73135709D01*
X98843935Y-73135708D01*
X98849243Y-73134286D01*
X98891786Y-73114448D01*
X99051763Y-73039850D01*
X99051768Y-73039847D01*
X99056750Y-73037524D01*
X99076009Y-73024039D01*
X99239791Y-72909358D01*
X99239794Y-72909356D01*
X99244302Y-72906199D01*
X99406199Y-72744302D01*
X99494284Y-72618504D01*
X99534367Y-72561259D01*
X99534368Y-72561257D01*
X99537524Y-72556750D01*
X99539847Y-72551768D01*
X99539850Y-72551763D01*
X99631963Y-72354225D01*
X99631964Y-72354224D01*
X99634286Y-72349243D01*
X99644147Y-72312444D01*
X99692121Y-72133402D01*
X99692121Y-72133400D01*
X99693545Y-72128087D01*
X99713500Y-71900000D01*
X99693545Y-71671913D01*
X99692045Y-71666315D01*
X99691484Y-71664220D01*
X99691510Y-71663133D01*
X99691166Y-71661183D01*
X99691558Y-71661114D01*
X99693176Y-71593244D01*
X99724097Y-71542518D01*
X101953679Y-69312936D01*
X101959945Y-69307082D01*
X101995928Y-69275692D01*
X102001655Y-69270696D01*
X102037022Y-69220373D01*
X102040948Y-69215088D01*
X102074229Y-69172643D01*
X102074231Y-69172639D01*
X102078918Y-69166662D01*
X102082044Y-69159739D01*
X102084644Y-69155446D01*
X102090043Y-69145980D01*
X102092411Y-69141563D01*
X102096777Y-69135351D01*
X102119122Y-69078039D01*
X102121678Y-69071958D01*
X102143869Y-69022811D01*
X102146994Y-69015890D01*
X102148379Y-69008418D01*
X102149883Y-69003617D01*
X102152858Y-68993175D01*
X102154108Y-68988306D01*
X102156870Y-68981223D01*
X102161929Y-68942800D01*
X102164904Y-68920202D01*
X102165931Y-68913714D01*
X102177140Y-68853232D01*
X102176052Y-68834351D01*
X102173709Y-68793723D01*
X102173500Y-68786470D01*
X102173500Y-66335305D01*
X102193502Y-66267184D01*
X102210405Y-66246209D01*
X102366431Y-66090184D01*
X102786211Y-65670404D01*
X102848523Y-65636379D01*
X102875306Y-65633500D01*
X107822263Y-65633500D01*
X107830832Y-65633792D01*
X107878457Y-65637039D01*
X107878461Y-65637039D01*
X107886033Y-65637555D01*
X107893510Y-65636250D01*
X107893512Y-65636250D01*
X107931141Y-65629683D01*
X107946629Y-65626979D01*
X107953114Y-65626022D01*
X108014230Y-65618626D01*
X108021336Y-65615941D01*
X108026226Y-65614740D01*
X108036688Y-65611878D01*
X108041520Y-65610419D01*
X108048998Y-65609114D01*
X108055947Y-65606064D01*
X108055956Y-65606061D01*
X108105330Y-65584388D01*
X108111433Y-65581897D01*
X108161869Y-65562838D01*
X108161871Y-65562837D01*
X108168979Y-65560151D01*
X108175244Y-65555845D01*
X108179737Y-65553496D01*
X108189181Y-65548240D01*
X108193521Y-65545674D01*
X108200475Y-65542621D01*
X108249284Y-65505168D01*
X108254622Y-65501290D01*
X108299054Y-65470753D01*
X108299056Y-65470752D01*
X108305313Y-65466451D01*
X108344987Y-65421922D01*
X108349967Y-65416647D01*
X110183681Y-63582934D01*
X110189947Y-63577080D01*
X110225930Y-63545690D01*
X110231655Y-63540696D01*
X110267029Y-63490363D01*
X110270962Y-63485069D01*
X110308917Y-63436663D01*
X110312043Y-63429740D01*
X110314657Y-63425424D01*
X110320012Y-63416037D01*
X110322410Y-63411565D01*
X110326777Y-63405351D01*
X110329538Y-63398270D01*
X110349135Y-63348010D01*
X110351689Y-63341933D01*
X110373869Y-63292808D01*
X110376993Y-63285890D01*
X110378377Y-63278422D01*
X110379891Y-63273592D01*
X110382863Y-63263162D01*
X110384112Y-63258298D01*
X110386870Y-63251223D01*
X110394904Y-63190200D01*
X110395936Y-63183685D01*
X110405756Y-63130700D01*
X110407140Y-63123232D01*
X110403709Y-63063723D01*
X110403500Y-63056470D01*
X110403500Y-62384384D01*
X110423502Y-62316263D01*
X110457230Y-62281171D01*
X110474011Y-62269421D01*
X110564302Y-62206199D01*
X110726199Y-62044302D01*
X110734388Y-62032608D01*
X110854367Y-61861259D01*
X110854368Y-61861257D01*
X110857524Y-61856750D01*
X110859847Y-61851768D01*
X110859850Y-61851763D01*
X110875805Y-61817546D01*
X110922722Y-61764261D01*
X110990999Y-61744800D01*
X111058959Y-61765342D01*
X111104195Y-61817546D01*
X111120150Y-61851763D01*
X111120153Y-61851768D01*
X111122476Y-61856750D01*
X111125632Y-61861257D01*
X111125633Y-61861259D01*
X111245613Y-62032608D01*
X111253801Y-62044302D01*
X111415698Y-62206199D01*
X111420206Y-62209356D01*
X111420209Y-62209358D01*
X111588136Y-62326941D01*
X111603250Y-62337524D01*
X111608232Y-62339847D01*
X111608237Y-62339850D01*
X111793163Y-62426082D01*
X111810757Y-62434286D01*
X111816065Y-62435708D01*
X111816067Y-62435709D01*
X112026598Y-62492121D01*
X112026600Y-62492121D01*
X112031913Y-62493545D01*
X112260000Y-62513500D01*
X112488087Y-62493545D01*
X112493400Y-62492121D01*
X112493402Y-62492121D01*
X112703933Y-62435709D01*
X112703935Y-62435708D01*
X112709243Y-62434286D01*
X112726837Y-62426082D01*
X112911763Y-62339850D01*
X112911768Y-62339847D01*
X112916750Y-62337524D01*
X112931864Y-62326941D01*
X113099791Y-62209358D01*
X113099794Y-62209356D01*
X113104302Y-62206199D01*
X113266199Y-62044302D01*
X113269358Y-62039791D01*
X113272893Y-62035578D01*
X113273933Y-62036450D01*
X113324314Y-61996182D01*
X113394934Y-61988876D01*
X113458293Y-62020909D01*
X113492962Y-62077285D01*
X113529671Y-62202304D01*
X113532904Y-62213316D01*
X113537775Y-62220895D01*
X113607051Y-62328691D01*
X113607053Y-62328694D01*
X113611923Y-62336271D01*
X113618733Y-62342172D01*
X113715569Y-62426082D01*
X113715572Y-62426084D01*
X113722381Y-62431984D01*
X113730579Y-62435728D01*
X113834927Y-62483382D01*
X113855330Y-62492700D01*
X113864245Y-62493982D01*
X113864246Y-62493982D01*
X113995552Y-62512861D01*
X113995559Y-62512862D01*
X114000000Y-62513500D01*
X115600000Y-62513500D01*
X115673079Y-62508273D01*
X115757851Y-62483382D01*
X115804670Y-62469635D01*
X115804672Y-62469634D01*
X115813316Y-62467096D01*
X115877135Y-62426082D01*
X115928691Y-62392949D01*
X115928694Y-62392947D01*
X115936271Y-62388077D01*
X115942402Y-62381001D01*
X116026082Y-62284431D01*
X116026084Y-62284428D01*
X116031984Y-62277619D01*
X116063158Y-62209358D01*
X116088958Y-62152864D01*
X116088958Y-62152863D01*
X116092700Y-62144670D01*
X116113500Y-62000000D01*
X116113500Y-61999551D01*
X116137953Y-61933991D01*
X116194789Y-61891444D01*
X116238821Y-61883500D01*
X117080809Y-61883500D01*
X117148930Y-61903502D01*
X117169904Y-61920405D01*
X117325698Y-62076199D01*
X117330206Y-62079356D01*
X117330209Y-62079358D01*
X117467346Y-62175382D01*
X117513250Y-62207524D01*
X117518232Y-62209847D01*
X117518237Y-62209850D01*
X117715775Y-62301963D01*
X117720757Y-62304286D01*
X117726065Y-62305708D01*
X117726067Y-62305709D01*
X117936598Y-62362121D01*
X117936600Y-62362121D01*
X117941913Y-62363545D01*
X118170000Y-62383500D01*
X118398087Y-62363545D01*
X118403400Y-62362121D01*
X118403402Y-62362121D01*
X118613933Y-62305709D01*
X118613935Y-62305708D01*
X118619243Y-62304286D01*
X118624225Y-62301963D01*
X118821763Y-62209850D01*
X118821768Y-62209847D01*
X118826750Y-62207524D01*
X118872654Y-62175382D01*
X119009791Y-62079358D01*
X119009794Y-62079356D01*
X119014302Y-62076199D01*
X119176199Y-61914302D01*
X119179358Y-61909791D01*
X119288253Y-61754273D01*
X119343710Y-61709945D01*
X119414330Y-61702636D01*
X119477690Y-61734667D01*
X119513675Y-61795868D01*
X119516986Y-61815559D01*
X119522930Y-61883500D01*
X119535975Y-62032606D01*
X119535976Y-62032611D01*
X119536455Y-62038087D01*
X119537878Y-62043398D01*
X119537879Y-62043402D01*
X119592193Y-62246101D01*
X119595714Y-62259243D01*
X119598036Y-62264224D01*
X119598037Y-62264225D01*
X119690150Y-62461763D01*
X119690153Y-62461768D01*
X119692476Y-62466750D01*
X119695632Y-62471257D01*
X119695633Y-62471259D01*
X119811577Y-62636844D01*
X119823801Y-62654302D01*
X119985698Y-62816199D01*
X119990206Y-62819356D01*
X119990209Y-62819358D01*
X120168741Y-62944367D01*
X120173250Y-62947524D01*
X120178232Y-62949847D01*
X120178237Y-62949850D01*
X120375775Y-63041963D01*
X120380757Y-63044286D01*
X120386065Y-63045708D01*
X120386067Y-63045709D01*
X120596598Y-63102121D01*
X120596600Y-63102121D01*
X120601913Y-63103545D01*
X120801482Y-63121005D01*
X120867600Y-63146869D01*
X120909239Y-63204372D01*
X120916500Y-63246526D01*
X120916501Y-63984694D01*
X120896499Y-64052815D01*
X120879596Y-64073789D01*
X120656764Y-64296621D01*
X120594452Y-64330647D01*
X120529256Y-64327528D01*
X120405071Y-64287776D01*
X120336350Y-64265778D01*
X120148070Y-64235115D01*
X120080054Y-64224038D01*
X120080053Y-64224038D01*
X120075442Y-64223287D01*
X119943281Y-64221557D01*
X119815797Y-64219888D01*
X119815794Y-64219888D01*
X119811120Y-64219827D01*
X119549189Y-64255474D01*
X119544703Y-64256782D01*
X119544701Y-64256782D01*
X119501740Y-64269304D01*
X119295405Y-64329445D01*
X119291152Y-64331405D01*
X119291151Y-64331406D01*
X119263696Y-64344063D01*
X119055342Y-64440116D01*
X119051437Y-64442676D01*
X119051432Y-64442679D01*
X118838187Y-64582488D01*
X118838182Y-64582492D01*
X118834274Y-64585054D01*
X118754808Y-64655980D01*
X118666840Y-64734495D01*
X118637057Y-64761077D01*
X118468025Y-64964316D01*
X118330890Y-65190308D01*
X118329081Y-65194622D01*
X118329080Y-65194624D01*
X118233766Y-65421923D01*
X118228665Y-65434087D01*
X118163595Y-65690298D01*
X118163127Y-65694949D01*
X118163126Y-65694953D01*
X118153839Y-65787190D01*
X118137111Y-65953313D01*
X118137335Y-65957979D01*
X118137335Y-65957984D01*
X118140484Y-66023531D01*
X118149794Y-66217354D01*
X118201365Y-66476620D01*
X118290692Y-66725415D01*
X118292908Y-66729539D01*
X118402301Y-66933130D01*
X118415811Y-66958274D01*
X118418606Y-66962017D01*
X118418608Y-66962020D01*
X118571183Y-67166343D01*
X118571188Y-67166349D01*
X118573975Y-67170081D01*
X118577284Y-67173361D01*
X118577289Y-67173367D01*
X118741619Y-67336269D01*
X118761709Y-67356184D01*
X118765471Y-67358942D01*
X118765474Y-67358945D01*
X118951303Y-67495200D01*
X118974889Y-67512494D01*
X118979032Y-67514674D01*
X118979034Y-67514675D01*
X119204681Y-67633394D01*
X119204686Y-67633396D01*
X119208831Y-67635577D01*
X119213254Y-67637122D01*
X119213255Y-67637122D01*
X119422951Y-67710351D01*
X119458396Y-67722729D01*
X119462989Y-67723601D01*
X119713513Y-67771164D01*
X119713516Y-67771164D01*
X119718102Y-67772035D01*
X119847895Y-67777135D01*
X119977575Y-67782231D01*
X119977581Y-67782231D01*
X119982243Y-67782414D01*
X120100596Y-67769452D01*
X120240364Y-67754145D01*
X120240369Y-67754144D01*
X120245017Y-67753635D01*
X120307837Y-67737096D01*
X120496131Y-67687522D01*
X120500651Y-67686332D01*
X120648906Y-67622637D01*
X120739226Y-67583833D01*
X120739229Y-67583831D01*
X120743529Y-67581984D01*
X120747509Y-67579521D01*
X120747513Y-67579519D01*
X120964342Y-67445341D01*
X120964346Y-67445338D01*
X120968315Y-67442882D01*
X121170072Y-67272082D01*
X121344366Y-67073337D01*
X121388118Y-67005318D01*
X121484842Y-66854943D01*
X121487370Y-66851013D01*
X121595942Y-66609993D01*
X121667696Y-66355573D01*
X121678894Y-66267547D01*
X121700658Y-66096472D01*
X121700658Y-66096466D01*
X121701056Y-66093341D01*
X121703500Y-66000000D01*
X121689888Y-65816826D01*
X121684256Y-65741034D01*
X121684255Y-65741030D01*
X121683910Y-65736382D01*
X121625570Y-65478555D01*
X121623877Y-65474201D01*
X121623875Y-65474194D01*
X121594467Y-65398572D01*
X121588420Y-65327833D01*
X121622805Y-65263810D01*
X122063679Y-64822936D01*
X122069945Y-64817082D01*
X122105928Y-64785692D01*
X122111655Y-64780696D01*
X122147022Y-64730373D01*
X122150948Y-64725088D01*
X122184229Y-64682643D01*
X122184231Y-64682639D01*
X122188918Y-64676662D01*
X122192044Y-64669739D01*
X122194644Y-64665446D01*
X122200043Y-64655980D01*
X122202411Y-64651563D01*
X122206777Y-64645351D01*
X122226647Y-64594388D01*
X122229122Y-64588039D01*
X122231678Y-64581958D01*
X122234259Y-64576241D01*
X122256994Y-64525890D01*
X122258378Y-64518422D01*
X122259896Y-64513578D01*
X122262855Y-64503192D01*
X122264112Y-64498296D01*
X122266870Y-64491223D01*
X122267909Y-64483335D01*
X122274900Y-64430225D01*
X122275932Y-64423708D01*
X122285757Y-64370698D01*
X122287141Y-64363231D01*
X122283709Y-64303710D01*
X122283500Y-64296458D01*
X122283500Y-62607736D01*
X122283792Y-62599167D01*
X122287039Y-62551542D01*
X122287039Y-62551538D01*
X122287555Y-62543966D01*
X122276978Y-62483359D01*
X122276018Y-62476855D01*
X122275145Y-62469635D01*
X122268626Y-62415770D01*
X122265940Y-62408663D01*
X122264746Y-62403801D01*
X122261888Y-62393355D01*
X122260420Y-62388494D01*
X122259113Y-62381001D01*
X122251661Y-62364024D01*
X122234391Y-62324680D01*
X122231899Y-62318575D01*
X122225622Y-62301963D01*
X122210151Y-62261021D01*
X122205849Y-62254762D01*
X122203521Y-62250308D01*
X122198240Y-62240819D01*
X122195672Y-62236478D01*
X122192620Y-62229524D01*
X122177524Y-62209850D01*
X122155170Y-62180719D01*
X122151302Y-62175396D01*
X122137759Y-62155691D01*
X122115660Y-62088223D01*
X122119893Y-62051718D01*
X122123545Y-62038087D01*
X122143500Y-61810000D01*
X122123545Y-61581913D01*
X122064286Y-61360757D01*
X122014226Y-61253402D01*
X121969850Y-61158237D01*
X121969847Y-61158232D01*
X121967524Y-61153250D01*
X121961981Y-61145333D01*
X121908059Y-61068325D01*
X121885371Y-61001051D01*
X121902656Y-60932190D01*
X121954426Y-60883606D01*
X122024244Y-60870724D01*
X122089943Y-60897632D01*
X122100366Y-60906958D01*
X123193407Y-62000000D01*
X124279596Y-63086189D01*
X124313622Y-63148501D01*
X124316501Y-63175284D01*
X124316501Y-64275942D01*
X124296499Y-64344063D01*
X124243253Y-64390368D01*
X124135342Y-64440116D01*
X124131437Y-64442676D01*
X124131432Y-64442679D01*
X123918187Y-64582488D01*
X123918182Y-64582492D01*
X123914274Y-64585054D01*
X123834808Y-64655980D01*
X123746840Y-64734495D01*
X123717057Y-64761077D01*
X123548025Y-64964316D01*
X123410890Y-65190308D01*
X123409081Y-65194622D01*
X123409080Y-65194624D01*
X123313766Y-65421923D01*
X123308665Y-65434087D01*
X123243595Y-65690298D01*
X123243127Y-65694949D01*
X123243126Y-65694953D01*
X123233839Y-65787190D01*
X123217111Y-65953313D01*
X123217335Y-65957979D01*
X123217335Y-65957984D01*
X123220484Y-66023531D01*
X123229794Y-66217354D01*
X123281365Y-66476620D01*
X123370692Y-66725415D01*
X123372908Y-66729539D01*
X123482301Y-66933130D01*
X123495811Y-66958274D01*
X123498606Y-66962017D01*
X123498608Y-66962020D01*
X123651183Y-67166343D01*
X123651188Y-67166349D01*
X123653975Y-67170081D01*
X123657284Y-67173361D01*
X123657289Y-67173367D01*
X123821619Y-67336269D01*
X123841709Y-67356184D01*
X123845471Y-67358942D01*
X123845474Y-67358945D01*
X124031303Y-67495200D01*
X124054889Y-67512494D01*
X124059032Y-67514674D01*
X124059034Y-67514675D01*
X124284681Y-67633394D01*
X124284686Y-67633396D01*
X124288831Y-67635577D01*
X124293254Y-67637122D01*
X124293255Y-67637122D01*
X124502951Y-67710351D01*
X124538396Y-67722729D01*
X124542989Y-67723601D01*
X124793513Y-67771164D01*
X124793516Y-67771164D01*
X124798102Y-67772035D01*
X124927895Y-67777135D01*
X125057575Y-67782231D01*
X125057581Y-67782231D01*
X125062243Y-67782414D01*
X125180596Y-67769452D01*
X125320364Y-67754145D01*
X125320369Y-67754144D01*
X125325017Y-67753635D01*
X125387837Y-67737096D01*
X125576131Y-67687522D01*
X125580651Y-67686332D01*
X125728906Y-67622637D01*
X125819226Y-67583833D01*
X125819229Y-67583831D01*
X125823529Y-67581984D01*
X125827509Y-67579521D01*
X125827513Y-67579519D01*
X126044342Y-67445341D01*
X126044346Y-67445338D01*
X126048315Y-67442882D01*
X126250072Y-67272082D01*
X126424366Y-67073337D01*
X126468118Y-67005318D01*
X126564842Y-66854943D01*
X126567370Y-66851013D01*
X126675942Y-66609993D01*
X126747696Y-66355573D01*
X126758894Y-66267547D01*
X126780658Y-66096472D01*
X126780658Y-66096466D01*
X126781056Y-66093341D01*
X126783500Y-66000000D01*
X126769888Y-65816826D01*
X126764256Y-65741034D01*
X126764255Y-65741030D01*
X126763910Y-65736382D01*
X126705570Y-65478555D01*
X126674466Y-65398572D01*
X126611454Y-65236536D01*
X126611453Y-65236534D01*
X126609761Y-65232183D01*
X126478589Y-65002679D01*
X126314934Y-64795085D01*
X126122393Y-64613960D01*
X125934610Y-64483690D01*
X125909037Y-64465949D01*
X125909034Y-64465947D01*
X125905195Y-64463284D01*
X125901005Y-64461218D01*
X125901002Y-64461216D01*
X125753772Y-64388611D01*
X125701523Y-64340543D01*
X125683500Y-64275605D01*
X125683500Y-62867714D01*
X125683792Y-62859145D01*
X125687039Y-62811520D01*
X125687039Y-62811516D01*
X125687555Y-62803944D01*
X125676978Y-62743337D01*
X125676018Y-62736833D01*
X125673969Y-62719896D01*
X125668626Y-62675748D01*
X125665940Y-62668641D01*
X125664746Y-62663779D01*
X125661882Y-62653309D01*
X125660419Y-62648462D01*
X125659113Y-62640979D01*
X125634380Y-62584634D01*
X125631899Y-62578553D01*
X125612838Y-62528109D01*
X125612837Y-62528107D01*
X125610151Y-62520999D01*
X125605846Y-62514735D01*
X125603500Y-62510248D01*
X125598217Y-62500756D01*
X125595672Y-62496453D01*
X125592621Y-62489502D01*
X125587999Y-62483479D01*
X125587997Y-62483475D01*
X125555156Y-62440675D01*
X125551280Y-62435341D01*
X125550555Y-62434286D01*
X125516451Y-62384665D01*
X125471931Y-62344999D01*
X125466656Y-62340019D01*
X124096846Y-60970209D01*
X122725416Y-59598780D01*
X122691390Y-59536468D01*
X122688511Y-59509685D01*
X122688511Y-57349316D01*
X122708513Y-57281195D01*
X122762169Y-57234702D01*
X122832443Y-57224598D01*
X122897023Y-57254092D01*
X122903606Y-57260221D01*
X123212075Y-57568690D01*
X123217929Y-57574956D01*
X123254315Y-57616666D01*
X123281223Y-57635577D01*
X123304647Y-57652040D01*
X123309942Y-57655973D01*
X123358348Y-57693928D01*
X123365271Y-57697054D01*
X123369587Y-57699668D01*
X123378975Y-57705023D01*
X123383443Y-57707419D01*
X123389660Y-57711788D01*
X123446992Y-57734141D01*
X123453062Y-57736693D01*
X123509120Y-57762004D01*
X123516590Y-57763389D01*
X123521451Y-57764912D01*
X123531835Y-57767870D01*
X123536712Y-57769122D01*
X123543788Y-57771881D01*
X123551318Y-57772872D01*
X123551321Y-57772873D01*
X123604801Y-57779913D01*
X123611318Y-57780945D01*
X123646302Y-57787429D01*
X123671779Y-57792151D01*
X123679359Y-57791714D01*
X123679360Y-57791714D01*
X123731281Y-57788720D01*
X123738534Y-57788511D01*
X127283813Y-57788511D01*
X127351934Y-57808513D01*
X127398427Y-57862169D01*
X127408531Y-57932443D01*
X127387027Y-57986780D01*
X127312476Y-58093250D01*
X127310153Y-58098232D01*
X127310150Y-58098237D01*
X127222442Y-58286329D01*
X127215714Y-58300757D01*
X127214292Y-58306065D01*
X127214291Y-58306067D01*
X127157905Y-58516500D01*
X127156455Y-58521913D01*
X127136500Y-58750000D01*
X127156455Y-58978087D01*
X127157878Y-58983399D01*
X127157879Y-58983402D01*
X127182210Y-59074204D01*
X127215714Y-59199243D01*
X127218036Y-59204224D01*
X127218037Y-59204225D01*
X127310150Y-59401763D01*
X127310153Y-59401768D01*
X127312476Y-59406750D01*
X127315632Y-59411257D01*
X127315633Y-59411259D01*
X127420701Y-59561311D01*
X127443801Y-59594302D01*
X127605698Y-59756199D01*
X127610206Y-59759356D01*
X127610209Y-59759358D01*
X127788741Y-59884367D01*
X127793250Y-59887524D01*
X127798232Y-59889847D01*
X127798237Y-59889850D01*
X127974223Y-59971913D01*
X128000757Y-59984286D01*
X128006065Y-59985708D01*
X128006067Y-59985709D01*
X128216598Y-60042121D01*
X128216600Y-60042121D01*
X128221913Y-60043545D01*
X128450000Y-60063500D01*
X128678087Y-60043545D01*
X128683400Y-60042121D01*
X128683402Y-60042121D01*
X128893933Y-59985709D01*
X128893935Y-59985708D01*
X128899243Y-59984286D01*
X128925777Y-59971913D01*
X129101763Y-59889850D01*
X129101768Y-59889847D01*
X129106750Y-59887524D01*
X129111259Y-59884367D01*
X129289791Y-59759358D01*
X129289794Y-59759356D01*
X129294302Y-59756199D01*
X129456199Y-59594302D01*
X129502471Y-59528218D01*
X129557928Y-59483890D01*
X129628548Y-59476581D01*
X129694780Y-59511394D01*
X130073235Y-59889850D01*
X130449597Y-60266212D01*
X130483622Y-60328524D01*
X130486501Y-60355307D01*
X130486500Y-64090500D01*
X130466498Y-64158621D01*
X130412842Y-64205114D01*
X130360500Y-64216500D01*
X129244480Y-64216500D01*
X129176359Y-64196498D01*
X129129866Y-64142842D01*
X129118480Y-64090500D01*
X129118480Y-63004903D01*
X129138482Y-62936782D01*
X129172209Y-62901690D01*
X129289791Y-62819358D01*
X129289794Y-62819356D01*
X129294302Y-62816199D01*
X129456199Y-62654302D01*
X129468424Y-62636844D01*
X129584367Y-62471259D01*
X129584368Y-62471257D01*
X129587524Y-62466750D01*
X129589847Y-62461768D01*
X129589850Y-62461763D01*
X129681963Y-62264225D01*
X129681964Y-62264224D01*
X129684286Y-62259243D01*
X129687808Y-62246101D01*
X129742121Y-62043402D01*
X129742122Y-62043398D01*
X129743545Y-62038087D01*
X129763500Y-61810000D01*
X129743545Y-61581913D01*
X129684286Y-61360757D01*
X129634226Y-61253402D01*
X129589850Y-61158237D01*
X129589847Y-61158232D01*
X129587524Y-61153250D01*
X129584367Y-61148741D01*
X129459358Y-60970209D01*
X129459356Y-60970206D01*
X129456199Y-60965698D01*
X129294302Y-60803801D01*
X129289794Y-60800644D01*
X129289791Y-60800642D01*
X129111259Y-60675633D01*
X129111257Y-60675632D01*
X129106750Y-60672476D01*
X129101768Y-60670153D01*
X129101763Y-60670150D01*
X128904225Y-60578037D01*
X128904224Y-60578036D01*
X128899243Y-60575714D01*
X128893935Y-60574292D01*
X128893933Y-60574291D01*
X128683402Y-60517879D01*
X128683400Y-60517879D01*
X128678087Y-60516455D01*
X128450000Y-60496500D01*
X128221913Y-60516455D01*
X128216600Y-60517879D01*
X128216598Y-60517879D01*
X128006067Y-60574291D01*
X128006065Y-60574292D01*
X128000757Y-60575714D01*
X127995776Y-60578036D01*
X127995775Y-60578037D01*
X127798237Y-60670150D01*
X127798232Y-60670153D01*
X127793250Y-60672476D01*
X127788743Y-60675632D01*
X127788741Y-60675633D01*
X127610209Y-60800642D01*
X127610206Y-60800644D01*
X127605698Y-60803801D01*
X127443801Y-60965698D01*
X127440644Y-60970206D01*
X127440642Y-60970209D01*
X127315633Y-61148741D01*
X127312476Y-61153250D01*
X127310153Y-61158232D01*
X127310150Y-61158237D01*
X127265774Y-61253402D01*
X127215714Y-61360757D01*
X127156455Y-61581913D01*
X127136500Y-61810000D01*
X127156455Y-62038087D01*
X127157878Y-62043398D01*
X127157879Y-62043402D01*
X127212193Y-62246101D01*
X127215714Y-62259243D01*
X127218036Y-62264224D01*
X127218037Y-62264225D01*
X127310150Y-62461763D01*
X127310153Y-62461768D01*
X127312476Y-62466750D01*
X127315632Y-62471257D01*
X127315633Y-62471259D01*
X127431577Y-62636844D01*
X127443801Y-62654302D01*
X127605698Y-62816199D01*
X127667032Y-62859145D01*
X127697750Y-62880654D01*
X127742079Y-62936111D01*
X127751480Y-62983867D01*
X127751481Y-67447228D01*
X127751189Y-67455797D01*
X127748726Y-67491934D01*
X127747425Y-67511013D01*
X127748730Y-67518490D01*
X127748730Y-67518492D01*
X127758003Y-67571623D01*
X127758965Y-67578145D01*
X127766355Y-67639210D01*
X127769041Y-67646320D01*
X127770240Y-67651200D01*
X127773105Y-67661675D01*
X127774559Y-67666491D01*
X127775866Y-67673978D01*
X127800604Y-67730334D01*
X127803087Y-67736416D01*
X127809143Y-67752444D01*
X127820468Y-67782414D01*
X127824830Y-67793959D01*
X127829131Y-67800217D01*
X127831471Y-67804693D01*
X127836748Y-67814174D01*
X127839305Y-67818498D01*
X127842359Y-67825455D01*
X127846982Y-67831480D01*
X127846985Y-67831485D01*
X127879827Y-67874286D01*
X127883696Y-67879611D01*
X127918530Y-67930293D01*
X127924206Y-67935350D01*
X127963040Y-67969950D01*
X127968317Y-67974931D01*
X128815904Y-68822519D01*
X128849929Y-68884831D01*
X128848588Y-68941140D01*
X128848834Y-68941183D01*
X128848549Y-68942800D01*
X128848515Y-68944225D01*
X128846455Y-68951913D01*
X128826500Y-69180000D01*
X128846455Y-69408087D01*
X128847879Y-69413400D01*
X128847879Y-69413402D01*
X128899425Y-69605771D01*
X128905714Y-69629243D01*
X128908036Y-69634224D01*
X128908037Y-69634225D01*
X129000150Y-69831763D01*
X129000153Y-69831768D01*
X129002476Y-69836750D01*
X129005632Y-69841257D01*
X129005633Y-69841259D01*
X129119856Y-70004386D01*
X129133801Y-70024302D01*
X129295698Y-70186199D01*
X129300206Y-70189356D01*
X129300209Y-70189358D01*
X129478741Y-70314367D01*
X129483250Y-70317524D01*
X129488232Y-70319847D01*
X129488237Y-70319850D01*
X129652960Y-70396661D01*
X129690757Y-70414286D01*
X129696065Y-70415708D01*
X129696067Y-70415709D01*
X129906598Y-70472121D01*
X129906600Y-70472121D01*
X129911913Y-70473545D01*
X130140000Y-70493500D01*
X130368087Y-70473545D01*
X130373400Y-70472121D01*
X130373402Y-70472121D01*
X130583933Y-70415709D01*
X130583935Y-70415708D01*
X130589243Y-70414286D01*
X130627040Y-70396661D01*
X130791763Y-70319850D01*
X130791768Y-70319847D01*
X130796750Y-70317524D01*
X130801259Y-70314367D01*
X130979791Y-70189358D01*
X130979794Y-70189356D01*
X130984302Y-70186199D01*
X131146199Y-70024302D01*
X131160145Y-70004386D01*
X131274367Y-69841259D01*
X131274368Y-69841257D01*
X131277524Y-69836750D01*
X131279847Y-69831768D01*
X131279850Y-69831763D01*
X131371963Y-69634225D01*
X131371964Y-69634224D01*
X131374286Y-69629243D01*
X131380576Y-69605771D01*
X131432121Y-69413402D01*
X131432121Y-69413400D01*
X131433545Y-69408087D01*
X131453500Y-69180000D01*
X131433545Y-68951913D01*
X131430670Y-68941183D01*
X131375709Y-68736067D01*
X131375708Y-68736065D01*
X131374286Y-68730757D01*
X131368367Y-68718063D01*
X131279850Y-68528237D01*
X131279847Y-68528232D01*
X131277524Y-68523250D01*
X131269909Y-68512374D01*
X131149358Y-68340209D01*
X131149356Y-68340206D01*
X131146199Y-68335698D01*
X130984302Y-68173801D01*
X130979794Y-68170644D01*
X130979791Y-68170642D01*
X130801259Y-68045633D01*
X130801257Y-68045632D01*
X130796750Y-68042476D01*
X130791768Y-68040153D01*
X130791763Y-68040150D01*
X130756474Y-68023695D01*
X130703189Y-67976778D01*
X130683728Y-67908500D01*
X130704270Y-67840541D01*
X130758293Y-67794475D01*
X130809724Y-67783500D01*
X131350000Y-67783500D01*
X131423079Y-67778273D01*
X131511045Y-67752444D01*
X131554670Y-67739635D01*
X131554672Y-67739634D01*
X131563316Y-67737096D01*
X131627788Y-67695662D01*
X131678691Y-67662949D01*
X131678694Y-67662947D01*
X131686271Y-67658077D01*
X131692230Y-67651200D01*
X131776082Y-67554431D01*
X131776084Y-67554428D01*
X131781984Y-67547619D01*
X131798025Y-67512494D01*
X131838958Y-67422864D01*
X131838958Y-67422863D01*
X131842700Y-67414670D01*
X131844594Y-67401500D01*
X131862861Y-67274448D01*
X131862862Y-67274441D01*
X131863500Y-67270000D01*
X131863500Y-64730000D01*
X131858273Y-64656921D01*
X131856370Y-64650441D01*
X131855502Y-64645629D01*
X131853500Y-64623257D01*
X131853500Y-60047736D01*
X131853792Y-60039167D01*
X131857039Y-59991542D01*
X131857039Y-59991538D01*
X131857555Y-59983966D01*
X131846978Y-59923359D01*
X131846018Y-59916855D01*
X131845048Y-59908834D01*
X131838626Y-59855770D01*
X131835940Y-59848663D01*
X131834746Y-59843801D01*
X131831882Y-59833331D01*
X131830419Y-59828484D01*
X131829113Y-59821001D01*
X131804380Y-59764656D01*
X131801899Y-59758575D01*
X131782838Y-59708131D01*
X131782837Y-59708129D01*
X131780151Y-59701021D01*
X131775846Y-59694757D01*
X131773500Y-59690270D01*
X131768217Y-59680778D01*
X131765672Y-59676475D01*
X131762621Y-59669524D01*
X131757999Y-59663501D01*
X131757997Y-59663497D01*
X131725156Y-59620697D01*
X131721280Y-59615363D01*
X131686451Y-59564687D01*
X131641931Y-59525021D01*
X131636656Y-59520041D01*
X130402943Y-58286329D01*
X130397089Y-58280063D01*
X130365692Y-58244072D01*
X130360696Y-58238345D01*
X130310360Y-58202968D01*
X130305074Y-58199042D01*
X130274832Y-58175330D01*
X130256661Y-58161082D01*
X130249732Y-58157954D01*
X130245380Y-58155318D01*
X130236030Y-58149985D01*
X130231566Y-58147591D01*
X130225351Y-58143223D01*
X130218276Y-58140464D01*
X130218273Y-58140463D01*
X130168032Y-58120875D01*
X130161951Y-58118319D01*
X130112813Y-58096132D01*
X130112811Y-58096131D01*
X130105889Y-58093006D01*
X130098420Y-58091622D01*
X130093574Y-58090103D01*
X130083163Y-58087138D01*
X130078301Y-58085890D01*
X130071223Y-58083130D01*
X130040076Y-58079030D01*
X130010206Y-58075097D01*
X130003692Y-58074065D01*
X129950700Y-58064244D01*
X129950698Y-58064244D01*
X129943231Y-58062860D01*
X129935650Y-58063297D01*
X129935649Y-58063297D01*
X129883723Y-58066291D01*
X129876470Y-58066500D01*
X129634384Y-58066500D01*
X129566263Y-58046498D01*
X129531171Y-58012770D01*
X129512473Y-57986066D01*
X129456199Y-57905698D01*
X129400242Y-57849741D01*
X129366216Y-57787429D01*
X129371281Y-57716614D01*
X129412624Y-57660691D01*
X129413282Y-57660186D01*
X129418628Y-57656301D01*
X129463060Y-57625764D01*
X129463062Y-57625763D01*
X129469319Y-57621462D01*
X129508984Y-57576943D01*
X129513965Y-57571666D01*
X130088690Y-56996942D01*
X130094955Y-56991089D01*
X130118266Y-56970753D01*
X130136666Y-56954702D01*
X130172038Y-56904373D01*
X130175971Y-56899078D01*
X130209244Y-56856643D01*
X130213929Y-56850668D01*
X130217053Y-56843749D01*
X130219643Y-56839473D01*
X130225054Y-56829986D01*
X130227422Y-56825569D01*
X130231788Y-56819357D01*
X130254133Y-56762045D01*
X130256689Y-56755964D01*
X130268620Y-56729539D01*
X130282005Y-56699896D01*
X130283389Y-56692428D01*
X130284907Y-56687584D01*
X130287866Y-56677198D01*
X130289123Y-56672302D01*
X130291881Y-56665229D01*
X130299153Y-56609993D01*
X130299911Y-56604231D01*
X130300943Y-56597714D01*
X130310768Y-56544704D01*
X130312152Y-56537237D01*
X130311115Y-56519243D01*
X130308720Y-56477717D01*
X130308511Y-56470464D01*
X130308511Y-54262758D01*
X130308803Y-54254188D01*
X130309699Y-54241042D01*
X130312567Y-54198977D01*
X130310786Y-54188769D01*
X130301991Y-54138376D01*
X130301028Y-54131852D01*
X130294550Y-54078327D01*
X130293637Y-54070781D01*
X130290951Y-54063672D01*
X130289741Y-54058747D01*
X130286891Y-54048332D01*
X130285431Y-54043495D01*
X130284125Y-54036012D01*
X130281074Y-54029062D01*
X130281072Y-54029055D01*
X130259396Y-53979675D01*
X130256904Y-53973570D01*
X130237847Y-53923137D01*
X130237846Y-53923135D01*
X130235162Y-53916032D01*
X130230859Y-53909772D01*
X130228492Y-53905244D01*
X130223257Y-53895839D01*
X130220684Y-53891488D01*
X130217632Y-53884535D01*
X130213010Y-53878512D01*
X130213008Y-53878508D01*
X130180167Y-53835708D01*
X130176291Y-53830374D01*
X130176034Y-53830000D01*
X130141462Y-53779698D01*
X130110716Y-53752304D01*
X130096936Y-53740027D01*
X130091660Y-53735045D01*
X129744097Y-53387482D01*
X129710071Y-53325170D01*
X129711411Y-53268860D01*
X129711166Y-53268817D01*
X129711450Y-53267206D01*
X129711484Y-53265780D01*
X129712120Y-53263405D01*
X129713545Y-53258087D01*
X129733500Y-53030000D01*
X129713545Y-52801913D01*
X129699296Y-52748736D01*
X129655709Y-52586067D01*
X129655708Y-52586065D01*
X129654286Y-52580757D01*
X129635041Y-52539485D01*
X129559850Y-52378237D01*
X129559847Y-52378232D01*
X129557524Y-52373250D01*
X129426199Y-52185698D01*
X129264302Y-52023801D01*
X129259794Y-52020644D01*
X129259791Y-52020642D01*
X129081259Y-51895633D01*
X129081257Y-51895632D01*
X129076750Y-51892476D01*
X129071768Y-51890153D01*
X129071763Y-51890150D01*
X128874225Y-51798037D01*
X128874224Y-51798036D01*
X128869243Y-51795714D01*
X128863935Y-51794292D01*
X128863933Y-51794291D01*
X128653402Y-51737879D01*
X128653400Y-51737879D01*
X128648087Y-51736455D01*
X128420000Y-51716500D01*
X128191913Y-51736455D01*
X128186600Y-51737879D01*
X128186598Y-51737879D01*
X127976067Y-51794291D01*
X127976065Y-51794292D01*
X127970757Y-51795714D01*
X127965776Y-51798036D01*
X127965775Y-51798037D01*
X127768237Y-51890150D01*
X127768232Y-51890153D01*
X127763250Y-51892476D01*
X127758743Y-51895632D01*
X127758741Y-51895633D01*
X127580209Y-52020642D01*
X127580206Y-52020644D01*
X127575698Y-52023801D01*
X127413801Y-52185698D01*
X127282476Y-52373250D01*
X127280153Y-52378232D01*
X127280150Y-52378237D01*
X127204959Y-52539485D01*
X127185714Y-52580757D01*
X127184292Y-52586065D01*
X127184291Y-52586067D01*
X127140704Y-52748736D01*
X127126455Y-52801913D01*
X127106500Y-53030000D01*
X127126455Y-53258087D01*
X127144303Y-53324695D01*
X127144480Y-53325355D01*
X127142790Y-53396332D01*
X127102996Y-53455128D01*
X127037732Y-53483076D01*
X126967719Y-53471303D01*
X126933678Y-53447063D01*
X126152936Y-52666322D01*
X126147082Y-52660055D01*
X126115692Y-52624072D01*
X126110696Y-52618345D01*
X126060354Y-52582964D01*
X126055070Y-52579039D01*
X126012641Y-52545771D01*
X126012642Y-52545771D01*
X126006661Y-52541082D01*
X125999733Y-52537954D01*
X125995380Y-52535318D01*
X125986030Y-52529985D01*
X125981566Y-52527591D01*
X125975351Y-52523223D01*
X125968276Y-52520464D01*
X125968273Y-52520463D01*
X125918032Y-52500875D01*
X125911951Y-52498319D01*
X125862813Y-52476132D01*
X125862811Y-52476131D01*
X125855889Y-52473006D01*
X125848420Y-52471622D01*
X125843574Y-52470103D01*
X125833163Y-52467138D01*
X125828301Y-52465890D01*
X125821223Y-52463130D01*
X125790076Y-52459030D01*
X125760206Y-52455097D01*
X125753692Y-52454065D01*
X125700700Y-52444244D01*
X125700698Y-52444244D01*
X125693231Y-52442860D01*
X125685650Y-52443297D01*
X125685649Y-52443297D01*
X125633723Y-52446291D01*
X125626470Y-52446500D01*
X122239500Y-52446500D01*
X122171379Y-52426498D01*
X122124886Y-52372842D01*
X122113500Y-52320500D01*
X122113500Y-52230000D01*
X122108273Y-52156921D01*
X122084846Y-52077136D01*
X122069635Y-52025330D01*
X122069634Y-52025328D01*
X122067096Y-52016684D01*
X122021393Y-51945569D01*
X121992949Y-51901309D01*
X121992947Y-51901306D01*
X121988077Y-51893729D01*
X121981267Y-51887828D01*
X121884431Y-51803918D01*
X121884428Y-51803916D01*
X121877619Y-51798016D01*
X121795175Y-51760365D01*
X121752864Y-51741042D01*
X121752863Y-51741042D01*
X121744670Y-51737300D01*
X121735755Y-51736018D01*
X121735754Y-51736018D01*
X121604448Y-51717139D01*
X121604441Y-51717138D01*
X121600000Y-51716500D01*
X120000000Y-51716500D01*
X119926921Y-51721727D01*
X119876762Y-51736455D01*
X119795330Y-51760365D01*
X119795328Y-51760366D01*
X119786684Y-51762904D01*
X119779105Y-51767775D01*
X119671309Y-51837051D01*
X119671306Y-51837053D01*
X119663729Y-51841923D01*
X119657828Y-51848733D01*
X119573918Y-51945569D01*
X119573916Y-51945572D01*
X119568016Y-51952381D01*
X119507300Y-52085330D01*
X119506018Y-52094245D01*
X119506018Y-52094246D01*
X119487139Y-52225552D01*
X119487138Y-52225559D01*
X119486500Y-52230000D01*
X119486500Y-53324695D01*
X119466498Y-53392816D01*
X119449595Y-53413790D01*
X118133264Y-54730122D01*
X118070952Y-54764147D01*
X118055153Y-54766548D01*
X117941913Y-54776455D01*
X117936600Y-54777879D01*
X117936598Y-54777879D01*
X117726067Y-54834291D01*
X117726065Y-54834292D01*
X117720757Y-54835714D01*
X117715776Y-54838036D01*
X117715775Y-54838037D01*
X117518237Y-54930150D01*
X117518232Y-54930153D01*
X117513250Y-54932476D01*
X117508743Y-54935632D01*
X117508741Y-54935633D01*
X117330209Y-55060642D01*
X117330206Y-55060644D01*
X117325698Y-55063801D01*
X117163801Y-55225698D01*
X117160644Y-55230206D01*
X117160642Y-55230209D01*
X117053676Y-55382973D01*
X117032476Y-55413250D01*
X117030153Y-55418232D01*
X117030150Y-55418237D01*
X116938037Y-55615775D01*
X116935714Y-55620757D01*
X116934292Y-55626065D01*
X116934291Y-55626067D01*
X116886667Y-55803801D01*
X116876455Y-55841913D01*
X116856500Y-56070000D01*
X116876455Y-56298087D01*
X116877879Y-56303400D01*
X116877879Y-56303402D01*
X116922644Y-56470464D01*
X116935714Y-56519243D01*
X116938036Y-56524224D01*
X116938037Y-56524225D01*
X117030150Y-56721763D01*
X117030153Y-56721768D01*
X117032476Y-56726750D01*
X117035632Y-56731257D01*
X117035633Y-56731259D01*
X117156849Y-56904373D01*
X117163801Y-56914302D01*
X117325698Y-57076199D01*
X117330206Y-57079356D01*
X117330209Y-57079358D01*
X117382772Y-57116163D01*
X117427100Y-57171621D01*
X117436501Y-57219376D01*
X117436501Y-57754693D01*
X117416499Y-57822814D01*
X117399597Y-57843788D01*
X116843791Y-58399595D01*
X116781478Y-58433620D01*
X116754695Y-58436500D01*
X114367736Y-58436500D01*
X114359167Y-58436208D01*
X114311542Y-58432961D01*
X114311538Y-58432961D01*
X114303966Y-58432445D01*
X114243359Y-58443022D01*
X114236868Y-58443980D01*
X114175770Y-58451374D01*
X114168663Y-58454060D01*
X114163801Y-58455254D01*
X114153331Y-58458118D01*
X114148484Y-58459581D01*
X114141001Y-58460887D01*
X114084656Y-58485620D01*
X114078575Y-58488101D01*
X114028131Y-58507162D01*
X114028129Y-58507163D01*
X114021021Y-58509849D01*
X114014757Y-58514154D01*
X114010270Y-58516500D01*
X114000778Y-58521783D01*
X113996475Y-58524328D01*
X113989524Y-58527379D01*
X113983501Y-58532001D01*
X113983497Y-58532003D01*
X113940697Y-58564844D01*
X113935372Y-58568713D01*
X113884687Y-58603549D01*
X113879630Y-58609225D01*
X113845022Y-58648068D01*
X113840041Y-58653344D01*
X112617482Y-59875903D01*
X112555170Y-59909929D01*
X112498860Y-59908589D01*
X112498817Y-59908834D01*
X112497206Y-59908550D01*
X112495780Y-59908516D01*
X112493405Y-59907880D01*
X112488087Y-59906455D01*
X112260000Y-59886500D01*
X112031913Y-59906455D01*
X112026600Y-59907879D01*
X112026598Y-59907879D01*
X112024225Y-59908515D01*
X112023139Y-59908489D01*
X112021183Y-59908834D01*
X112021114Y-59908441D01*
X111953249Y-59906825D01*
X111902519Y-59875904D01*
X111587925Y-59561311D01*
X111582071Y-59555044D01*
X111550681Y-59519061D01*
X111545685Y-59513334D01*
X111495349Y-59477957D01*
X111490063Y-59474031D01*
X111463341Y-59453079D01*
X111441650Y-59436071D01*
X111434721Y-59432943D01*
X111430369Y-59430307D01*
X111421019Y-59424974D01*
X111416555Y-59422580D01*
X111410340Y-59418212D01*
X111403265Y-59415453D01*
X111403262Y-59415452D01*
X111353021Y-59395864D01*
X111346940Y-59393308D01*
X111297802Y-59371121D01*
X111297800Y-59371120D01*
X111290878Y-59367995D01*
X111283409Y-59366611D01*
X111278563Y-59365092D01*
X111268152Y-59362127D01*
X111263290Y-59360879D01*
X111256212Y-59358119D01*
X111225065Y-59354019D01*
X111195195Y-59350086D01*
X111188681Y-59349054D01*
X111135689Y-59339233D01*
X111135687Y-59339233D01*
X111128220Y-59337849D01*
X111120639Y-59338286D01*
X111120638Y-59338286D01*
X111068712Y-59341280D01*
X111061459Y-59341489D01*
X106643741Y-59341489D01*
X106635171Y-59341197D01*
X106587536Y-59337949D01*
X106587532Y-59337949D01*
X106579960Y-59337433D01*
X106519335Y-59348013D01*
X106512845Y-59348971D01*
X106489461Y-59351801D01*
X106459305Y-59355450D01*
X106459302Y-59355451D01*
X106451764Y-59356363D01*
X106444662Y-59359047D01*
X106439759Y-59360251D01*
X106429311Y-59363110D01*
X106424477Y-59364569D01*
X106416996Y-59365875D01*
X106410043Y-59368927D01*
X106360676Y-59390597D01*
X106354571Y-59393089D01*
X106304120Y-59412153D01*
X106304119Y-59412154D01*
X106297015Y-59414838D01*
X106290755Y-59419141D01*
X106286227Y-59421508D01*
X106276822Y-59426743D01*
X106272471Y-59429316D01*
X106265518Y-59432368D01*
X106259495Y-59436990D01*
X106259491Y-59436992D01*
X106216691Y-59469833D01*
X106211366Y-59473702D01*
X106160681Y-59508538D01*
X106145994Y-59525022D01*
X106121016Y-59553057D01*
X106116035Y-59558333D01*
X105508312Y-60166056D01*
X105446000Y-60200082D01*
X105375185Y-60195017D01*
X105318349Y-60152470D01*
X105293696Y-60087942D01*
X105284025Y-59977394D01*
X105284024Y-59977389D01*
X105283545Y-59971913D01*
X105272978Y-59932476D01*
X105225709Y-59756067D01*
X105225708Y-59756065D01*
X105224286Y-59750757D01*
X105212954Y-59726455D01*
X105129850Y-59548237D01*
X105129847Y-59548232D01*
X105127524Y-59543250D01*
X105114761Y-59525022D01*
X104999358Y-59360209D01*
X104999356Y-59360206D01*
X104996199Y-59355698D01*
X104834302Y-59193801D01*
X104737230Y-59125831D01*
X104692901Y-59070374D01*
X104683500Y-59022618D01*
X104683500Y-57909500D01*
X104703502Y-57841379D01*
X104757158Y-57794886D01*
X104809500Y-57783500D01*
X105190000Y-57783500D01*
X105263079Y-57778273D01*
X105351045Y-57752444D01*
X105394670Y-57739635D01*
X105394672Y-57739634D01*
X105403316Y-57737096D01*
X105467135Y-57696082D01*
X105518691Y-57662949D01*
X105518694Y-57662947D01*
X105526271Y-57658077D01*
X105544429Y-57637122D01*
X105616082Y-57554431D01*
X105616084Y-57554428D01*
X105621984Y-57547619D01*
X105682700Y-57414670D01*
X105692061Y-57349562D01*
X105702861Y-57274448D01*
X105702862Y-57274441D01*
X105703500Y-57270000D01*
X105703500Y-54730000D01*
X105698273Y-54656921D01*
X105674749Y-54576805D01*
X105659635Y-54525330D01*
X105659634Y-54525328D01*
X105657096Y-54516684D01*
X105609536Y-54442679D01*
X105582949Y-54401309D01*
X105582947Y-54401306D01*
X105578077Y-54393729D01*
X105565920Y-54383195D01*
X105474431Y-54303918D01*
X105474428Y-54303916D01*
X105467619Y-54298016D01*
X105380432Y-54258199D01*
X105342864Y-54241042D01*
X105342863Y-54241042D01*
X105334670Y-54237300D01*
X105325755Y-54236018D01*
X105325754Y-54236018D01*
X105194448Y-54217139D01*
X105194441Y-54217138D01*
X105190000Y-54216500D01*
X102650000Y-54216500D01*
X102576921Y-54221727D01*
X102511140Y-54241042D01*
X102445330Y-54260365D01*
X102445328Y-54260366D01*
X102436684Y-54262904D01*
X102429105Y-54267775D01*
X102321309Y-54337051D01*
X102321306Y-54337053D01*
X102313729Y-54341923D01*
X102307828Y-54348733D01*
X102223918Y-54445569D01*
X102223916Y-54445572D01*
X102218016Y-54452381D01*
X102157300Y-54585330D01*
X102156018Y-54594245D01*
X102156018Y-54594246D01*
X102137139Y-54725552D01*
X102137138Y-54725559D01*
X102136500Y-54730000D01*
X102136500Y-57270000D01*
X102141727Y-57343079D01*
X102143631Y-57349562D01*
X102179364Y-57471259D01*
X102182904Y-57483316D01*
X102201656Y-57512494D01*
X102257051Y-57598691D01*
X102257053Y-57598694D01*
X102261923Y-57606271D01*
X102268733Y-57612172D01*
X102365569Y-57696082D01*
X102365572Y-57696084D01*
X102372381Y-57701984D01*
X102380579Y-57705728D01*
X102482873Y-57752444D01*
X102505330Y-57762700D01*
X102514245Y-57763982D01*
X102514246Y-57763982D01*
X102645552Y-57782861D01*
X102645559Y-57782862D01*
X102650000Y-57783500D01*
X103190501Y-57783500D01*
X103258622Y-57803502D01*
X103305115Y-57857158D01*
X103316501Y-57909500D01*
X103316500Y-58460887D01*
X103316500Y-59008612D01*
X103296498Y-59076733D01*
X103262771Y-59111825D01*
X103150209Y-59190642D01*
X103150206Y-59190644D01*
X103145698Y-59193801D01*
X102983801Y-59355698D01*
X102980644Y-59360206D01*
X102980642Y-59360209D01*
X102865239Y-59525022D01*
X102852476Y-59543250D01*
X102850153Y-59548232D01*
X102850150Y-59548237D01*
X102767046Y-59726455D01*
X102755714Y-59750757D01*
X102754292Y-59756065D01*
X102754291Y-59756067D01*
X102707022Y-59932476D01*
X102696455Y-59971913D01*
X102676500Y-60200000D01*
X102696455Y-60428087D01*
X102724540Y-60532901D01*
X102722850Y-60603876D01*
X102683056Y-60662672D01*
X102617792Y-60690620D01*
X102602833Y-60691511D01*
X102080646Y-60691511D01*
X102012525Y-60671509D01*
X101966032Y-60617853D01*
X101958939Y-60598121D01*
X101955711Y-60586073D01*
X101955709Y-60586067D01*
X101954286Y-60580757D01*
X101885321Y-60432861D01*
X101859850Y-60378237D01*
X101859847Y-60378232D01*
X101857524Y-60373250D01*
X101844913Y-60355239D01*
X101729358Y-60190209D01*
X101729356Y-60190206D01*
X101726199Y-60185698D01*
X101564302Y-60023801D01*
X101559794Y-60020644D01*
X101559791Y-60020642D01*
X101381259Y-59895633D01*
X101381257Y-59895632D01*
X101376750Y-59892476D01*
X101371768Y-59890153D01*
X101371763Y-59890150D01*
X101174225Y-59798037D01*
X101174224Y-59798036D01*
X101169243Y-59795714D01*
X101163935Y-59794292D01*
X101163933Y-59794291D01*
X100953402Y-59737879D01*
X100953400Y-59737879D01*
X100948087Y-59736455D01*
X100720000Y-59716500D01*
X100491913Y-59736455D01*
X100486600Y-59737879D01*
X100486598Y-59737879D01*
X100276067Y-59794291D01*
X100276065Y-59794292D01*
X100270757Y-59795714D01*
X100265776Y-59798036D01*
X100265775Y-59798037D01*
X100068237Y-59890150D01*
X100068232Y-59890153D01*
X100063250Y-59892476D01*
X100058743Y-59895632D01*
X100058741Y-59895633D01*
X99880209Y-60020642D01*
X99880206Y-60020644D01*
X99875698Y-60023801D01*
X99713801Y-60185698D01*
X99669693Y-60248691D01*
X99638829Y-60292770D01*
X99583372Y-60337099D01*
X99535616Y-60346500D01*
X98821388Y-60346500D01*
X98753267Y-60326498D01*
X98718175Y-60292771D01*
X98639358Y-60180209D01*
X98639356Y-60180206D01*
X98636199Y-60175698D01*
X98474302Y-60013801D01*
X98469794Y-60010644D01*
X98469791Y-60010642D01*
X98291259Y-59885633D01*
X98291257Y-59885632D01*
X98286750Y-59882476D01*
X98281768Y-59880153D01*
X98281763Y-59880150D01*
X98084225Y-59788037D01*
X98084224Y-59788036D01*
X98079243Y-59785714D01*
X98073935Y-59784292D01*
X98073933Y-59784291D01*
X97863402Y-59727879D01*
X97863400Y-59727879D01*
X97858087Y-59726455D01*
X97630000Y-59706500D01*
X97401913Y-59726455D01*
X97396600Y-59727879D01*
X97396598Y-59727879D01*
X97186067Y-59784291D01*
X97186065Y-59784292D01*
X97180757Y-59785714D01*
X97175776Y-59788036D01*
X97175775Y-59788037D01*
X96978237Y-59880150D01*
X96978232Y-59880153D01*
X96973250Y-59882476D01*
X96968743Y-59885632D01*
X96968741Y-59885633D01*
X96790209Y-60010642D01*
X96790206Y-60010644D01*
X96785698Y-60013801D01*
X96623801Y-60175698D01*
X96620644Y-60180206D01*
X96620642Y-60180209D01*
X96498085Y-60355239D01*
X96492476Y-60363250D01*
X96490153Y-60368232D01*
X96490150Y-60368237D01*
X96424389Y-60509263D01*
X96395714Y-60570757D01*
X96394292Y-60576065D01*
X96394291Y-60576067D01*
X96337879Y-60786598D01*
X96336455Y-60791913D01*
X96316500Y-61020000D01*
X96336455Y-61248087D01*
X96337879Y-61253400D01*
X96337879Y-61253402D01*
X96349853Y-61298087D01*
X96395714Y-61469243D01*
X96398036Y-61474224D01*
X96398037Y-61474225D01*
X96490150Y-61671763D01*
X96490153Y-61671768D01*
X96492476Y-61676750D01*
X96495632Y-61681257D01*
X96495633Y-61681259D01*
X96620642Y-61859790D01*
X96623801Y-61864302D01*
X96785698Y-62026199D01*
X96790206Y-62029356D01*
X96790209Y-62029358D01*
X96968741Y-62154367D01*
X96973250Y-62157524D01*
X96978232Y-62159847D01*
X96978237Y-62159850D01*
X97163204Y-62246101D01*
X97180757Y-62254286D01*
X97186065Y-62255708D01*
X97186067Y-62255709D01*
X97396598Y-62312121D01*
X97396600Y-62312121D01*
X97401913Y-62313545D01*
X97630000Y-62333500D01*
X97858087Y-62313545D01*
X97863400Y-62312121D01*
X97863402Y-62312121D01*
X98073933Y-62255709D01*
X98073935Y-62255708D01*
X98079243Y-62254286D01*
X98096796Y-62246101D01*
X98281763Y-62159850D01*
X98281768Y-62159847D01*
X98286750Y-62157524D01*
X98291259Y-62154367D01*
X98469791Y-62029358D01*
X98469794Y-62029356D01*
X98474302Y-62026199D01*
X98636199Y-61864302D01*
X98704169Y-61767230D01*
X98759626Y-61722901D01*
X98807382Y-61713500D01*
X99535616Y-61713500D01*
X99603737Y-61733502D01*
X99638829Y-61767230D01*
X99713801Y-61874302D01*
X99875698Y-62036199D01*
X99880206Y-62039356D01*
X99880209Y-62039358D01*
X100048968Y-62157524D01*
X100063250Y-62167524D01*
X100068232Y-62169847D01*
X100068237Y-62169850D01*
X100259942Y-62259243D01*
X100270757Y-62264286D01*
X100276065Y-62265708D01*
X100276067Y-62265709D01*
X100486598Y-62322121D01*
X100486600Y-62322121D01*
X100491913Y-62323545D01*
X100720000Y-62343500D01*
X100948087Y-62323545D01*
X100953400Y-62322121D01*
X100953402Y-62322121D01*
X100978653Y-62315355D01*
X101049630Y-62317045D01*
X101079962Y-62337575D01*
X101086003Y-62318580D01*
X101140682Y-62273295D01*
X101157846Y-62267340D01*
X101163931Y-62265710D01*
X101163938Y-62265708D01*
X101169243Y-62264286D01*
X101180058Y-62259243D01*
X101371763Y-62169850D01*
X101371768Y-62169847D01*
X101376750Y-62167524D01*
X101381258Y-62164367D01*
X101381264Y-62164364D01*
X101499895Y-62081298D01*
X101572165Y-62058511D01*
X105238234Y-62058511D01*
X105246803Y-62058803D01*
X105294428Y-62062050D01*
X105294432Y-62062050D01*
X105302004Y-62062566D01*
X105309481Y-62061261D01*
X105309483Y-62061261D01*
X105347112Y-62054694D01*
X105362600Y-62051990D01*
X105369085Y-62051033D01*
X105430201Y-62043637D01*
X105437307Y-62040952D01*
X105442197Y-62039751D01*
X105452659Y-62036889D01*
X105457491Y-62035430D01*
X105464969Y-62034125D01*
X105471918Y-62031075D01*
X105471927Y-62031072D01*
X105521301Y-62009399D01*
X105527404Y-62006908D01*
X105577840Y-61987849D01*
X105577842Y-61987848D01*
X105584950Y-61985162D01*
X105591215Y-61980856D01*
X105595708Y-61978507D01*
X105605152Y-61973251D01*
X105609492Y-61970685D01*
X105616446Y-61967632D01*
X105665255Y-61930179D01*
X105670593Y-61926301D01*
X105715025Y-61895764D01*
X105715027Y-61895763D01*
X105721284Y-61891462D01*
X105742013Y-61868197D01*
X105760957Y-61846934D01*
X105765938Y-61841658D01*
X105822492Y-61785104D01*
X105884804Y-61751078D01*
X105955619Y-61756143D01*
X106012455Y-61798690D01*
X106025782Y-61820950D01*
X106040148Y-61851759D01*
X106040151Y-61851765D01*
X106042476Y-61856750D01*
X106045632Y-61861257D01*
X106045633Y-61861259D01*
X106165613Y-62032608D01*
X106173801Y-62044302D01*
X106192347Y-62062848D01*
X106226373Y-62125160D01*
X106221308Y-62195975D01*
X106192347Y-62241038D01*
X105963790Y-62469595D01*
X105901478Y-62503621D01*
X105874695Y-62506500D01*
X101337747Y-62506500D01*
X101329177Y-62506208D01*
X101327329Y-62506082D01*
X101273966Y-62502444D01*
X101266489Y-62503749D01*
X101266486Y-62503749D01*
X101213365Y-62513020D01*
X101206850Y-62513982D01*
X101205603Y-62514133D01*
X101135572Y-62502465D01*
X101124398Y-62492338D01*
X101076843Y-62544651D01*
X101061897Y-62552441D01*
X101054653Y-62555620D01*
X101048559Y-62558107D01*
X100998126Y-62577164D01*
X100998124Y-62577165D01*
X100991021Y-62579849D01*
X100984761Y-62584152D01*
X100980233Y-62586519D01*
X100970828Y-62591754D01*
X100966477Y-62594327D01*
X100959524Y-62597379D01*
X100953501Y-62602001D01*
X100953497Y-62602003D01*
X100910697Y-62634844D01*
X100905372Y-62638713D01*
X100854687Y-62673549D01*
X100849630Y-62679225D01*
X100815022Y-62718068D01*
X100810041Y-62723344D01*
X99353291Y-64180095D01*
X99290979Y-64214120D01*
X99264196Y-64217000D01*
X98352115Y-64217000D01*
X98336876Y-64221475D01*
X98335671Y-64222865D01*
X98334000Y-64230548D01*
X98333999Y-65745998D01*
X98334000Y-65746004D01*
X98333999Y-67764883D01*
X98334388Y-67766208D01*
X98334387Y-67837205D01*
X98302586Y-67890800D01*
X98113791Y-68079595D01*
X98051479Y-68113621D01*
X98024696Y-68116500D01*
X96587736Y-68116500D01*
X96579167Y-68116208D01*
X96531542Y-68112961D01*
X96531538Y-68112961D01*
X96523966Y-68112445D01*
X96463359Y-68123022D01*
X96456868Y-68123980D01*
X96395770Y-68131374D01*
X96388663Y-68134060D01*
X96383801Y-68135254D01*
X96373331Y-68138118D01*
X96368484Y-68139581D01*
X96361001Y-68140887D01*
X96304656Y-68165620D01*
X96298575Y-68168101D01*
X96248131Y-68187162D01*
X96248129Y-68187163D01*
X96241021Y-68189849D01*
X96234757Y-68194154D01*
X96230270Y-68196500D01*
X96220778Y-68201783D01*
X96216475Y-68204328D01*
X96209524Y-68207379D01*
X96203501Y-68212001D01*
X96203497Y-68212003D01*
X96160697Y-68244844D01*
X96155372Y-68248713D01*
X96104687Y-68283549D01*
X96099630Y-68289225D01*
X96065022Y-68328068D01*
X96060041Y-68333344D01*
X94836322Y-69557064D01*
X94830056Y-69562918D01*
X94788346Y-69599304D01*
X94752964Y-69649647D01*
X94749058Y-69654907D01*
X94711082Y-69703339D01*
X94707957Y-69710260D01*
X94705341Y-69714580D01*
X94700002Y-69723940D01*
X94697593Y-69728433D01*
X94693224Y-69734649D01*
X94690465Y-69741726D01*
X94670882Y-69791953D01*
X94668326Y-69798032D01*
X94646131Y-69847189D01*
X94643006Y-69854111D01*
X94641623Y-69861574D01*
X94640114Y-69866388D01*
X94637145Y-69876812D01*
X94635890Y-69881701D01*
X94633131Y-69888777D01*
X94626879Y-69936263D01*
X94625100Y-69949779D01*
X94624070Y-69956282D01*
X94612860Y-70016769D01*
X94613297Y-70024350D01*
X94613297Y-70024351D01*
X94616292Y-70076294D01*
X94616501Y-70083547D01*
X94616501Y-70270500D01*
X94596499Y-70338621D01*
X94542843Y-70385114D01*
X94490501Y-70396500D01*
X94110000Y-70396500D01*
X94036921Y-70401727D01*
X93983884Y-70417300D01*
X93905330Y-70440365D01*
X93905328Y-70440366D01*
X93896684Y-70442904D01*
X93889105Y-70447775D01*
X93781309Y-70517051D01*
X93781306Y-70517053D01*
X93773729Y-70521923D01*
X93767828Y-70528733D01*
X93683918Y-70625569D01*
X93683916Y-70625572D01*
X93678016Y-70632381D01*
X93674272Y-70640579D01*
X93669381Y-70651290D01*
X93617300Y-70765330D01*
X93616018Y-70774245D01*
X93616018Y-70774246D01*
X93597139Y-70905552D01*
X93597138Y-70905559D01*
X93596500Y-70910000D01*
X93596500Y-73110000D01*
X93601727Y-73183079D01*
X93618093Y-73238817D01*
X93638042Y-73306756D01*
X93642904Y-73323316D01*
X93653761Y-73340209D01*
X93717051Y-73438691D01*
X93717053Y-73438694D01*
X93721923Y-73446271D01*
X93728733Y-73452172D01*
X93825569Y-73536082D01*
X93825572Y-73536084D01*
X93832381Y-73541984D01*
X93840579Y-73545728D01*
X93940911Y-73591548D01*
X93965330Y-73602700D01*
X93974245Y-73603982D01*
X93974246Y-73603982D01*
X94105552Y-73622861D01*
X94105559Y-73622862D01*
X94110000Y-73623500D01*
X94400500Y-73623500D01*
X94468621Y-73643502D01*
X94515114Y-73697158D01*
X94526500Y-73749500D01*
X94526500Y-73984695D01*
X94506498Y-74052816D01*
X94489595Y-74073790D01*
X92387482Y-76175903D01*
X92325170Y-76209929D01*
X92268860Y-76208589D01*
X92268817Y-76208834D01*
X92267206Y-76208550D01*
X92265780Y-76208516D01*
X92263405Y-76207880D01*
X92258087Y-76206455D01*
X92030000Y-76186500D01*
X91801913Y-76206455D01*
X91796600Y-76207879D01*
X91796598Y-76207879D01*
X91586067Y-76264291D01*
X91586065Y-76264292D01*
X91580757Y-76265714D01*
X91575776Y-76268036D01*
X91575775Y-76268037D01*
X91378237Y-76360150D01*
X91378232Y-76360153D01*
X91373250Y-76362476D01*
X91368743Y-76365632D01*
X91368741Y-76365633D01*
X91190209Y-76490642D01*
X91190206Y-76490644D01*
X91185698Y-76493801D01*
X91023801Y-76655698D01*
X91020644Y-76660206D01*
X91020642Y-76660209D01*
X90903349Y-76827722D01*
X90892476Y-76843250D01*
X90890153Y-76848232D01*
X90890150Y-76848237D01*
X90798037Y-77045775D01*
X90795714Y-77050757D01*
X90794292Y-77056065D01*
X90794291Y-77056067D01*
X90738516Y-77264220D01*
X90736455Y-77271913D01*
X90716500Y-77500000D01*
X90736455Y-77728087D01*
X90737879Y-77733400D01*
X90737879Y-77733402D01*
X90760172Y-77816598D01*
X90795714Y-77949243D01*
X90798036Y-77954224D01*
X90798037Y-77954225D01*
X90890150Y-78151763D01*
X90890153Y-78151768D01*
X90892476Y-78156750D01*
X90895632Y-78161257D01*
X90895633Y-78161259D01*
X90990328Y-78296497D01*
X91023801Y-78344302D01*
X91185698Y-78506199D01*
X91190206Y-78509356D01*
X91190215Y-78509362D01*
X91373250Y-78637524D01*
X91378232Y-78639847D01*
X91378237Y-78639850D01*
X91566502Y-78727639D01*
X91580757Y-78734286D01*
X91586065Y-78735708D01*
X91586067Y-78735709D01*
X91796598Y-78792121D01*
X91796600Y-78792121D01*
X91801913Y-78793545D01*
X92030000Y-78813500D01*
X92258087Y-78793545D01*
X92263400Y-78792121D01*
X92263402Y-78792121D01*
X92473933Y-78735709D01*
X92473935Y-78735708D01*
X92479243Y-78734286D01*
X92493498Y-78727639D01*
X92681763Y-78639850D01*
X92681768Y-78639847D01*
X92686750Y-78637524D01*
X92869785Y-78509362D01*
X92869794Y-78509356D01*
X92874302Y-78506199D01*
X93036199Y-78344302D01*
X93069673Y-78296497D01*
X93164367Y-78161259D01*
X93164368Y-78161257D01*
X93167524Y-78156750D01*
X93169847Y-78151768D01*
X93169850Y-78151763D01*
X93261963Y-77954225D01*
X93261964Y-77954224D01*
X93264286Y-77949243D01*
X93299829Y-77816598D01*
X93322121Y-77733402D01*
X93322121Y-77733400D01*
X93323545Y-77728087D01*
X93343500Y-77500000D01*
X93323545Y-77271913D01*
X93321484Y-77264220D01*
X93321510Y-77263133D01*
X93321166Y-77261183D01*
X93321558Y-77261114D01*
X93323176Y-77193244D01*
X93354097Y-77142518D01*
X95673681Y-74822934D01*
X95679947Y-74817080D01*
X95715928Y-74785692D01*
X95721655Y-74780696D01*
X95757022Y-74730373D01*
X95760948Y-74725088D01*
X95794229Y-74682643D01*
X95794231Y-74682639D01*
X95798918Y-74676662D01*
X95802044Y-74669739D01*
X95804644Y-74665446D01*
X95810043Y-74655980D01*
X95812411Y-74651563D01*
X95816777Y-74645351D01*
X95839122Y-74588039D01*
X95841678Y-74581958D01*
X95863869Y-74532811D01*
X95866994Y-74525890D01*
X95868379Y-74518418D01*
X95869883Y-74513617D01*
X95872858Y-74503175D01*
X95874108Y-74498306D01*
X95876870Y-74491223D01*
X95884904Y-74430202D01*
X95885931Y-74423714D01*
X95897140Y-74363232D01*
X95895659Y-74337536D01*
X95893709Y-74303723D01*
X95893500Y-74296470D01*
X95893500Y-73749500D01*
X95913502Y-73681379D01*
X95967158Y-73634886D01*
X96019500Y-73623500D01*
X96310000Y-73623500D01*
X96383079Y-73618273D01*
X96474097Y-73591548D01*
X96514670Y-73579635D01*
X96514672Y-73579634D01*
X96523316Y-73577096D01*
X96587135Y-73536082D01*
X96638691Y-73502949D01*
X96638694Y-73502947D01*
X96646271Y-73498077D01*
X96686048Y-73452172D01*
X96736082Y-73394431D01*
X96736084Y-73394428D01*
X96741984Y-73387619D01*
X96745728Y-73379421D01*
X96798958Y-73262864D01*
X96798958Y-73262863D01*
X96802700Y-73254670D01*
X96805416Y-73235780D01*
X96822861Y-73114448D01*
X96822862Y-73114441D01*
X96823500Y-73110000D01*
X96823500Y-70910000D01*
X96818273Y-70836921D01*
X96787722Y-70732872D01*
X96779635Y-70705330D01*
X96779634Y-70705328D01*
X96777096Y-70696684D01*
X96725008Y-70615634D01*
X96702949Y-70581309D01*
X96702947Y-70581306D01*
X96698077Y-70573729D01*
X96660605Y-70541259D01*
X96594431Y-70483918D01*
X96594428Y-70483916D01*
X96587619Y-70478016D01*
X96505175Y-70440365D01*
X96462864Y-70421042D01*
X96462863Y-70421042D01*
X96454670Y-70417300D01*
X96445755Y-70416018D01*
X96445754Y-70416018D01*
X96314448Y-70397139D01*
X96314441Y-70397138D01*
X96310000Y-70396500D01*
X96234305Y-70396500D01*
X96166184Y-70376498D01*
X96119691Y-70322842D01*
X96109587Y-70252568D01*
X96139081Y-70187988D01*
X96145210Y-70181404D01*
X96423576Y-69903039D01*
X96806211Y-69520404D01*
X96868523Y-69486379D01*
X96895306Y-69483500D01*
X98332263Y-69483500D01*
X98340832Y-69483792D01*
X98388457Y-69487039D01*
X98388461Y-69487039D01*
X98396033Y-69487555D01*
X98403510Y-69486250D01*
X98403512Y-69486250D01*
X98441141Y-69479683D01*
X98456629Y-69476979D01*
X98463114Y-69476022D01*
X98524230Y-69468626D01*
X98531336Y-69465941D01*
X98536226Y-69464740D01*
X98546688Y-69461878D01*
X98551520Y-69460419D01*
X98558998Y-69459114D01*
X98565947Y-69456064D01*
X98565956Y-69456061D01*
X98615330Y-69434388D01*
X98621433Y-69431897D01*
X98671869Y-69412838D01*
X98671871Y-69412837D01*
X98678979Y-69410151D01*
X98685244Y-69405845D01*
X98689737Y-69403496D01*
X98699181Y-69398240D01*
X98703521Y-69395674D01*
X98710475Y-69392621D01*
X98727451Y-69379595D01*
X98759284Y-69355168D01*
X98764622Y-69351290D01*
X98809054Y-69320753D01*
X98809056Y-69320752D01*
X98815313Y-69316451D01*
X98823661Y-69307082D01*
X98854986Y-69271923D01*
X98859967Y-69266647D01*
X100238681Y-67887934D01*
X100244947Y-67882080D01*
X100250895Y-67876891D01*
X100286655Y-67845696D01*
X100308563Y-67814525D01*
X100322025Y-67795371D01*
X100325956Y-67790078D01*
X100359229Y-67747642D01*
X100359232Y-67747637D01*
X100363917Y-67741662D01*
X100367042Y-67734740D01*
X100369660Y-67730418D01*
X100375020Y-67721021D01*
X100377408Y-67716568D01*
X100381777Y-67710351D01*
X100384535Y-67703277D01*
X100384541Y-67703266D01*
X100404136Y-67653008D01*
X100406691Y-67646929D01*
X100428868Y-67597812D01*
X100428869Y-67597809D01*
X100431993Y-67590890D01*
X100433377Y-67583423D01*
X100434891Y-67578592D01*
X100437863Y-67568162D01*
X100439112Y-67563298D01*
X100441870Y-67556223D01*
X100446838Y-67518492D01*
X100449904Y-67495200D01*
X100450936Y-67488685D01*
X100460756Y-67435700D01*
X100462140Y-67428232D01*
X100458709Y-67368723D01*
X100458500Y-67361470D01*
X100458500Y-65692737D01*
X100458792Y-65684168D01*
X100462039Y-65636543D01*
X100462039Y-65636539D01*
X100462555Y-65628967D01*
X100456161Y-65592328D01*
X100455376Y-65587833D01*
X100453500Y-65566170D01*
X100453500Y-65065304D01*
X100473502Y-64997183D01*
X100490405Y-64976209D01*
X101556210Y-63910405D01*
X101618522Y-63876379D01*
X101645305Y-63873500D01*
X106182263Y-63873500D01*
X106190832Y-63873792D01*
X106238457Y-63877039D01*
X106238461Y-63877039D01*
X106246033Y-63877555D01*
X106253510Y-63876250D01*
X106253512Y-63876250D01*
X106291141Y-63869683D01*
X106306629Y-63866979D01*
X106313114Y-63866022D01*
X106374230Y-63858626D01*
X106381336Y-63855941D01*
X106386226Y-63854740D01*
X106396688Y-63851878D01*
X106401520Y-63850419D01*
X106408998Y-63849114D01*
X106415947Y-63846064D01*
X106415956Y-63846061D01*
X106465330Y-63824388D01*
X106471433Y-63821897D01*
X106521869Y-63802838D01*
X106521871Y-63802837D01*
X106528979Y-63800151D01*
X106535244Y-63795845D01*
X106539737Y-63793496D01*
X106549181Y-63788240D01*
X106553521Y-63785674D01*
X106560475Y-63782621D01*
X106609284Y-63745168D01*
X106614622Y-63741290D01*
X106659054Y-63710753D01*
X106659056Y-63710752D01*
X106665313Y-63706451D01*
X106704978Y-63661932D01*
X106709959Y-63656655D01*
X107643688Y-62722927D01*
X107649954Y-62717074D01*
X107685928Y-62685692D01*
X107691655Y-62680696D01*
X107727022Y-62630373D01*
X107730948Y-62625088D01*
X107764229Y-62582643D01*
X107764231Y-62582639D01*
X107768918Y-62576662D01*
X107772044Y-62569739D01*
X107774644Y-62565446D01*
X107780043Y-62555980D01*
X107782411Y-62551563D01*
X107786777Y-62545351D01*
X107805410Y-62497561D01*
X107809122Y-62488039D01*
X107811678Y-62481958D01*
X107833869Y-62432811D01*
X107836994Y-62425890D01*
X107838379Y-62418418D01*
X107839883Y-62413617D01*
X107842858Y-62403175D01*
X107844109Y-62398305D01*
X107846870Y-62391223D01*
X107848449Y-62379229D01*
X107877173Y-62314303D01*
X107901101Y-62292465D01*
X107917229Y-62281172D01*
X108024302Y-62206199D01*
X108186199Y-62044302D01*
X108194388Y-62032608D01*
X108314367Y-61861259D01*
X108314368Y-61861257D01*
X108317524Y-61856750D01*
X108319847Y-61851768D01*
X108319850Y-61851763D01*
X108335805Y-61817546D01*
X108382722Y-61764261D01*
X108450999Y-61744800D01*
X108518959Y-61765342D01*
X108564195Y-61817546D01*
X108580150Y-61851763D01*
X108580153Y-61851768D01*
X108582476Y-61856750D01*
X108585632Y-61861257D01*
X108585633Y-61861259D01*
X108705613Y-62032608D01*
X108713801Y-62044302D01*
X108875698Y-62206199D01*
X108880208Y-62209357D01*
X108880214Y-62209362D01*
X108982770Y-62281172D01*
X109027099Y-62336629D01*
X109036500Y-62384385D01*
X109036500Y-62744695D01*
X109016498Y-62812816D01*
X108999595Y-62833790D01*
X107603791Y-64229595D01*
X107541479Y-64263620D01*
X107514696Y-64266500D01*
X102567736Y-64266500D01*
X102559167Y-64266208D01*
X102511542Y-64262961D01*
X102511538Y-64262961D01*
X102503966Y-64262445D01*
X102443359Y-64273022D01*
X102436868Y-64273980D01*
X102375770Y-64281374D01*
X102368663Y-64284060D01*
X102363801Y-64285254D01*
X102353331Y-64288118D01*
X102348484Y-64289581D01*
X102341001Y-64290887D01*
X102284656Y-64315620D01*
X102278575Y-64318101D01*
X102228131Y-64337162D01*
X102228129Y-64337163D01*
X102221021Y-64339849D01*
X102214757Y-64344154D01*
X102210270Y-64346500D01*
X102200778Y-64351783D01*
X102196475Y-64354328D01*
X102189524Y-64357379D01*
X102183501Y-64362001D01*
X102183497Y-64362003D01*
X102140697Y-64394844D01*
X102135372Y-64398713D01*
X102084687Y-64433549D01*
X102060037Y-64461216D01*
X102045030Y-64478059D01*
X102040050Y-64483335D01*
X101593444Y-64929942D01*
X101593442Y-64929943D01*
X101593438Y-64929947D01*
X101278329Y-65245057D01*
X101026316Y-65497070D01*
X101020067Y-65502909D01*
X100978345Y-65539305D01*
X100942985Y-65589618D01*
X100939052Y-65594913D01*
X100905771Y-65637358D01*
X100905769Y-65637362D01*
X100901082Y-65643339D01*
X100897956Y-65650262D01*
X100895356Y-65654555D01*
X100889957Y-65664021D01*
X100887589Y-65668438D01*
X100883223Y-65674650D01*
X100880466Y-65681722D01*
X100860878Y-65731962D01*
X100858322Y-65738043D01*
X100856749Y-65741526D01*
X100833006Y-65794111D01*
X100831621Y-65801583D01*
X100830117Y-65806384D01*
X100827142Y-65816826D01*
X100825892Y-65821695D01*
X100823130Y-65828778D01*
X100822138Y-65836313D01*
X100815096Y-65889799D01*
X100814069Y-65896287D01*
X100802860Y-65956769D01*
X100803297Y-65964350D01*
X100803297Y-65964351D01*
X100806291Y-66016278D01*
X100806500Y-66023531D01*
X100806501Y-67272250D01*
X100806501Y-68474694D01*
X100786499Y-68542815D01*
X100769596Y-68563789D01*
X98757482Y-70575903D01*
X98695170Y-70609929D01*
X98638860Y-70608589D01*
X98638817Y-70608834D01*
X98637206Y-70608550D01*
X98635780Y-70608516D01*
X98633405Y-70607880D01*
X98628087Y-70606455D01*
X98400000Y-70586500D01*
X98171913Y-70606455D01*
X98166600Y-70607879D01*
X98166598Y-70607879D01*
X97956067Y-70664291D01*
X97956065Y-70664292D01*
X97950757Y-70665714D01*
X97945776Y-70668036D01*
X97945775Y-70668037D01*
X97748237Y-70760150D01*
X97748232Y-70760153D01*
X97743250Y-70762476D01*
X97738743Y-70765632D01*
X97738741Y-70765633D01*
X97560209Y-70890642D01*
X97560206Y-70890644D01*
X97555698Y-70893801D01*
X97393801Y-71055698D01*
X97390644Y-71060206D01*
X97390642Y-71060209D01*
X97265633Y-71238741D01*
X97265632Y-71238743D01*
X97262476Y-71243250D01*
X97260153Y-71248232D01*
X97260150Y-71248237D01*
X97172442Y-71436329D01*
X97165714Y-71450757D01*
X97164292Y-71456065D01*
X97164291Y-71456067D01*
X97107880Y-71666595D01*
X97106455Y-71671913D01*
X97086500Y-71900000D01*
X97106455Y-72128087D01*
X97107879Y-72133400D01*
X97107879Y-72133402D01*
X97155854Y-72312444D01*
X97165714Y-72349243D01*
X97168036Y-72354224D01*
X97168037Y-72354225D01*
X97224696Y-72475730D01*
X97236501Y-72528980D01*
X97236500Y-73745614D01*
X97216498Y-73813735D01*
X97182771Y-73848827D01*
X97080209Y-73920642D01*
X97080206Y-73920644D01*
X97075698Y-73923801D01*
X96913801Y-74085698D01*
X96910644Y-74090206D01*
X96910642Y-74090209D01*
X96787458Y-74266135D01*
X96782476Y-74273250D01*
X96780153Y-74278232D01*
X96780150Y-74278237D01*
X96698499Y-74453339D01*
X96685714Y-74480757D01*
X96684292Y-74486065D01*
X96684291Y-74486067D01*
X96647892Y-74621910D01*
X96626455Y-74701913D01*
X96606500Y-74930000D01*
X96626455Y-75158087D01*
X96627879Y-75163400D01*
X96627879Y-75163402D01*
X96681733Y-75364384D01*
X96685714Y-75379243D01*
X96688036Y-75384224D01*
X96688037Y-75384225D01*
X96728897Y-75471849D01*
X96739558Y-75542041D01*
X96710578Y-75606853D01*
X96659240Y-75642965D01*
X96641021Y-75649849D01*
X96634759Y-75654153D01*
X96630233Y-75656519D01*
X96620828Y-75661754D01*
X96616477Y-75664327D01*
X96609524Y-75667379D01*
X96603501Y-75672001D01*
X96603497Y-75672003D01*
X96560697Y-75704844D01*
X96555372Y-75708713D01*
X96504687Y-75743549D01*
X96499630Y-75749225D01*
X96465022Y-75788068D01*
X96460041Y-75793344D01*
X94787377Y-77466009D01*
X93123791Y-79129595D01*
X93061479Y-79163621D01*
X93034696Y-79166500D01*
X90465305Y-79166500D01*
X90397184Y-79146498D01*
X90376210Y-79129595D01*
X89872653Y-78626038D01*
X89838627Y-78563726D01*
X89843692Y-78492911D01*
X89872653Y-78447848D01*
X89976199Y-78344302D01*
X90009673Y-78296497D01*
X90104367Y-78161259D01*
X90104368Y-78161257D01*
X90107524Y-78156750D01*
X90109847Y-78151768D01*
X90109850Y-78151763D01*
X90201963Y-77954225D01*
X90201964Y-77954224D01*
X90204286Y-77949243D01*
X90239829Y-77816598D01*
X90262121Y-77733402D01*
X90262121Y-77733400D01*
X90263545Y-77728087D01*
X90283500Y-77500000D01*
X90263545Y-77271913D01*
X90261484Y-77264220D01*
X90205709Y-77056067D01*
X90205708Y-77056065D01*
X90204286Y-77050757D01*
X90201963Y-77045775D01*
X90109850Y-76848237D01*
X90109847Y-76848232D01*
X90107524Y-76843250D01*
X90096651Y-76827722D01*
X89979358Y-76660209D01*
X89979356Y-76660206D01*
X89976199Y-76655698D01*
X89814302Y-76493801D01*
X89747230Y-76446837D01*
X89702901Y-76391380D01*
X89693500Y-76343624D01*
X89693500Y-75145304D01*
X89713502Y-75077183D01*
X89730405Y-75056209D01*
X91100236Y-73686379D01*
X92493681Y-72292934D01*
X92499947Y-72287080D01*
X92535928Y-72255692D01*
X92541655Y-72250696D01*
X92577022Y-72200373D01*
X92580948Y-72195088D01*
X92614229Y-72152643D01*
X92614231Y-72152639D01*
X92618918Y-72146662D01*
X92622044Y-72139739D01*
X92624644Y-72135446D01*
X92630043Y-72125980D01*
X92632411Y-72121563D01*
X92636777Y-72115351D01*
X92659122Y-72058039D01*
X92661678Y-72051958D01*
X92683869Y-72002811D01*
X92686994Y-71995890D01*
X92688379Y-71988418D01*
X92689883Y-71983617D01*
X92692858Y-71973175D01*
X92694108Y-71968306D01*
X92696870Y-71961223D01*
X92698172Y-71951333D01*
X92704904Y-71900202D01*
X92705931Y-71893714D01*
X92717140Y-71833232D01*
X92715912Y-71811923D01*
X92713709Y-71773723D01*
X92713500Y-71766470D01*
X92713500Y-71064384D01*
X92733502Y-70996263D01*
X92767230Y-70961171D01*
X92874302Y-70886199D01*
X93036199Y-70724302D01*
X93044227Y-70712838D01*
X93164367Y-70541259D01*
X93164368Y-70541257D01*
X93167524Y-70536750D01*
X93169847Y-70531768D01*
X93169850Y-70531763D01*
X93261963Y-70334225D01*
X93261964Y-70334224D01*
X93264286Y-70329243D01*
X93323545Y-70108087D01*
X93343500Y-69880000D01*
X93323545Y-69651913D01*
X93321484Y-69644220D01*
X93321510Y-69643133D01*
X93321166Y-69641183D01*
X93321558Y-69641114D01*
X93323176Y-69573244D01*
X93354097Y-69522518D01*
X95113681Y-67762934D01*
X95119947Y-67757080D01*
X95161655Y-67720696D01*
X95197027Y-67670367D01*
X95200960Y-67665072D01*
X95234233Y-67622637D01*
X95238918Y-67616662D01*
X95242042Y-67609743D01*
X95244632Y-67605467D01*
X95250043Y-67595980D01*
X95252411Y-67591563D01*
X95256777Y-67585351D01*
X95279122Y-67528039D01*
X95281678Y-67521958D01*
X95286620Y-67511013D01*
X95306994Y-67465890D01*
X95308378Y-67458422D01*
X95309896Y-67453578D01*
X95312855Y-67443192D01*
X95314112Y-67438296D01*
X95316870Y-67431223D01*
X95317971Y-67422864D01*
X95324900Y-67370225D01*
X95325932Y-67363708D01*
X95335757Y-67310698D01*
X95337141Y-67303231D01*
X95333709Y-67243710D01*
X95333500Y-67236458D01*
X95333500Y-66267547D01*
X96297000Y-66267547D01*
X96297000Y-67267743D01*
X96297161Y-67272250D01*
X96301740Y-67336269D01*
X96304126Y-67349491D01*
X96340819Y-67474458D01*
X96348233Y-67490692D01*
X96417426Y-67598360D01*
X96429112Y-67611847D01*
X96525840Y-67695662D01*
X96540848Y-67705307D01*
X96657275Y-67758477D01*
X96674388Y-67763502D01*
X96805554Y-67782361D01*
X96814495Y-67783000D01*
X97807885Y-67783000D01*
X97823124Y-67778525D01*
X97824329Y-67777135D01*
X97826000Y-67769452D01*
X97826001Y-66272115D01*
X97821526Y-66256876D01*
X97820136Y-66255671D01*
X97812453Y-66254000D01*
X96315115Y-66253999D01*
X96299876Y-66258474D01*
X96298671Y-66259864D01*
X96297000Y-66267547D01*
X95333500Y-66267547D01*
X95333500Y-64734495D01*
X96297000Y-64734495D01*
X96297000Y-65727885D01*
X96301475Y-65743124D01*
X96302865Y-65744329D01*
X96310548Y-65746000D01*
X97807885Y-65746001D01*
X97823124Y-65741526D01*
X97824329Y-65740136D01*
X97826000Y-65732453D01*
X97826001Y-64235115D01*
X97821526Y-64219876D01*
X97820136Y-64218671D01*
X97812453Y-64217000D01*
X96812257Y-64217000D01*
X96807750Y-64217161D01*
X96743731Y-64221740D01*
X96730509Y-64224126D01*
X96605542Y-64260819D01*
X96589308Y-64268233D01*
X96481640Y-64337426D01*
X96468153Y-64349112D01*
X96384338Y-64445840D01*
X96374693Y-64460848D01*
X96321523Y-64577275D01*
X96316498Y-64594388D01*
X96297639Y-64725554D01*
X96297000Y-64734495D01*
X95333500Y-64734495D01*
X95333500Y-62908564D01*
X95353502Y-62840443D01*
X95374593Y-62816490D01*
X95374302Y-62816199D01*
X95536199Y-62654302D01*
X95548424Y-62636844D01*
X95664367Y-62471259D01*
X95664368Y-62471257D01*
X95667524Y-62466750D01*
X95669847Y-62461768D01*
X95669850Y-62461763D01*
X95761963Y-62264225D01*
X95761964Y-62264224D01*
X95764286Y-62259243D01*
X95767808Y-62246101D01*
X95822121Y-62043402D01*
X95822122Y-62043398D01*
X95823545Y-62038087D01*
X95843500Y-61810000D01*
X95823545Y-61581913D01*
X95764286Y-61360757D01*
X95714226Y-61253402D01*
X95669850Y-61158237D01*
X95669847Y-61158232D01*
X95667524Y-61153250D01*
X95664367Y-61148741D01*
X95539358Y-60970209D01*
X95539356Y-60970206D01*
X95536199Y-60965698D01*
X95374302Y-60803801D01*
X95369794Y-60800644D01*
X95369791Y-60800642D01*
X95191259Y-60675633D01*
X95191257Y-60675632D01*
X95186750Y-60672476D01*
X95181768Y-60670153D01*
X95181763Y-60670150D01*
X94984225Y-60578037D01*
X94984224Y-60578036D01*
X94979243Y-60575714D01*
X94973935Y-60574292D01*
X94973933Y-60574291D01*
X94819456Y-60532899D01*
X94758087Y-60516455D01*
X94721562Y-60513260D01*
X94655445Y-60487398D01*
X94643448Y-60476834D01*
X92832943Y-58666329D01*
X92827089Y-58660063D01*
X92795692Y-58624072D01*
X92790696Y-58618345D01*
X92740360Y-58582968D01*
X92735074Y-58579042D01*
X92716966Y-58564844D01*
X92686661Y-58541082D01*
X92679732Y-58537954D01*
X92675380Y-58535318D01*
X92666030Y-58529985D01*
X92661566Y-58527591D01*
X92655351Y-58523223D01*
X92648276Y-58520464D01*
X92648273Y-58520463D01*
X92598032Y-58500875D01*
X92591951Y-58498319D01*
X92542813Y-58476132D01*
X92542811Y-58476131D01*
X92535889Y-58473006D01*
X92528420Y-58471622D01*
X92523574Y-58470103D01*
X92513163Y-58467138D01*
X92508301Y-58465890D01*
X92501223Y-58463130D01*
X92463152Y-58458118D01*
X92440206Y-58455097D01*
X92433692Y-58454065D01*
X92380700Y-58444244D01*
X92380698Y-58444244D01*
X92373231Y-58442860D01*
X92365650Y-58443297D01*
X92365649Y-58443297D01*
X92313723Y-58446291D01*
X92306470Y-58446500D01*
X92009500Y-58446500D01*
X91941379Y-58426498D01*
X91894886Y-58372842D01*
X91884363Y-58324469D01*
X91883580Y-58324497D01*
X91883500Y-58322257D01*
X91883500Y-58320000D01*
X91878273Y-58246921D01*
X91847082Y-58140693D01*
X91839635Y-58115330D01*
X91839634Y-58115328D01*
X91837096Y-58106684D01*
X91797910Y-58045710D01*
X91762949Y-57991309D01*
X91762947Y-57991306D01*
X91758077Y-57983729D01*
X91718979Y-57949850D01*
X91654431Y-57893918D01*
X91654428Y-57893916D01*
X91647619Y-57888016D01*
X91563809Y-57849741D01*
X91522864Y-57831042D01*
X91522863Y-57831042D01*
X91514670Y-57827300D01*
X91505755Y-57826018D01*
X91505754Y-57826018D01*
X91494602Y-57824415D01*
X91451568Y-57818227D01*
X91386988Y-57788735D01*
X91348604Y-57729009D01*
X91343500Y-57693510D01*
X91343500Y-53817747D01*
X91343792Y-53809177D01*
X91345375Y-53785955D01*
X91347556Y-53753966D01*
X91345870Y-53744302D01*
X91336980Y-53693365D01*
X91336017Y-53686841D01*
X91330682Y-53642762D01*
X91328626Y-53625770D01*
X91325940Y-53618661D01*
X91324730Y-53613736D01*
X91321880Y-53603321D01*
X91320420Y-53598484D01*
X91319114Y-53591001D01*
X91316063Y-53584051D01*
X91316061Y-53584044D01*
X91294385Y-53534664D01*
X91291893Y-53528559D01*
X91272836Y-53478126D01*
X91272835Y-53478124D01*
X91270151Y-53471021D01*
X91265848Y-53464761D01*
X91263481Y-53460233D01*
X91258246Y-53450828D01*
X91255673Y-53446477D01*
X91252621Y-53439524D01*
X91247999Y-53433501D01*
X91247997Y-53433497D01*
X91215156Y-53390697D01*
X91211280Y-53385363D01*
X91205453Y-53376885D01*
X91176451Y-53334687D01*
X91131931Y-53295021D01*
X91126656Y-53290041D01*
X91023576Y-53186961D01*
X90989550Y-53124649D01*
X90987150Y-53086885D01*
X91003021Y-52905476D01*
X91003021Y-52905475D01*
X91003500Y-52900000D01*
X90983545Y-52671913D01*
X90955460Y-52567099D01*
X90957150Y-52496124D01*
X90996944Y-52437328D01*
X91062208Y-52409380D01*
X91077167Y-52408489D01*
X93302833Y-52408489D01*
X93370954Y-52428491D01*
X93417447Y-52482147D01*
X93427551Y-52552421D01*
X93424542Y-52567093D01*
X93396455Y-52671913D01*
X93376500Y-52900000D01*
X93396455Y-53128087D01*
X93397879Y-53133400D01*
X93397879Y-53133402D01*
X93453492Y-53340949D01*
X93455714Y-53349243D01*
X93458034Y-53354218D01*
X93458037Y-53354225D01*
X93550150Y-53551763D01*
X93550153Y-53551768D01*
X93552476Y-53556750D01*
X93555632Y-53561257D01*
X93555633Y-53561259D01*
X93679126Y-53737625D01*
X93683801Y-53744302D01*
X93845698Y-53906199D01*
X93850206Y-53909356D01*
X93850209Y-53909358D01*
X94021155Y-54029055D01*
X94033250Y-54037524D01*
X94038232Y-54039847D01*
X94038237Y-54039850D01*
X94211510Y-54120648D01*
X94240757Y-54134286D01*
X94246065Y-54135708D01*
X94246067Y-54135709D01*
X94456598Y-54192121D01*
X94456600Y-54192121D01*
X94461913Y-54193545D01*
X94690000Y-54213500D01*
X94918087Y-54193545D01*
X94923400Y-54192121D01*
X94923402Y-54192121D01*
X95133933Y-54135709D01*
X95133935Y-54135708D01*
X95139243Y-54134286D01*
X95222838Y-54095305D01*
X95276088Y-54083500D01*
X96445616Y-54083500D01*
X96513737Y-54103502D01*
X96548829Y-54137230D01*
X96623801Y-54244302D01*
X96785698Y-54406199D01*
X96790206Y-54409356D01*
X96790209Y-54409358D01*
X96955835Y-54525330D01*
X96973250Y-54537524D01*
X96978232Y-54539847D01*
X96978237Y-54539850D01*
X97143642Y-54616979D01*
X97180757Y-54634286D01*
X97186065Y-54635708D01*
X97186067Y-54635709D01*
X97396598Y-54692121D01*
X97396600Y-54692121D01*
X97401913Y-54693545D01*
X97630000Y-54713500D01*
X97858087Y-54693545D01*
X97863400Y-54692121D01*
X97863402Y-54692121D01*
X98073933Y-54635709D01*
X98073935Y-54635708D01*
X98079243Y-54634286D01*
X98116358Y-54616979D01*
X98281763Y-54539850D01*
X98281768Y-54539847D01*
X98286750Y-54537524D01*
X98304165Y-54525330D01*
X98469791Y-54409358D01*
X98469794Y-54409356D01*
X98474302Y-54406199D01*
X98636199Y-54244302D01*
X98639359Y-54239790D01*
X98764367Y-54061259D01*
X98764368Y-54061257D01*
X98767524Y-54056750D01*
X98769847Y-54051768D01*
X98769850Y-54051763D01*
X98861963Y-53854225D01*
X98861964Y-53854224D01*
X98864286Y-53849243D01*
X98867818Y-53836064D01*
X98922121Y-53633402D01*
X98922121Y-53633400D01*
X98923545Y-53628087D01*
X98943500Y-53400000D01*
X98923545Y-53171913D01*
X98910881Y-53124649D01*
X98865709Y-52956067D01*
X98865708Y-52956065D01*
X98864286Y-52950757D01*
X98838065Y-52894525D01*
X98769850Y-52748237D01*
X98769847Y-52748232D01*
X98767524Y-52743250D01*
X98764367Y-52738742D01*
X98764364Y-52738736D01*
X98671953Y-52606759D01*
X98649265Y-52539485D01*
X98666550Y-52470625D01*
X98718320Y-52422041D01*
X98775166Y-52408489D01*
X99581836Y-52408489D01*
X99649957Y-52428491D01*
X99696450Y-52482147D01*
X99706554Y-52552421D01*
X99685049Y-52606759D01*
X99585636Y-52748736D01*
X99585633Y-52748742D01*
X99582476Y-52753250D01*
X99580153Y-52758232D01*
X99580150Y-52758237D01*
X99516598Y-52894525D01*
X99485714Y-52960757D01*
X99484292Y-52966065D01*
X99484291Y-52966067D01*
X99427879Y-53176598D01*
X99426455Y-53181913D01*
X99406500Y-53410000D01*
X99426455Y-53638087D01*
X99427879Y-53643400D01*
X99427879Y-53643402D01*
X99481612Y-53843933D01*
X99485714Y-53859243D01*
X99488036Y-53864224D01*
X99488037Y-53864225D01*
X99580150Y-54061763D01*
X99580153Y-54061768D01*
X99582476Y-54066750D01*
X99585632Y-54071257D01*
X99585633Y-54071259D01*
X99651216Y-54164921D01*
X99673904Y-54232195D01*
X99656619Y-54301056D01*
X99637098Y-54326287D01*
X98233791Y-55729595D01*
X98171479Y-55763620D01*
X98144696Y-55766500D01*
X95360758Y-55766500D01*
X95288488Y-55743713D01*
X95236617Y-55707393D01*
X95186750Y-55672476D01*
X95181772Y-55670155D01*
X95181769Y-55670153D01*
X94984225Y-55578037D01*
X94984224Y-55578036D01*
X94979243Y-55575714D01*
X94973935Y-55574292D01*
X94973933Y-55574291D01*
X94763402Y-55517879D01*
X94763400Y-55517879D01*
X94758087Y-55516455D01*
X94530000Y-55496500D01*
X94301913Y-55516455D01*
X94296600Y-55517879D01*
X94296598Y-55517879D01*
X94086067Y-55574291D01*
X94086065Y-55574292D01*
X94080757Y-55575714D01*
X94075776Y-55578036D01*
X94075775Y-55578037D01*
X93878237Y-55670150D01*
X93878232Y-55670153D01*
X93873250Y-55672476D01*
X93868744Y-55675631D01*
X93868741Y-55675633D01*
X93690209Y-55800642D01*
X93690206Y-55800644D01*
X93685698Y-55803801D01*
X93523801Y-55965698D01*
X93520644Y-55970206D01*
X93520642Y-55970209D01*
X93432232Y-56096472D01*
X93392476Y-56153250D01*
X93390153Y-56158232D01*
X93390150Y-56158237D01*
X93360444Y-56221942D01*
X93295714Y-56360757D01*
X93294292Y-56366065D01*
X93294291Y-56366067D01*
X93250457Y-56529656D01*
X93236455Y-56581913D01*
X93216500Y-56810000D01*
X93236455Y-57038087D01*
X93237879Y-57043400D01*
X93237879Y-57043402D01*
X93294291Y-57253931D01*
X93295714Y-57259243D01*
X93298036Y-57264224D01*
X93298037Y-57264225D01*
X93390150Y-57461763D01*
X93390153Y-57461768D01*
X93392476Y-57466750D01*
X93395632Y-57471257D01*
X93395633Y-57471259D01*
X93510690Y-57635577D01*
X93523801Y-57654302D01*
X93685698Y-57816199D01*
X93690206Y-57819356D01*
X93690209Y-57819358D01*
X93818946Y-57909500D01*
X93873250Y-57947524D01*
X93878232Y-57949847D01*
X93878237Y-57949850D01*
X94058559Y-58033935D01*
X94080757Y-58044286D01*
X94086065Y-58045708D01*
X94086067Y-58045709D01*
X94296598Y-58102121D01*
X94296600Y-58102121D01*
X94301913Y-58103545D01*
X94530000Y-58123500D01*
X94758087Y-58103545D01*
X94763400Y-58102121D01*
X94763402Y-58102121D01*
X94973933Y-58045709D01*
X94973935Y-58045708D01*
X94979243Y-58044286D01*
X95001441Y-58033935D01*
X95181763Y-57949850D01*
X95181768Y-57949847D01*
X95186750Y-57947524D01*
X95241054Y-57909500D01*
X95369791Y-57819358D01*
X95369794Y-57819356D01*
X95374302Y-57816199D01*
X95536199Y-57654302D01*
X95549311Y-57635577D01*
X95664367Y-57471259D01*
X95664368Y-57471257D01*
X95667524Y-57466750D01*
X95669847Y-57461768D01*
X95669850Y-57461763D01*
X95761963Y-57264225D01*
X95761964Y-57264224D01*
X95764286Y-57259243D01*
X95765709Y-57253933D01*
X95765710Y-57253931D01*
X95772955Y-57226890D01*
X95809906Y-57166267D01*
X95873767Y-57135245D01*
X95894662Y-57133500D01*
X98452263Y-57133500D01*
X98460832Y-57133792D01*
X98508457Y-57137039D01*
X98508461Y-57137039D01*
X98516033Y-57137555D01*
X98523510Y-57136250D01*
X98523512Y-57136250D01*
X98568140Y-57128461D01*
X98576629Y-57126979D01*
X98583114Y-57126022D01*
X98644230Y-57118626D01*
X98651336Y-57115941D01*
X98656226Y-57114740D01*
X98666688Y-57111878D01*
X98671520Y-57110419D01*
X98678998Y-57109114D01*
X98685947Y-57106064D01*
X98685956Y-57106061D01*
X98735330Y-57084388D01*
X98741433Y-57081897D01*
X98791869Y-57062838D01*
X98791871Y-57062837D01*
X98798979Y-57060151D01*
X98805244Y-57055845D01*
X98809737Y-57053496D01*
X98819181Y-57048240D01*
X98823521Y-57045674D01*
X98830475Y-57042621D01*
X98843526Y-57032607D01*
X98879284Y-57005168D01*
X98884622Y-57001290D01*
X98929054Y-56970753D01*
X98929056Y-56970752D01*
X98935313Y-56966451D01*
X98941334Y-56959694D01*
X98974986Y-56921923D01*
X98979967Y-56916647D01*
X101289827Y-54606788D01*
X101292523Y-54604092D01*
X101295308Y-54600540D01*
X101295499Y-54600389D01*
X101297382Y-54598264D01*
X101297757Y-54598596D01*
X101341205Y-54564100D01*
X101371757Y-54549853D01*
X101371763Y-54549849D01*
X101376750Y-54547524D01*
X101391032Y-54537524D01*
X101559791Y-54419358D01*
X101559794Y-54419356D01*
X101564302Y-54416199D01*
X101726199Y-54254302D01*
X101730473Y-54248199D01*
X101854367Y-54071259D01*
X101854368Y-54071257D01*
X101857524Y-54066750D01*
X101859847Y-54061768D01*
X101859850Y-54061763D01*
X101951963Y-53864225D01*
X101951964Y-53864224D01*
X101954286Y-53859243D01*
X101958389Y-53843933D01*
X102012121Y-53643402D01*
X102012121Y-53643400D01*
X102013545Y-53638087D01*
X102033500Y-53410000D01*
X102013545Y-53181913D01*
X102012121Y-53176598D01*
X101955709Y-52966067D01*
X101955708Y-52966065D01*
X101954286Y-52960757D01*
X101923402Y-52894525D01*
X101859850Y-52758237D01*
X101859847Y-52758232D01*
X101857524Y-52753250D01*
X101854367Y-52748742D01*
X101854364Y-52748736D01*
X101754951Y-52606759D01*
X101732263Y-52539485D01*
X101749548Y-52470625D01*
X101801318Y-52422041D01*
X101858164Y-52408489D01*
X104389685Y-52408489D01*
X104457806Y-52428491D01*
X104478780Y-52445394D01*
X107295771Y-55262385D01*
X107329797Y-55324697D01*
X107322873Y-55400204D01*
X107308665Y-55434087D01*
X107243595Y-55690298D01*
X107243127Y-55694949D01*
X107243126Y-55694953D01*
X107238486Y-55741034D01*
X107217111Y-55953313D01*
X107217335Y-55957979D01*
X107217335Y-55957984D01*
X107219505Y-56003160D01*
X107229794Y-56217354D01*
X107281365Y-56476620D01*
X107370692Y-56725415D01*
X107388066Y-56757750D01*
X107465403Y-56901681D01*
X107495811Y-56958274D01*
X107498606Y-56962017D01*
X107498608Y-56962020D01*
X107651183Y-57166343D01*
X107651188Y-57166349D01*
X107653975Y-57170081D01*
X107657284Y-57173361D01*
X107657289Y-57173367D01*
X107821691Y-57336340D01*
X107841709Y-57356184D01*
X107845471Y-57358942D01*
X107845474Y-57358945D01*
X108051115Y-57509727D01*
X108054889Y-57512494D01*
X108059032Y-57514674D01*
X108059034Y-57514675D01*
X108284681Y-57633394D01*
X108284686Y-57633396D01*
X108288831Y-57635577D01*
X108293254Y-57637122D01*
X108293255Y-57637122D01*
X108507066Y-57711788D01*
X108538396Y-57722729D01*
X108542989Y-57723601D01*
X108793513Y-57771164D01*
X108793516Y-57771164D01*
X108798102Y-57772035D01*
X108930173Y-57777225D01*
X109057575Y-57782231D01*
X109057581Y-57782231D01*
X109062243Y-57782414D01*
X109195041Y-57767870D01*
X109320364Y-57754145D01*
X109320369Y-57754144D01*
X109325017Y-57753635D01*
X109344062Y-57748621D01*
X109576131Y-57687522D01*
X109580651Y-57686332D01*
X109731641Y-57621462D01*
X109819226Y-57583833D01*
X109819229Y-57583831D01*
X109823529Y-57581984D01*
X109827509Y-57579521D01*
X109827513Y-57579519D01*
X110044342Y-57445341D01*
X110044346Y-57445338D01*
X110048315Y-57442882D01*
X110250072Y-57272082D01*
X110424366Y-57073337D01*
X110427171Y-57068977D01*
X110564842Y-56854943D01*
X110567370Y-56851013D01*
X110572569Y-56839473D01*
X110609382Y-56757750D01*
X110655597Y-56703855D01*
X110724264Y-56683500D01*
X112352836Y-56683500D01*
X112420957Y-56703502D01*
X112463827Y-56749861D01*
X112468066Y-56757750D01*
X112517993Y-56850668D01*
X112575811Y-56958274D01*
X112578606Y-56962017D01*
X112578608Y-56962020D01*
X112731183Y-57166343D01*
X112731188Y-57166349D01*
X112733975Y-57170081D01*
X112737284Y-57173361D01*
X112737289Y-57173367D01*
X112901691Y-57336340D01*
X112921709Y-57356184D01*
X112925471Y-57358942D01*
X112925474Y-57358945D01*
X113131115Y-57509727D01*
X113134889Y-57512494D01*
X113139032Y-57514674D01*
X113139034Y-57514675D01*
X113364681Y-57633394D01*
X113364686Y-57633396D01*
X113368831Y-57635577D01*
X113373254Y-57637122D01*
X113373255Y-57637122D01*
X113587066Y-57711788D01*
X113618396Y-57722729D01*
X113622989Y-57723601D01*
X113873513Y-57771164D01*
X113873516Y-57771164D01*
X113878102Y-57772035D01*
X114010173Y-57777225D01*
X114137575Y-57782231D01*
X114137581Y-57782231D01*
X114142243Y-57782414D01*
X114275041Y-57767870D01*
X114400364Y-57754145D01*
X114400369Y-57754144D01*
X114405017Y-57753635D01*
X114424062Y-57748621D01*
X114656131Y-57687522D01*
X114660651Y-57686332D01*
X114811641Y-57621462D01*
X114899226Y-57583833D01*
X114899229Y-57583831D01*
X114903529Y-57581984D01*
X114907509Y-57579521D01*
X114907513Y-57579519D01*
X115124342Y-57445341D01*
X115124346Y-57445338D01*
X115128315Y-57442882D01*
X115330072Y-57272082D01*
X115504366Y-57073337D01*
X115507171Y-57068977D01*
X115644842Y-56854943D01*
X115647370Y-56851013D01*
X115755942Y-56609993D01*
X115765360Y-56576598D01*
X115826426Y-56360077D01*
X115826427Y-56360074D01*
X115827696Y-56355573D01*
X115852800Y-56158237D01*
X115860658Y-56096472D01*
X115860658Y-56096466D01*
X115861056Y-56093341D01*
X115863500Y-56000000D01*
X115857891Y-55924525D01*
X115844256Y-55741034D01*
X115844255Y-55741030D01*
X115843910Y-55736382D01*
X115785570Y-55478555D01*
X115747661Y-55381073D01*
X115691454Y-55236536D01*
X115691453Y-55236534D01*
X115689761Y-55232183D01*
X115558589Y-55002679D01*
X115394934Y-54795085D01*
X115391532Y-54791885D01*
X115391525Y-54791877D01*
X115298167Y-54704054D01*
X115262255Y-54642810D01*
X115258500Y-54612280D01*
X115258500Y-53934384D01*
X115278502Y-53866263D01*
X115312230Y-53831171D01*
X115313368Y-53830374D01*
X115419302Y-53756199D01*
X115581199Y-53594302D01*
X115667238Y-53471426D01*
X115709367Y-53411259D01*
X115709368Y-53411257D01*
X115712524Y-53406750D01*
X115714847Y-53401768D01*
X115714850Y-53401763D01*
X115806963Y-53204225D01*
X115806964Y-53204224D01*
X115809286Y-53199243D01*
X115823481Y-53146269D01*
X115867121Y-52983402D01*
X115867121Y-52983400D01*
X115868545Y-52978087D01*
X115888500Y-52750000D01*
X115868545Y-52521913D01*
X115854802Y-52470625D01*
X115810709Y-52306067D01*
X115810708Y-52306065D01*
X115809286Y-52300757D01*
X115776292Y-52230000D01*
X115714850Y-52098237D01*
X115714847Y-52098232D01*
X115712524Y-52093250D01*
X115709367Y-52088741D01*
X115584358Y-51910209D01*
X115584356Y-51910206D01*
X115581199Y-51905698D01*
X115419302Y-51743801D01*
X115414794Y-51740644D01*
X115414791Y-51740642D01*
X115236259Y-51615633D01*
X115236257Y-51615632D01*
X115231750Y-51612476D01*
X115226768Y-51610153D01*
X115226763Y-51610150D01*
X115029225Y-51518037D01*
X115029224Y-51518036D01*
X115024243Y-51515714D01*
X115018935Y-51514292D01*
X115018933Y-51514291D01*
X114808402Y-51457879D01*
X114808400Y-51457879D01*
X114803087Y-51456455D01*
X114575000Y-51436500D01*
X114346913Y-51456455D01*
X114341600Y-51457879D01*
X114341598Y-51457879D01*
X114131067Y-51514291D01*
X114131065Y-51514292D01*
X114125757Y-51515714D01*
X114120776Y-51518036D01*
X114120775Y-51518037D01*
X113923237Y-51610150D01*
X113923232Y-51610153D01*
X113918250Y-51612476D01*
X113913743Y-51615632D01*
X113913741Y-51615633D01*
X113735209Y-51740642D01*
X113735206Y-51740644D01*
X113730698Y-51743801D01*
X113568801Y-51905698D01*
X113565644Y-51910206D01*
X113565642Y-51910209D01*
X113440633Y-52088741D01*
X113437476Y-52093250D01*
X113435153Y-52098232D01*
X113435150Y-52098237D01*
X113373708Y-52230000D01*
X113340714Y-52300757D01*
X113339292Y-52306065D01*
X113339291Y-52306067D01*
X113295198Y-52470625D01*
X113281455Y-52521913D01*
X113261500Y-52750000D01*
X113281455Y-52978087D01*
X113282879Y-52983400D01*
X113282879Y-52983402D01*
X113326520Y-53146269D01*
X113340714Y-53199243D01*
X113343036Y-53204224D01*
X113343037Y-53204225D01*
X113435150Y-53401763D01*
X113435153Y-53401768D01*
X113437476Y-53406750D01*
X113440632Y-53411257D01*
X113440633Y-53411259D01*
X113482763Y-53471426D01*
X113568801Y-53594302D01*
X113730698Y-53756199D01*
X113735206Y-53759356D01*
X113735209Y-53759358D01*
X113837771Y-53831173D01*
X113882099Y-53886631D01*
X113891500Y-53934384D01*
X113891501Y-54048332D01*
X113891501Y-54120648D01*
X113871499Y-54188769D01*
X113817844Y-54235262D01*
X113782492Y-54245498D01*
X113750948Y-54249791D01*
X113709189Y-54255474D01*
X113704703Y-54256782D01*
X113704701Y-54256782D01*
X113680596Y-54263808D01*
X113455405Y-54329445D01*
X113451152Y-54331405D01*
X113451151Y-54331406D01*
X113435210Y-54338755D01*
X113215342Y-54440116D01*
X113211437Y-54442676D01*
X113211432Y-54442679D01*
X112998187Y-54582488D01*
X112998182Y-54582492D01*
X112994274Y-54585054D01*
X112797057Y-54761077D01*
X112628025Y-54964316D01*
X112490890Y-55190308D01*
X112489081Y-55194622D01*
X112489080Y-55194624D01*
X112470377Y-55239226D01*
X112425588Y-55294312D01*
X112354180Y-55316500D01*
X110728743Y-55316500D01*
X110660622Y-55296498D01*
X110614129Y-55242842D01*
X110611559Y-55236756D01*
X110611453Y-55236533D01*
X110609761Y-55232183D01*
X110478589Y-55002679D01*
X110314934Y-54795085D01*
X110122393Y-54613960D01*
X109905195Y-54463284D01*
X109901005Y-54461218D01*
X109901002Y-54461216D01*
X109672299Y-54348433D01*
X109672296Y-54348432D01*
X109668111Y-54346368D01*
X109659152Y-54343500D01*
X109598309Y-54324024D01*
X109549387Y-54308364D01*
X109490607Y-54268546D01*
X109462685Y-54203271D01*
X109474486Y-54133262D01*
X109522264Y-54080747D01*
X109576819Y-54062841D01*
X109797523Y-54043532D01*
X109808310Y-54041630D01*
X110018761Y-53985239D01*
X110029057Y-53981491D01*
X110226513Y-53889417D01*
X110236008Y-53883934D01*
X110288050Y-53847494D01*
X110296426Y-53837015D01*
X110289359Y-53823570D01*
X109587811Y-53122021D01*
X109573868Y-53114408D01*
X109572034Y-53114539D01*
X109565420Y-53118790D01*
X108859917Y-53824294D01*
X108853490Y-53836064D01*
X108862784Y-53848078D01*
X108913992Y-53883934D01*
X108923487Y-53889417D01*
X109121917Y-53981946D01*
X109175202Y-54028863D01*
X109194663Y-54097141D01*
X109174121Y-54165101D01*
X109120098Y-54211166D01*
X109067019Y-54222130D01*
X108949123Y-54220586D01*
X108895797Y-54219888D01*
X108895794Y-54219888D01*
X108891120Y-54219827D01*
X108629189Y-54255474D01*
X108624703Y-54256782D01*
X108624701Y-54256782D01*
X108385576Y-54326480D01*
X108314580Y-54326339D01*
X108261223Y-54294609D01*
X106711139Y-52744525D01*
X108262479Y-52744525D01*
X108262479Y-52755475D01*
X108281468Y-52972523D01*
X108283370Y-52983310D01*
X108339761Y-53193761D01*
X108343509Y-53204057D01*
X108435583Y-53401513D01*
X108441066Y-53411008D01*
X108477506Y-53463050D01*
X108487985Y-53471426D01*
X108501430Y-53464359D01*
X109202979Y-52762811D01*
X109209356Y-52751132D01*
X109939408Y-52751132D01*
X109939539Y-52752966D01*
X109943790Y-52759580D01*
X110649294Y-53465083D01*
X110661064Y-53471510D01*
X110673078Y-53462216D01*
X110708934Y-53411008D01*
X110714417Y-53401513D01*
X110806491Y-53204057D01*
X110810239Y-53193761D01*
X110866630Y-52983310D01*
X110868532Y-52972523D01*
X110887521Y-52755475D01*
X110887521Y-52744525D01*
X110868532Y-52527477D01*
X110866630Y-52516690D01*
X110810239Y-52306239D01*
X110806491Y-52295943D01*
X110714417Y-52098487D01*
X110708934Y-52088992D01*
X110672494Y-52036950D01*
X110662015Y-52028574D01*
X110648570Y-52035641D01*
X109947021Y-52737189D01*
X109939408Y-52751132D01*
X109209356Y-52751132D01*
X109210592Y-52748868D01*
X109210461Y-52747034D01*
X109206210Y-52740420D01*
X108500706Y-52034917D01*
X108488936Y-52028490D01*
X108476922Y-52037784D01*
X108441066Y-52088992D01*
X108435583Y-52098487D01*
X108343509Y-52295943D01*
X108339761Y-52306239D01*
X108283370Y-52516690D01*
X108281468Y-52527477D01*
X108262479Y-52744525D01*
X106711139Y-52744525D01*
X105629599Y-51662985D01*
X108853574Y-51662985D01*
X108860641Y-51676430D01*
X109562189Y-52377979D01*
X109576132Y-52385592D01*
X109577966Y-52385461D01*
X109584580Y-52381210D01*
X110290083Y-51675706D01*
X110296510Y-51663936D01*
X110287216Y-51651922D01*
X110236008Y-51616066D01*
X110226513Y-51610583D01*
X110029057Y-51518509D01*
X110018761Y-51514761D01*
X109808310Y-51458370D01*
X109797523Y-51456468D01*
X109580475Y-51437479D01*
X109569525Y-51437479D01*
X109352477Y-51456468D01*
X109341690Y-51458370D01*
X109131239Y-51514761D01*
X109120943Y-51518509D01*
X108923487Y-51610583D01*
X108913992Y-51616066D01*
X108861950Y-51652506D01*
X108853574Y-51662985D01*
X105629599Y-51662985D01*
X105227932Y-51261318D01*
X105222078Y-51255052D01*
X105190681Y-51219061D01*
X105185685Y-51213334D01*
X105135349Y-51177957D01*
X105130063Y-51174031D01*
X105122356Y-51167989D01*
X105081650Y-51136071D01*
X105074721Y-51132943D01*
X105070369Y-51130307D01*
X105061019Y-51124974D01*
X105056555Y-51122580D01*
X105050340Y-51118212D01*
X105043265Y-51115453D01*
X105043262Y-51115452D01*
X104993021Y-51095864D01*
X104986940Y-51093308D01*
X104937802Y-51071121D01*
X104937800Y-51071120D01*
X104930878Y-51067995D01*
X104923409Y-51066611D01*
X104918563Y-51065092D01*
X104908152Y-51062127D01*
X104903290Y-51060879D01*
X104896212Y-51058119D01*
X104865065Y-51054019D01*
X104835195Y-51050086D01*
X104828681Y-51049054D01*
X104775689Y-51039233D01*
X104775687Y-51039233D01*
X104768220Y-51037849D01*
X104760639Y-51038286D01*
X104760638Y-51038286D01*
X104708712Y-51041280D01*
X104701459Y-51041489D01*
X88883729Y-51041489D01*
X88875160Y-51041197D01*
X88827535Y-51037950D01*
X88827531Y-51037950D01*
X88819959Y-51037434D01*
X88759352Y-51048011D01*
X88752861Y-51048969D01*
X88691763Y-51056363D01*
X88684656Y-51059049D01*
X88679794Y-51060243D01*
X88669324Y-51063107D01*
X88664477Y-51064570D01*
X88656994Y-51065876D01*
X88600649Y-51090609D01*
X88594568Y-51093090D01*
X88544124Y-51112151D01*
X88544122Y-51112152D01*
X88537014Y-51114838D01*
X88530750Y-51119143D01*
X88526263Y-51121489D01*
X88516771Y-51126772D01*
X88512468Y-51129317D01*
X88505517Y-51132368D01*
X88499494Y-51136990D01*
X88499490Y-51136992D01*
X88456690Y-51169833D01*
X88451365Y-51173702D01*
X88400680Y-51208538D01*
X88395623Y-51214214D01*
X88361023Y-51253048D01*
X88356043Y-51258324D01*
X87508934Y-52105434D01*
X87233937Y-52380431D01*
X87233933Y-52380434D01*
X87233925Y-52380442D01*
X86431304Y-53183064D01*
X86425038Y-53188917D01*
X86383335Y-53225297D01*
X86347953Y-53275640D01*
X86344047Y-53280900D01*
X86306071Y-53329332D01*
X86302946Y-53336253D01*
X86300330Y-53340573D01*
X86294991Y-53349933D01*
X86292582Y-53354426D01*
X86288213Y-53360642D01*
X86271104Y-53404525D01*
X86265871Y-53417946D01*
X86263315Y-53424025D01*
X86241913Y-53471426D01*
X86237995Y-53480104D01*
X86236612Y-53487567D01*
X86235103Y-53492381D01*
X86232134Y-53502805D01*
X86230879Y-53507694D01*
X86228120Y-53514770D01*
X86227129Y-53522299D01*
X86220089Y-53575772D01*
X86219059Y-53582275D01*
X86207849Y-53642762D01*
X86208286Y-53650343D01*
X86208286Y-53650344D01*
X86211281Y-53702288D01*
X86211490Y-53709541D01*
X86211489Y-64947252D01*
X86211197Y-64955821D01*
X86208003Y-65002679D01*
X86207434Y-65011022D01*
X86208739Y-65018498D01*
X86208739Y-65018504D01*
X86218008Y-65071615D01*
X86218971Y-65078137D01*
X86226363Y-65139218D01*
X86229047Y-65146321D01*
X86230249Y-65151215D01*
X86233106Y-65161658D01*
X86234569Y-65166504D01*
X86235875Y-65173987D01*
X86238928Y-65180943D01*
X86238929Y-65180945D01*
X86260604Y-65230324D01*
X86263094Y-65236425D01*
X86268315Y-65250240D01*
X86273686Y-65321033D01*
X86266650Y-65343504D01*
X86244519Y-65396280D01*
X86234901Y-65419217D01*
X86228665Y-65434087D01*
X86163595Y-65690298D01*
X86163127Y-65694949D01*
X86163126Y-65694953D01*
X86153839Y-65787190D01*
X86137111Y-65953313D01*
X86137335Y-65957979D01*
X86137335Y-65957984D01*
X86140484Y-66023531D01*
X86149794Y-66217354D01*
X86201365Y-66476620D01*
X86290692Y-66725415D01*
X86292908Y-66729539D01*
X86402301Y-66933130D01*
X86415811Y-66958274D01*
X86418606Y-66962017D01*
X86418608Y-66962020D01*
X86571183Y-67166343D01*
X86571188Y-67166349D01*
X86573975Y-67170081D01*
X86577284Y-67173361D01*
X86577289Y-67173367D01*
X86741619Y-67336269D01*
X86761709Y-67356184D01*
X86765471Y-67358942D01*
X86765474Y-67358945D01*
X86951303Y-67495200D01*
X86974889Y-67512494D01*
X87161620Y-67610738D01*
X87212590Y-67660155D01*
X87228753Y-67729287D01*
X87204974Y-67796183D01*
X87192046Y-67811339D01*
X86636315Y-68367071D01*
X86630049Y-68372924D01*
X86588346Y-68409304D01*
X86552964Y-68459647D01*
X86549058Y-68464907D01*
X86511082Y-68513339D01*
X86507957Y-68520260D01*
X86505341Y-68524580D01*
X86500002Y-68533940D01*
X86497593Y-68538433D01*
X86493224Y-68544649D01*
X86471078Y-68601451D01*
X86470882Y-68601953D01*
X86468326Y-68608032D01*
X86446131Y-68657189D01*
X86443006Y-68664111D01*
X86441623Y-68671574D01*
X86440114Y-68676388D01*
X86437145Y-68686812D01*
X86435890Y-68691701D01*
X86433131Y-68698777D01*
X86432140Y-68706306D01*
X86425100Y-68759779D01*
X86424070Y-68766282D01*
X86412860Y-68826769D01*
X86413297Y-68834350D01*
X86413297Y-68834351D01*
X86416292Y-68886295D01*
X86416501Y-68893548D01*
X86416500Y-81032263D01*
X86416208Y-81040832D01*
X86412445Y-81096033D01*
X86413750Y-81103509D01*
X86413750Y-81103515D01*
X86423019Y-81156626D01*
X86423982Y-81163148D01*
X86425098Y-81172369D01*
X86431374Y-81224229D01*
X86434058Y-81231332D01*
X86435260Y-81236226D01*
X86438117Y-81246669D01*
X86439580Y-81251515D01*
X86440886Y-81258998D01*
X86443939Y-81265954D01*
X86443940Y-81265956D01*
X86465615Y-81315335D01*
X86468107Y-81321440D01*
X86486176Y-81369257D01*
X86489849Y-81378978D01*
X86494152Y-81385238D01*
X86496519Y-81389766D01*
X86501754Y-81399171D01*
X86504327Y-81403522D01*
X86507379Y-81410475D01*
X86512001Y-81416498D01*
X86512003Y-81416502D01*
X86544844Y-81459302D01*
X86548713Y-81464627D01*
X86583549Y-81515312D01*
X86589225Y-81520369D01*
X86628071Y-81554980D01*
X86633347Y-81559961D01*
X88675291Y-83601905D01*
X88709317Y-83664217D01*
X88704252Y-83735032D01*
X88661705Y-83791868D01*
X88595185Y-83816679D01*
X88586196Y-83817000D01*
X85954000Y-83817000D01*
X85885879Y-83796998D01*
X85839386Y-83743342D01*
X85828000Y-83691000D01*
X85828000Y-50864000D01*
X85848002Y-50795879D01*
X85901658Y-50749386D01*
X85954000Y-50738000D01*
X132086000Y-50738000D01*
X132154121Y-50758002D01*
G37*
G04 #@! TD.AperFunction*
G04 #@! TA.AperFunction,Conductor*
G36*
X104569930Y-76963502D02*
G01*
X104616423Y-77017158D01*
X104626527Y-77087432D01*
X104597033Y-77152012D01*
X104590904Y-77158595D01*
X104568801Y-77180698D01*
X104565644Y-77185206D01*
X104565642Y-77185209D01*
X104457628Y-77339470D01*
X104437476Y-77368250D01*
X104435153Y-77373232D01*
X104435150Y-77373237D01*
X104343037Y-77570775D01*
X104340714Y-77575757D01*
X104339292Y-77581065D01*
X104339291Y-77581067D01*
X104283516Y-77789220D01*
X104281455Y-77796913D01*
X104261500Y-78025000D01*
X104281455Y-78253087D01*
X104340714Y-78474243D01*
X104343036Y-78479224D01*
X104343037Y-78479225D01*
X104435150Y-78676763D01*
X104435153Y-78676768D01*
X104437476Y-78681750D01*
X104440632Y-78686257D01*
X104440633Y-78686259D01*
X104565021Y-78863903D01*
X104568801Y-78869302D01*
X104730698Y-79031199D01*
X104823961Y-79096502D01*
X104862771Y-79123677D01*
X104907100Y-79179134D01*
X104916501Y-79226890D01*
X104916500Y-80645300D01*
X104896498Y-80713421D01*
X104842842Y-80759914D01*
X104790500Y-80771300D01*
X104224800Y-80771300D01*
X104151721Y-80776527D01*
X104098684Y-80792100D01*
X104020130Y-80815165D01*
X104020128Y-80815166D01*
X104011484Y-80817704D01*
X104003905Y-80822575D01*
X103896109Y-80891851D01*
X103896106Y-80891853D01*
X103888529Y-80896723D01*
X103882628Y-80903533D01*
X103798718Y-81000369D01*
X103798716Y-81000372D01*
X103792816Y-81007181D01*
X103789072Y-81015379D01*
X103748822Y-81103515D01*
X103732100Y-81140130D01*
X103730818Y-81149045D01*
X103730818Y-81149046D01*
X103711939Y-81280352D01*
X103711938Y-81280359D01*
X103711300Y-81284800D01*
X103711300Y-82835511D01*
X103691298Y-82903632D01*
X103637642Y-82950125D01*
X103585300Y-82961511D01*
X103356116Y-82961511D01*
X103287995Y-82941509D01*
X103241502Y-82887853D01*
X103231398Y-82817579D01*
X103235557Y-82798883D01*
X103298313Y-82592326D01*
X103300491Y-82582253D01*
X103305138Y-82546960D01*
X103302926Y-82532778D01*
X103289769Y-82529000D01*
X101727000Y-82529000D01*
X101658879Y-82508998D01*
X101612386Y-82455342D01*
X101601000Y-82403000D01*
X101601000Y-80843019D01*
X102109000Y-80843019D01*
X102109000Y-82002885D01*
X102113475Y-82018124D01*
X102114865Y-82019329D01*
X102122548Y-82021000D01*
X103292078Y-82021000D01*
X103305609Y-82017027D01*
X103306914Y-82007947D01*
X103255596Y-81803638D01*
X103252278Y-81793891D01*
X103159803Y-81581212D01*
X103154936Y-81572137D01*
X103028973Y-81377426D01*
X103022682Y-81369257D01*
X102866608Y-81197735D01*
X102859075Y-81190710D01*
X102677081Y-81046981D01*
X102668494Y-81041276D01*
X102465482Y-80929207D01*
X102456070Y-80924977D01*
X102237469Y-80847566D01*
X102227512Y-80844936D01*
X102126836Y-80827002D01*
X102113541Y-80828461D01*
X102109000Y-80843019D01*
X101601000Y-80843019D01*
X101601000Y-80841605D01*
X101597082Y-80828261D01*
X101582806Y-80826274D01*
X101517542Y-80836261D01*
X101507515Y-80838650D01*
X101287092Y-80910695D01*
X101277582Y-80914692D01*
X101071891Y-81021768D01*
X101063166Y-81027262D01*
X100928476Y-81128391D01*
X100861991Y-81153297D01*
X100792596Y-81138305D01*
X100746826Y-81095753D01*
X100668277Y-80973529D01*
X100661467Y-80967628D01*
X100564631Y-80883718D01*
X100564628Y-80883716D01*
X100557819Y-80877816D01*
X100518646Y-80859926D01*
X100433064Y-80820842D01*
X100433063Y-80820842D01*
X100424870Y-80817100D01*
X100415955Y-80815818D01*
X100415954Y-80815818D01*
X100284648Y-80796939D01*
X100284641Y-80796938D01*
X100280200Y-80796300D01*
X98349800Y-80796300D01*
X98276721Y-80801527D01*
X98212588Y-80820358D01*
X98145130Y-80840165D01*
X98145128Y-80840166D01*
X98136484Y-80842704D01*
X98120750Y-80852816D01*
X98021109Y-80916851D01*
X98021106Y-80916853D01*
X98013529Y-80921723D01*
X98007628Y-80928533D01*
X97923718Y-81025369D01*
X97923716Y-81025372D01*
X97917816Y-81032181D01*
X97914072Y-81040379D01*
X97892116Y-81088457D01*
X97857100Y-81165130D01*
X97855818Y-81174045D01*
X97855818Y-81174046D01*
X97836939Y-81305352D01*
X97836938Y-81305359D01*
X97836300Y-81309800D01*
X97836300Y-81500500D01*
X97816298Y-81568621D01*
X97762642Y-81615114D01*
X97710300Y-81626500D01*
X96810122Y-81626500D01*
X96742001Y-81606498D01*
X96693713Y-81548718D01*
X96649534Y-81442060D01*
X96649532Y-81442056D01*
X96647639Y-81437486D01*
X96515349Y-81221608D01*
X96512138Y-81217848D01*
X96512134Y-81217843D01*
X96354130Y-81032845D01*
X96350917Y-81029083D01*
X96285872Y-80973529D01*
X96162157Y-80867866D01*
X96162152Y-80867862D01*
X96158392Y-80864651D01*
X95942514Y-80732361D01*
X95937944Y-80730468D01*
X95937940Y-80730466D01*
X95713172Y-80637364D01*
X95713170Y-80637363D01*
X95708599Y-80635470D01*
X95623894Y-80615134D01*
X95467220Y-80577520D01*
X95467214Y-80577519D01*
X95462407Y-80576365D01*
X95210000Y-80556500D01*
X94957593Y-80576365D01*
X94952786Y-80577519D01*
X94952780Y-80577520D01*
X94796106Y-80615134D01*
X94711401Y-80635470D01*
X94706830Y-80637363D01*
X94706828Y-80637364D01*
X94482060Y-80730466D01*
X94482056Y-80730468D01*
X94477486Y-80732361D01*
X94261608Y-80864651D01*
X94257848Y-80867862D01*
X94257843Y-80867866D01*
X94134128Y-80973529D01*
X94069083Y-81029083D01*
X94065870Y-81032845D01*
X93907866Y-81217843D01*
X93907862Y-81217848D01*
X93904651Y-81221608D01*
X93772361Y-81437486D01*
X93770468Y-81442056D01*
X93770466Y-81442060D01*
X93690837Y-81634302D01*
X93675470Y-81671401D01*
X93616365Y-81917593D01*
X93596500Y-82170000D01*
X93616365Y-82422407D01*
X93617519Y-82427214D01*
X93617520Y-82427220D01*
X93646267Y-82546960D01*
X93675470Y-82668599D01*
X93677363Y-82673170D01*
X93677364Y-82673172D01*
X93724635Y-82787293D01*
X93732224Y-82857882D01*
X93700445Y-82921369D01*
X93639387Y-82957597D01*
X93608226Y-82961511D01*
X90020316Y-82961511D01*
X89952195Y-82941509D01*
X89931221Y-82924606D01*
X87820405Y-80813791D01*
X87786380Y-80751479D01*
X87783500Y-80724696D01*
X87783500Y-78468191D01*
X87803502Y-78400070D01*
X87857158Y-78353577D01*
X87927432Y-78343473D01*
X87992012Y-78372967D01*
X87998595Y-78379096D01*
X88125698Y-78506199D01*
X88130208Y-78509357D01*
X88130214Y-78509362D01*
X88282306Y-78615857D01*
X88326635Y-78671314D01*
X88335744Y-78727639D01*
X88334704Y-78742901D01*
X88332445Y-78776033D01*
X88333750Y-78783509D01*
X88333750Y-78783515D01*
X88343019Y-78836626D01*
X88343982Y-78843148D01*
X88351374Y-78904229D01*
X88354058Y-78911332D01*
X88355260Y-78916226D01*
X88358117Y-78926669D01*
X88359580Y-78931515D01*
X88360886Y-78938998D01*
X88363939Y-78945954D01*
X88363940Y-78945956D01*
X88385615Y-78995335D01*
X88388107Y-79001440D01*
X88409849Y-79058978D01*
X88414152Y-79065238D01*
X88416519Y-79069766D01*
X88421754Y-79079171D01*
X88424327Y-79083522D01*
X88427379Y-79090475D01*
X88432001Y-79096498D01*
X88432003Y-79096502D01*
X88464844Y-79139302D01*
X88468713Y-79144627D01*
X88503549Y-79195312D01*
X88538991Y-79226890D01*
X88548071Y-79234980D01*
X88553347Y-79239961D01*
X89627064Y-80313679D01*
X89632918Y-80319945D01*
X89669304Y-80361655D01*
X89719627Y-80397022D01*
X89724912Y-80400948D01*
X89767357Y-80434229D01*
X89767361Y-80434231D01*
X89773338Y-80438918D01*
X89780261Y-80442044D01*
X89784554Y-80444644D01*
X89794020Y-80450043D01*
X89798437Y-80452411D01*
X89804649Y-80456777D01*
X89820195Y-80462838D01*
X89861961Y-80479122D01*
X89868042Y-80481678D01*
X89874044Y-80484388D01*
X89924110Y-80506994D01*
X89931582Y-80508379D01*
X89936383Y-80509883D01*
X89946825Y-80512858D01*
X89951694Y-80514108D01*
X89958777Y-80516870D01*
X89966312Y-80517862D01*
X90019798Y-80524904D01*
X90026286Y-80525931D01*
X90086768Y-80537140D01*
X90094349Y-80536703D01*
X90094350Y-80536703D01*
X90146277Y-80533709D01*
X90153530Y-80533500D01*
X93342263Y-80533500D01*
X93350832Y-80533792D01*
X93398457Y-80537039D01*
X93398461Y-80537039D01*
X93406033Y-80537555D01*
X93413510Y-80536250D01*
X93413512Y-80536250D01*
X93451141Y-80529683D01*
X93466629Y-80526979D01*
X93473114Y-80526022D01*
X93534230Y-80518626D01*
X93541336Y-80515941D01*
X93546226Y-80514740D01*
X93556688Y-80511878D01*
X93561520Y-80510419D01*
X93568998Y-80509114D01*
X93575947Y-80506064D01*
X93575956Y-80506061D01*
X93625330Y-80484388D01*
X93631433Y-80481897D01*
X93681869Y-80462838D01*
X93681871Y-80462837D01*
X93688979Y-80460151D01*
X93695244Y-80455845D01*
X93699737Y-80453496D01*
X93709181Y-80448240D01*
X93713521Y-80445674D01*
X93720475Y-80442621D01*
X93731412Y-80434229D01*
X93769284Y-80405168D01*
X93774622Y-80401290D01*
X93819054Y-80370753D01*
X93819056Y-80370752D01*
X93825313Y-80366451D01*
X93843475Y-80346067D01*
X93864986Y-80321923D01*
X93869967Y-80316647D01*
X95895094Y-78291521D01*
X96672269Y-78291521D01*
X96719761Y-78468762D01*
X96723507Y-78479054D01*
X96815583Y-78676513D01*
X96821066Y-78686009D01*
X96946025Y-78864469D01*
X96953081Y-78872877D01*
X97107123Y-79026919D01*
X97115531Y-79033975D01*
X97293991Y-79158934D01*
X97303487Y-79164417D01*
X97500943Y-79256491D01*
X97511239Y-79260239D01*
X97683503Y-79306398D01*
X97697599Y-79306062D01*
X97701000Y-79298120D01*
X97701000Y-79292971D01*
X98208999Y-79292971D01*
X98212972Y-79306502D01*
X98221521Y-79307731D01*
X98398762Y-79260239D01*
X98409054Y-79256493D01*
X98606513Y-79164417D01*
X98616009Y-79158934D01*
X98794469Y-79033975D01*
X98802877Y-79026919D01*
X98956919Y-78872877D01*
X98963975Y-78864469D01*
X99088934Y-78686009D01*
X99094417Y-78676513D01*
X99186491Y-78479057D01*
X99190239Y-78468761D01*
X99236398Y-78296497D01*
X99236062Y-78282401D01*
X99228120Y-78279000D01*
X98227115Y-78278999D01*
X98211876Y-78283474D01*
X98210671Y-78284864D01*
X98209000Y-78292547D01*
X98208999Y-79292971D01*
X97701000Y-79292971D01*
X97701001Y-78297115D01*
X97696526Y-78281876D01*
X97695136Y-78280671D01*
X97687453Y-78279000D01*
X96687029Y-78278999D01*
X96673498Y-78282972D01*
X96672269Y-78291521D01*
X95895094Y-78291521D01*
X96462443Y-77724172D01*
X96524755Y-77690146D01*
X96595571Y-77695211D01*
X96655885Y-77742643D01*
X96672301Y-77766898D01*
X96681880Y-77771000D01*
X97700998Y-77771001D01*
X97701004Y-77771000D01*
X99222971Y-77771001D01*
X99236502Y-77767028D01*
X99237731Y-77758479D01*
X99190239Y-77581238D01*
X99186493Y-77570946D01*
X99094417Y-77373487D01*
X99088934Y-77363991D01*
X98963975Y-77185531D01*
X98956919Y-77177123D01*
X98938391Y-77158595D01*
X98904365Y-77096283D01*
X98909430Y-77025468D01*
X98951977Y-76968632D01*
X99018497Y-76943821D01*
X99027486Y-76943500D01*
X104501809Y-76943500D01*
X104569930Y-76963502D01*
G37*
G04 #@! TD.AperFunction*
G04 #@! TA.AperFunction,Conductor*
G36*
X111058959Y-69385342D02*
G01*
X111104195Y-69437546D01*
X111120150Y-69471763D01*
X111120153Y-69471768D01*
X111122476Y-69476750D01*
X111125632Y-69481257D01*
X111125633Y-69481259D01*
X111247232Y-69654920D01*
X111253801Y-69664302D01*
X111415698Y-69826199D01*
X111420206Y-69829356D01*
X111420209Y-69829358D01*
X111588294Y-69947052D01*
X111603250Y-69957524D01*
X111608232Y-69959847D01*
X111608237Y-69959850D01*
X111746561Y-70024351D01*
X111810757Y-70054286D01*
X111816065Y-70055708D01*
X111816067Y-70055709D01*
X112026598Y-70112121D01*
X112026600Y-70112121D01*
X112031913Y-70113545D01*
X112260000Y-70133500D01*
X112488087Y-70113545D01*
X112493685Y-70112045D01*
X112495780Y-70111484D01*
X112496867Y-70111510D01*
X112498817Y-70111166D01*
X112498886Y-70111558D01*
X112566756Y-70113176D01*
X112617482Y-70144097D01*
X113744611Y-71271226D01*
X113778637Y-71333538D01*
X113773572Y-71404353D01*
X113769711Y-71413570D01*
X113743039Y-71470769D01*
X113743037Y-71470775D01*
X113740714Y-71475757D01*
X113739292Y-71481065D01*
X113739291Y-71481067D01*
X113687099Y-71675848D01*
X113681455Y-71696913D01*
X113661500Y-71925000D01*
X113681455Y-72153087D01*
X113682879Y-72158400D01*
X113682879Y-72158402D01*
X113738757Y-72366938D01*
X113740714Y-72374243D01*
X113743036Y-72379224D01*
X113743037Y-72379225D01*
X113835150Y-72576763D01*
X113835153Y-72576768D01*
X113837476Y-72581750D01*
X113840632Y-72586257D01*
X113840633Y-72586259D01*
X113963449Y-72761658D01*
X113968801Y-72769302D01*
X114130698Y-72931199D01*
X114135208Y-72934357D01*
X114135214Y-72934362D01*
X114237770Y-73006172D01*
X114282099Y-73061629D01*
X114291500Y-73109385D01*
X114291500Y-73587263D01*
X114291208Y-73595832D01*
X114288546Y-73634886D01*
X114287445Y-73651033D01*
X114288750Y-73658509D01*
X114288750Y-73658515D01*
X114298019Y-73711626D01*
X114298982Y-73718148D01*
X114301389Y-73738037D01*
X114306374Y-73779229D01*
X114309058Y-73786332D01*
X114310260Y-73791226D01*
X114313117Y-73801669D01*
X114314580Y-73806515D01*
X114315886Y-73813998D01*
X114318939Y-73820954D01*
X114318940Y-73820956D01*
X114340615Y-73870335D01*
X114343107Y-73876440D01*
X114364849Y-73933978D01*
X114369152Y-73940238D01*
X114371519Y-73944766D01*
X114376754Y-73954171D01*
X114379327Y-73958522D01*
X114382379Y-73965475D01*
X114387001Y-73971498D01*
X114387003Y-73971502D01*
X114419844Y-74014302D01*
X114423713Y-74019627D01*
X114458549Y-74070312D01*
X114464225Y-74075369D01*
X114503062Y-74109972D01*
X114508339Y-74114953D01*
X115270075Y-74876690D01*
X115304100Y-74939002D01*
X115306918Y-74965219D01*
X115306500Y-74970000D01*
X115326455Y-75198087D01*
X115327879Y-75203400D01*
X115327879Y-75203402D01*
X115353440Y-75298794D01*
X115385714Y-75419243D01*
X115388036Y-75424224D01*
X115388037Y-75424225D01*
X115480150Y-75621763D01*
X115480153Y-75621768D01*
X115482476Y-75626750D01*
X115485632Y-75631257D01*
X115485633Y-75631259D01*
X115597327Y-75790774D01*
X115613801Y-75814302D01*
X115775698Y-75976199D01*
X115780206Y-75979356D01*
X115780209Y-75979358D01*
X115958741Y-76104367D01*
X115963250Y-76107524D01*
X115968232Y-76109847D01*
X115968237Y-76109850D01*
X116165775Y-76201963D01*
X116170757Y-76204286D01*
X116176065Y-76205708D01*
X116176067Y-76205709D01*
X116386598Y-76262121D01*
X116386600Y-76262121D01*
X116391913Y-76263545D01*
X116620000Y-76283500D01*
X116848087Y-76263545D01*
X116853400Y-76262121D01*
X116853402Y-76262121D01*
X117063933Y-76205709D01*
X117063935Y-76205708D01*
X117069243Y-76204286D01*
X117074225Y-76201963D01*
X117271763Y-76109850D01*
X117271768Y-76109847D01*
X117276750Y-76107524D01*
X117283500Y-76102798D01*
X117380508Y-76034872D01*
X117447782Y-76012184D01*
X117516643Y-76029469D01*
X117566974Y-76084835D01*
X117574171Y-76100269D01*
X117640150Y-76241763D01*
X117640153Y-76241768D01*
X117642476Y-76246750D01*
X117645632Y-76251257D01*
X117645633Y-76251259D01*
X117743747Y-76391380D01*
X117773801Y-76434302D01*
X117935698Y-76596199D01*
X117940206Y-76599356D01*
X117940209Y-76599358D01*
X118110635Y-76718691D01*
X118123250Y-76727524D01*
X118128232Y-76729847D01*
X118128237Y-76729850D01*
X118237512Y-76780805D01*
X118290797Y-76827722D01*
X118310258Y-76895999D01*
X118289716Y-76963959D01*
X118237512Y-77009195D01*
X118208657Y-77022650D01*
X118128237Y-77060150D01*
X118128232Y-77060153D01*
X118123250Y-77062476D01*
X118118743Y-77065632D01*
X118118741Y-77065633D01*
X117940209Y-77190642D01*
X117940206Y-77190644D01*
X117935698Y-77193801D01*
X117854942Y-77274557D01*
X117792630Y-77308583D01*
X117721815Y-77303518D01*
X117662634Y-77257733D01*
X117626199Y-77205698D01*
X117464302Y-77043801D01*
X117459794Y-77040644D01*
X117459791Y-77040642D01*
X117281259Y-76915633D01*
X117281257Y-76915632D01*
X117276750Y-76912476D01*
X117271768Y-76910153D01*
X117271763Y-76910150D01*
X117074225Y-76818037D01*
X117074224Y-76818036D01*
X117069243Y-76815714D01*
X117063935Y-76814292D01*
X117063933Y-76814291D01*
X116853402Y-76757879D01*
X116853400Y-76757879D01*
X116848087Y-76756455D01*
X116620000Y-76736500D01*
X116391913Y-76756455D01*
X116386600Y-76757879D01*
X116386598Y-76757879D01*
X116176067Y-76814291D01*
X116176065Y-76814292D01*
X116170757Y-76815714D01*
X116165776Y-76818036D01*
X116165775Y-76818037D01*
X115968237Y-76910150D01*
X115968232Y-76910153D01*
X115963250Y-76912476D01*
X115958743Y-76915632D01*
X115958741Y-76915633D01*
X115780209Y-77040642D01*
X115780206Y-77040644D01*
X115775698Y-77043801D01*
X115613801Y-77205698D01*
X115610645Y-77210205D01*
X115610642Y-77210209D01*
X115485633Y-77388741D01*
X115482476Y-77393250D01*
X115480153Y-77398232D01*
X115480150Y-77398237D01*
X115390800Y-77589849D01*
X115385714Y-77600757D01*
X115384292Y-77606065D01*
X115384291Y-77606067D01*
X115327879Y-77816598D01*
X115326455Y-77821913D01*
X115306500Y-78050000D01*
X115326455Y-78278087D01*
X115327879Y-78283400D01*
X115327879Y-78283402D01*
X115377547Y-78468762D01*
X115385714Y-78499243D01*
X115388036Y-78504224D01*
X115388037Y-78504225D01*
X115480150Y-78701763D01*
X115480153Y-78701768D01*
X115482476Y-78706750D01*
X115485632Y-78711257D01*
X115485633Y-78711259D01*
X115610642Y-78889790D01*
X115613801Y-78894302D01*
X115775698Y-79056199D01*
X115780206Y-79059356D01*
X115780209Y-79059358D01*
X115958741Y-79184367D01*
X115963250Y-79187524D01*
X115968232Y-79189847D01*
X115968237Y-79189850D01*
X116165775Y-79281963D01*
X116170757Y-79284286D01*
X116176065Y-79285708D01*
X116176067Y-79285709D01*
X116386598Y-79342121D01*
X116386600Y-79342121D01*
X116391913Y-79343545D01*
X116620000Y-79363500D01*
X116848087Y-79343545D01*
X116853400Y-79342121D01*
X116853402Y-79342121D01*
X117063933Y-79285709D01*
X117063935Y-79285708D01*
X117069243Y-79284286D01*
X117074225Y-79281963D01*
X117271763Y-79189850D01*
X117271768Y-79189847D01*
X117276750Y-79187524D01*
X117281259Y-79184367D01*
X117459791Y-79059358D01*
X117459794Y-79059356D01*
X117464302Y-79056199D01*
X117545058Y-78975443D01*
X117607370Y-78941417D01*
X117678185Y-78946482D01*
X117737366Y-78992267D01*
X117773801Y-79044302D01*
X117935698Y-79206199D01*
X117940206Y-79209356D01*
X117940209Y-79209358D01*
X118066975Y-79298120D01*
X118123250Y-79337524D01*
X118128232Y-79339847D01*
X118128237Y-79339850D01*
X118178956Y-79363500D01*
X118214637Y-79380138D01*
X118216067Y-79380805D01*
X118269352Y-79427722D01*
X118288813Y-79495999D01*
X118268271Y-79563959D01*
X118216068Y-79609194D01*
X118189213Y-79621717D01*
X118128237Y-79650150D01*
X118128232Y-79650153D01*
X118123250Y-79652476D01*
X118118743Y-79655632D01*
X118118741Y-79655633D01*
X117940209Y-79780642D01*
X117940206Y-79780644D01*
X117935698Y-79783801D01*
X117773801Y-79945698D01*
X117770644Y-79950206D01*
X117770642Y-79950209D01*
X117653214Y-80117914D01*
X117642476Y-80133250D01*
X117640153Y-80138232D01*
X117640150Y-80138237D01*
X117548394Y-80335009D01*
X117545714Y-80340757D01*
X117544292Y-80346065D01*
X117544291Y-80346067D01*
X117495967Y-80526415D01*
X117486455Y-80561913D01*
X117466500Y-80790000D01*
X117486455Y-81018087D01*
X117487879Y-81023400D01*
X117487879Y-81023402D01*
X117542119Y-81225825D01*
X117545714Y-81239243D01*
X117548036Y-81244224D01*
X117548037Y-81244225D01*
X117640150Y-81441763D01*
X117640153Y-81441768D01*
X117642476Y-81446750D01*
X117645632Y-81451257D01*
X117645633Y-81451259D01*
X117685524Y-81508229D01*
X117708212Y-81575503D01*
X117690927Y-81644364D01*
X117639157Y-81692948D01*
X117582311Y-81706500D01*
X117035305Y-81706500D01*
X116967184Y-81686498D01*
X116946210Y-81669595D01*
X112862943Y-77586329D01*
X112857089Y-77580063D01*
X112825692Y-77544072D01*
X112820696Y-77538345D01*
X112770360Y-77502968D01*
X112765074Y-77499042D01*
X112757367Y-77493000D01*
X112716661Y-77461082D01*
X112709732Y-77457954D01*
X112705380Y-77455318D01*
X112696030Y-77449985D01*
X112691566Y-77447591D01*
X112685351Y-77443223D01*
X112678276Y-77440464D01*
X112678273Y-77440463D01*
X112628032Y-77420875D01*
X112621951Y-77418319D01*
X112572813Y-77396132D01*
X112572811Y-77396131D01*
X112565889Y-77393006D01*
X112558420Y-77391622D01*
X112553574Y-77390103D01*
X112543163Y-77387138D01*
X112538301Y-77385890D01*
X112531223Y-77383130D01*
X112500076Y-77379030D01*
X112470206Y-77375097D01*
X112463692Y-77374065D01*
X112410700Y-77364244D01*
X112410698Y-77364244D01*
X112403231Y-77362860D01*
X112395650Y-77363297D01*
X112395649Y-77363297D01*
X112343723Y-77366291D01*
X112336470Y-77366500D01*
X110184384Y-77366500D01*
X110116263Y-77346498D01*
X110081171Y-77312770D01*
X110009358Y-77210210D01*
X110006199Y-77205698D01*
X109844302Y-77043801D01*
X109839794Y-77040644D01*
X109839791Y-77040642D01*
X109717229Y-76954823D01*
X109672901Y-76899366D01*
X109663500Y-76851610D01*
X109663500Y-76168390D01*
X109683502Y-76100269D01*
X109717229Y-76065177D01*
X109839791Y-75979358D01*
X109839794Y-75979356D01*
X109844302Y-75976199D01*
X110006199Y-75814302D01*
X110022674Y-75790774D01*
X110134367Y-75631259D01*
X110134368Y-75631257D01*
X110137524Y-75626750D01*
X110139847Y-75621768D01*
X110139850Y-75621763D01*
X110231963Y-75424225D01*
X110231964Y-75424224D01*
X110234286Y-75419243D01*
X110266561Y-75298794D01*
X110292121Y-75203402D01*
X110292121Y-75203400D01*
X110293545Y-75198087D01*
X110313500Y-74970000D01*
X110293545Y-74741913D01*
X110291484Y-74734220D01*
X110291510Y-74733133D01*
X110291166Y-74731183D01*
X110291558Y-74731114D01*
X110293176Y-74663244D01*
X110324097Y-74612518D01*
X110438679Y-74497936D01*
X110444945Y-74492082D01*
X110463638Y-74475775D01*
X110486655Y-74455696D01*
X110506865Y-74426941D01*
X110522025Y-74405371D01*
X110525956Y-74400078D01*
X110559229Y-74357642D01*
X110559232Y-74357637D01*
X110563917Y-74351662D01*
X110567042Y-74344740D01*
X110569660Y-74340418D01*
X110575020Y-74331021D01*
X110577408Y-74326568D01*
X110581777Y-74320351D01*
X110584535Y-74313277D01*
X110584541Y-74313266D01*
X110604136Y-74263008D01*
X110606691Y-74256929D01*
X110628868Y-74207812D01*
X110628869Y-74207809D01*
X110631993Y-74200890D01*
X110633377Y-74193423D01*
X110634891Y-74188592D01*
X110637863Y-74178162D01*
X110639112Y-74173298D01*
X110641870Y-74166223D01*
X110645037Y-74142172D01*
X110649904Y-74105200D01*
X110650936Y-74098685D01*
X110660756Y-74045700D01*
X110662140Y-74038232D01*
X110661141Y-74020895D01*
X110658709Y-73978723D01*
X110658500Y-73971470D01*
X110658500Y-73109384D01*
X110678502Y-73041263D01*
X110712230Y-73006171D01*
X110794455Y-72948597D01*
X110819302Y-72931199D01*
X110981199Y-72769302D01*
X110986552Y-72761658D01*
X111109367Y-72586259D01*
X111109368Y-72586257D01*
X111112524Y-72581750D01*
X111114847Y-72576768D01*
X111114850Y-72576763D01*
X111206963Y-72379225D01*
X111206964Y-72379224D01*
X111209286Y-72374243D01*
X111211244Y-72366938D01*
X111267121Y-72158402D01*
X111267121Y-72158400D01*
X111268545Y-72153087D01*
X111288500Y-71925000D01*
X111268545Y-71696913D01*
X111262901Y-71675848D01*
X111210709Y-71481067D01*
X111210708Y-71481065D01*
X111209286Y-71475757D01*
X111206960Y-71470769D01*
X111114850Y-71273237D01*
X111114847Y-71273232D01*
X111112524Y-71268250D01*
X111109367Y-71263741D01*
X110984358Y-71085209D01*
X110984356Y-71085206D01*
X110981199Y-71080698D01*
X110819302Y-70918801D01*
X110814794Y-70915644D01*
X110814791Y-70915642D01*
X110636259Y-70790633D01*
X110636257Y-70790632D01*
X110631750Y-70787476D01*
X110626768Y-70785153D01*
X110626763Y-70785150D01*
X110476250Y-70714965D01*
X110422965Y-70668048D01*
X110403500Y-70600770D01*
X110403500Y-70004384D01*
X110423502Y-69936263D01*
X110457230Y-69901171D01*
X110474931Y-69888777D01*
X110564302Y-69826199D01*
X110726199Y-69664302D01*
X110732769Y-69654920D01*
X110854367Y-69481259D01*
X110854368Y-69481257D01*
X110857524Y-69476750D01*
X110859847Y-69471768D01*
X110859850Y-69471763D01*
X110875805Y-69437546D01*
X110922722Y-69384261D01*
X110990999Y-69364800D01*
X111058959Y-69385342D01*
G37*
G04 #@! TD.AperFunction*
G04 #@! TA.AperFunction,Conductor*
G36*
X90895832Y-68768792D02*
G01*
X90943457Y-68772039D01*
X90943461Y-68772039D01*
X90951033Y-68772555D01*
X90958509Y-68771250D01*
X90958514Y-68771250D01*
X90965491Y-68770032D01*
X91036036Y-68778025D01*
X91091062Y-68822889D01*
X91113096Y-68890379D01*
X91095145Y-68959069D01*
X91076248Y-68983251D01*
X91023801Y-69035698D01*
X91020644Y-69040206D01*
X91020642Y-69040209D01*
X90898191Y-69215088D01*
X90892476Y-69223250D01*
X90890153Y-69228232D01*
X90890150Y-69228237D01*
X90808426Y-69403496D01*
X90795714Y-69430757D01*
X90794292Y-69436065D01*
X90794291Y-69436067D01*
X90738516Y-69644220D01*
X90736455Y-69651913D01*
X90716500Y-69880000D01*
X90736455Y-70108087D01*
X90795714Y-70329243D01*
X90798036Y-70334224D01*
X90798037Y-70334225D01*
X90890150Y-70531763D01*
X90890153Y-70531768D01*
X90892476Y-70536750D01*
X90895632Y-70541257D01*
X90895633Y-70541259D01*
X91015774Y-70712838D01*
X91023801Y-70724302D01*
X91185698Y-70886199D01*
X91190208Y-70889357D01*
X91190214Y-70889362D01*
X91292770Y-70961172D01*
X91337099Y-71016629D01*
X91346500Y-71064385D01*
X91346500Y-71454695D01*
X91326498Y-71522816D01*
X91309595Y-71543790D01*
X88546322Y-74307064D01*
X88540056Y-74312918D01*
X88498346Y-74349304D01*
X88462964Y-74399647D01*
X88459058Y-74404907D01*
X88421082Y-74453339D01*
X88417957Y-74460260D01*
X88415341Y-74464580D01*
X88410002Y-74473940D01*
X88407593Y-74478433D01*
X88403224Y-74484649D01*
X88389216Y-74520579D01*
X88380882Y-74541953D01*
X88378326Y-74548032D01*
X88356131Y-74597189D01*
X88353006Y-74604111D01*
X88351623Y-74611574D01*
X88350114Y-74616388D01*
X88347145Y-74626812D01*
X88345890Y-74631701D01*
X88343131Y-74638777D01*
X88340866Y-74655980D01*
X88335100Y-74699779D01*
X88334070Y-74706282D01*
X88322860Y-74766769D01*
X88323297Y-74774350D01*
X88323297Y-74774351D01*
X88326292Y-74826294D01*
X88326501Y-74833547D01*
X88326500Y-76287607D01*
X88306498Y-76355728D01*
X88272770Y-76390820D01*
X88130214Y-76490638D01*
X88130208Y-76490643D01*
X88125698Y-76493801D01*
X87998595Y-76620904D01*
X87936283Y-76654930D01*
X87865468Y-76649865D01*
X87808632Y-76607318D01*
X87783821Y-76540798D01*
X87783500Y-76531809D01*
X87783500Y-70847486D01*
X87803502Y-70779365D01*
X87857158Y-70732872D01*
X87927432Y-70722768D01*
X87992012Y-70752262D01*
X87998595Y-70758391D01*
X88122123Y-70881919D01*
X88130531Y-70888975D01*
X88308991Y-71013934D01*
X88318487Y-71019417D01*
X88515943Y-71111491D01*
X88526239Y-71115239D01*
X88698503Y-71161398D01*
X88712599Y-71161062D01*
X88716000Y-71153120D01*
X88716000Y-71147971D01*
X89223999Y-71147971D01*
X89227972Y-71161502D01*
X89236521Y-71162731D01*
X89413762Y-71115239D01*
X89424054Y-71111493D01*
X89621513Y-71019417D01*
X89631009Y-71013934D01*
X89809469Y-70888975D01*
X89817877Y-70881919D01*
X89971919Y-70727877D01*
X89978975Y-70719469D01*
X90103934Y-70541009D01*
X90109417Y-70531513D01*
X90201491Y-70334057D01*
X90205239Y-70323761D01*
X90251398Y-70151497D01*
X90251062Y-70137401D01*
X90243120Y-70134000D01*
X89242115Y-70133999D01*
X89226876Y-70138474D01*
X89225671Y-70139864D01*
X89224000Y-70147547D01*
X89223999Y-71147971D01*
X88716000Y-71147971D01*
X88716001Y-70134000D01*
X88716000Y-70133996D01*
X88716001Y-69752000D01*
X88736003Y-69683879D01*
X88789659Y-69637386D01*
X88842001Y-69626000D01*
X90237971Y-69626001D01*
X90251502Y-69622028D01*
X90252731Y-69613479D01*
X90205239Y-69436238D01*
X90201493Y-69425946D01*
X90109417Y-69228487D01*
X90103934Y-69218991D01*
X89978975Y-69040531D01*
X89971919Y-69032123D01*
X89923391Y-68983595D01*
X89889365Y-68921283D01*
X89894430Y-68850468D01*
X89936977Y-68793632D01*
X90003497Y-68768821D01*
X90012486Y-68768500D01*
X90887263Y-68768500D01*
X90895832Y-68768792D01*
G37*
G04 #@! TD.AperFunction*
G04 #@! TA.AperFunction,Conductor*
G36*
X116298951Y-68465565D02*
G01*
X117018860Y-69185475D01*
X117736424Y-69903039D01*
X117770450Y-69965351D01*
X117772850Y-70003115D01*
X117757699Y-70176290D01*
X117756500Y-70190000D01*
X117776455Y-70418087D01*
X117777879Y-70423400D01*
X117777879Y-70423402D01*
X117830760Y-70620753D01*
X117835714Y-70639243D01*
X117838036Y-70644224D01*
X117838037Y-70644225D01*
X117930150Y-70841763D01*
X117930153Y-70841768D01*
X117932476Y-70846750D01*
X117935632Y-70851257D01*
X117935633Y-70851259D01*
X118060642Y-71029790D01*
X118063801Y-71034302D01*
X118225698Y-71196199D01*
X118230206Y-71199356D01*
X118230209Y-71199358D01*
X118389768Y-71311082D01*
X118413250Y-71327524D01*
X118418232Y-71329847D01*
X118418237Y-71329850D01*
X118578010Y-71404353D01*
X118620757Y-71424286D01*
X118626064Y-71425708D01*
X118626075Y-71425712D01*
X118707440Y-71447514D01*
X118768062Y-71484465D01*
X118799084Y-71548326D01*
X118790654Y-71618821D01*
X118745451Y-71673567D01*
X118685810Y-71694741D01*
X118629911Y-71699631D01*
X118557394Y-71705975D01*
X118557389Y-71705976D01*
X118551913Y-71706455D01*
X118546600Y-71707879D01*
X118546598Y-71707879D01*
X118336067Y-71764291D01*
X118336065Y-71764292D01*
X118330757Y-71765714D01*
X118325776Y-71768036D01*
X118325775Y-71768037D01*
X118128237Y-71860150D01*
X118128232Y-71860153D01*
X118123250Y-71862476D01*
X118118743Y-71865632D01*
X118118741Y-71865633D01*
X117940209Y-71990642D01*
X117940206Y-71990644D01*
X117935698Y-71993801D01*
X117773801Y-72155698D01*
X117770644Y-72160206D01*
X117770642Y-72160209D01*
X117648069Y-72335262D01*
X117642476Y-72343250D01*
X117640153Y-72348232D01*
X117640150Y-72348237D01*
X117548037Y-72545775D01*
X117545714Y-72550757D01*
X117544292Y-72556065D01*
X117544291Y-72556067D01*
X117495062Y-72739791D01*
X117486455Y-72771913D01*
X117466500Y-73000000D01*
X117486455Y-73228087D01*
X117487880Y-73233405D01*
X117488516Y-73235780D01*
X117488490Y-73236867D01*
X117488834Y-73238817D01*
X117488442Y-73238886D01*
X117486824Y-73306756D01*
X117455903Y-73357482D01*
X117127330Y-73686055D01*
X117065018Y-73720081D01*
X117005624Y-73718667D01*
X116853402Y-73677879D01*
X116853400Y-73677879D01*
X116848087Y-73676455D01*
X116620000Y-73656500D01*
X116391913Y-73676455D01*
X116386600Y-73677879D01*
X116386598Y-73677879D01*
X116176066Y-73734291D01*
X116176061Y-73734293D01*
X116170757Y-73735714D01*
X116166735Y-73737590D01*
X116096206Y-73742069D01*
X116034875Y-73708261D01*
X115695405Y-73368791D01*
X115661379Y-73306479D01*
X115658500Y-73279696D01*
X115658500Y-73109384D01*
X115678502Y-73041263D01*
X115712230Y-73006171D01*
X115794455Y-72948597D01*
X115819302Y-72931199D01*
X115981199Y-72769302D01*
X115986552Y-72761658D01*
X116109367Y-72586259D01*
X116109368Y-72586257D01*
X116112524Y-72581750D01*
X116114847Y-72576768D01*
X116114850Y-72576763D01*
X116206963Y-72379225D01*
X116206964Y-72379224D01*
X116209286Y-72374243D01*
X116211244Y-72366938D01*
X116267121Y-72158402D01*
X116267121Y-72158400D01*
X116268545Y-72153087D01*
X116288500Y-71925000D01*
X116268545Y-71696913D01*
X116262901Y-71675848D01*
X116210709Y-71481067D01*
X116210708Y-71481065D01*
X116209286Y-71475757D01*
X116206960Y-71470769D01*
X116114850Y-71273237D01*
X116114847Y-71273232D01*
X116112524Y-71268250D01*
X116109367Y-71263741D01*
X115984358Y-71085209D01*
X115984356Y-71085206D01*
X115981199Y-71080698D01*
X115819302Y-70918801D01*
X115814794Y-70915644D01*
X115814791Y-70915642D01*
X115636259Y-70790633D01*
X115636257Y-70790632D01*
X115631750Y-70787476D01*
X115626768Y-70785153D01*
X115626763Y-70785150D01*
X115429225Y-70693037D01*
X115429224Y-70693036D01*
X115424243Y-70690714D01*
X115418935Y-70689292D01*
X115418933Y-70689291D01*
X115330942Y-70665714D01*
X115203087Y-70631455D01*
X115067934Y-70619631D01*
X115001815Y-70593768D01*
X114989820Y-70583205D01*
X114582905Y-70176290D01*
X114548879Y-70113978D01*
X114546083Y-70087971D01*
X115053999Y-70087971D01*
X115057972Y-70101502D01*
X115066521Y-70102731D01*
X115243762Y-70055239D01*
X115254054Y-70051493D01*
X115451513Y-69959417D01*
X115461009Y-69953934D01*
X115639469Y-69828975D01*
X115647877Y-69821919D01*
X115801919Y-69667877D01*
X115808975Y-69659469D01*
X115933934Y-69481009D01*
X115939417Y-69471513D01*
X116031491Y-69274057D01*
X116035239Y-69263761D01*
X116081398Y-69091497D01*
X116081062Y-69077401D01*
X116073120Y-69074000D01*
X115072115Y-69073999D01*
X115056876Y-69078474D01*
X115055671Y-69079864D01*
X115054000Y-69087547D01*
X115053999Y-70087971D01*
X114546083Y-70087971D01*
X114546000Y-70087195D01*
X114546001Y-69074000D01*
X114546000Y-69073996D01*
X114546001Y-68692000D01*
X114566003Y-68623879D01*
X114619659Y-68577386D01*
X114672001Y-68566000D01*
X116067971Y-68566001D01*
X116081501Y-68562028D01*
X116085138Y-68536729D01*
X116114631Y-68472148D01*
X116174357Y-68433764D01*
X116245354Y-68433764D01*
X116298951Y-68465565D01*
G37*
G04 #@! TD.AperFunction*
G04 #@! TA.AperFunction,Conductor*
G36*
X88380687Y-53271075D02*
G01*
X88437523Y-53313622D01*
X88454657Y-53345298D01*
X88455714Y-53349243D01*
X88468604Y-53376885D01*
X88550150Y-53551763D01*
X88550153Y-53551768D01*
X88552476Y-53556750D01*
X88555632Y-53561257D01*
X88555633Y-53561259D01*
X88679126Y-53737625D01*
X88683801Y-53744302D01*
X88845698Y-53906199D01*
X88850206Y-53909356D01*
X88850209Y-53909358D01*
X89021155Y-54029055D01*
X89033250Y-54037524D01*
X89038232Y-54039847D01*
X89038237Y-54039850D01*
X89211510Y-54120648D01*
X89240757Y-54134286D01*
X89246065Y-54135708D01*
X89246067Y-54135709D01*
X89456598Y-54192121D01*
X89456600Y-54192121D01*
X89461913Y-54193545D01*
X89690000Y-54213500D01*
X89695475Y-54213021D01*
X89695476Y-54213021D01*
X89839520Y-54200419D01*
X89909124Y-54214408D01*
X89960117Y-54263808D01*
X89976501Y-54325940D01*
X89976500Y-56064525D01*
X89976500Y-57680500D01*
X89956498Y-57748621D01*
X89902842Y-57795114D01*
X89850500Y-57806500D01*
X89770000Y-57806500D01*
X89696921Y-57811727D01*
X89643884Y-57827300D01*
X89565330Y-57850365D01*
X89565328Y-57850366D01*
X89556684Y-57852904D01*
X89518528Y-57877426D01*
X89441309Y-57927051D01*
X89441306Y-57927053D01*
X89433729Y-57931923D01*
X89427828Y-57938733D01*
X89343918Y-58035569D01*
X89343916Y-58035572D01*
X89338016Y-58042381D01*
X89334272Y-58050579D01*
X89296526Y-58133232D01*
X89277300Y-58175330D01*
X89276018Y-58184245D01*
X89276018Y-58184246D01*
X89261334Y-58286378D01*
X89231841Y-58350959D01*
X89191398Y-58376950D01*
X89192861Y-58379733D01*
X89143570Y-58405641D01*
X88442021Y-59107189D01*
X88434408Y-59121132D01*
X88434539Y-59122966D01*
X88438790Y-59129580D01*
X89144294Y-59835083D01*
X89187621Y-59858741D01*
X89194182Y-59860168D01*
X89244390Y-59910364D01*
X89259488Y-59961772D01*
X89261727Y-59993079D01*
X89302904Y-60133316D01*
X89307775Y-60140895D01*
X89377051Y-60248691D01*
X89377053Y-60248694D01*
X89381923Y-60256271D01*
X89388733Y-60262172D01*
X89485569Y-60346082D01*
X89485572Y-60346084D01*
X89492381Y-60351984D01*
X89500579Y-60355728D01*
X89529074Y-60368741D01*
X89625330Y-60412700D01*
X89634245Y-60413982D01*
X89634246Y-60413982D01*
X89765552Y-60432861D01*
X89765559Y-60432862D01*
X89770000Y-60433500D01*
X91370000Y-60433500D01*
X91443079Y-60428273D01*
X91539369Y-60400000D01*
X91574670Y-60389635D01*
X91574672Y-60389634D01*
X91583316Y-60387096D01*
X91647135Y-60346082D01*
X91698691Y-60312949D01*
X91698694Y-60312947D01*
X91706271Y-60308077D01*
X91719535Y-60292770D01*
X91796082Y-60204431D01*
X91796084Y-60204428D01*
X91801984Y-60197619D01*
X91862700Y-60064670D01*
X91881603Y-59933194D01*
X91911096Y-59868613D01*
X91970822Y-59830229D01*
X92041819Y-59830229D01*
X92095416Y-59862030D01*
X93328233Y-61094847D01*
X93362259Y-61157159D01*
X93357194Y-61227974D01*
X93353333Y-61237192D01*
X93298037Y-61355775D01*
X93295714Y-61360757D01*
X93236455Y-61581913D01*
X93216500Y-61810000D01*
X93236455Y-62038087D01*
X93237878Y-62043398D01*
X93237879Y-62043402D01*
X93292193Y-62246101D01*
X93295714Y-62259243D01*
X93298036Y-62264224D01*
X93298037Y-62264225D01*
X93390150Y-62461763D01*
X93390153Y-62461768D01*
X93392476Y-62466750D01*
X93395632Y-62471257D01*
X93395633Y-62471259D01*
X93511577Y-62636844D01*
X93523801Y-62654302D01*
X93685698Y-62816199D01*
X93690206Y-62819356D01*
X93690209Y-62819358D01*
X93868741Y-62944367D01*
X93873250Y-62947524D01*
X93878237Y-62949849D01*
X93878243Y-62949853D01*
X93893752Y-62957085D01*
X93947037Y-63004002D01*
X93966501Y-63071279D01*
X93966501Y-64290893D01*
X93946499Y-64359014D01*
X93892843Y-64405507D01*
X93822569Y-64415611D01*
X93784773Y-64403899D01*
X93672299Y-64348433D01*
X93672296Y-64348432D01*
X93668111Y-64346368D01*
X93660911Y-64344063D01*
X93504324Y-64293939D01*
X93416350Y-64265778D01*
X93228070Y-64235115D01*
X93160054Y-64224038D01*
X93160053Y-64224038D01*
X93155442Y-64223287D01*
X93023281Y-64221557D01*
X92895797Y-64219888D01*
X92895794Y-64219888D01*
X92891120Y-64219827D01*
X92629189Y-64255474D01*
X92624703Y-64256782D01*
X92624701Y-64256782D01*
X92581740Y-64269304D01*
X92375405Y-64329445D01*
X92371152Y-64331405D01*
X92371151Y-64331406D01*
X92343696Y-64344063D01*
X92135342Y-64440116D01*
X92131437Y-64442676D01*
X92131432Y-64442679D01*
X91918187Y-64582488D01*
X91918182Y-64582492D01*
X91914274Y-64585054D01*
X91834808Y-64655980D01*
X91746840Y-64734495D01*
X91717057Y-64761077D01*
X91548025Y-64964316D01*
X91410890Y-65190308D01*
X91409081Y-65194622D01*
X91409080Y-65194624D01*
X91313766Y-65421923D01*
X91308665Y-65434087D01*
X91243595Y-65690298D01*
X91243127Y-65694949D01*
X91243126Y-65694953D01*
X91233839Y-65787190D01*
X91217111Y-65953313D01*
X91217335Y-65957979D01*
X91217335Y-65957984D01*
X91220484Y-66023531D01*
X91229794Y-66217354D01*
X91281365Y-66476620D01*
X91327128Y-66604080D01*
X91331322Y-66674950D01*
X91297635Y-66735751D01*
X90668791Y-67364595D01*
X90606479Y-67398621D01*
X90579696Y-67401500D01*
X89334663Y-67401500D01*
X89266542Y-67381498D01*
X89220049Y-67327842D01*
X89209945Y-67257568D01*
X89239931Y-67192423D01*
X89341285Y-67076850D01*
X89344366Y-67073337D01*
X89388118Y-67005318D01*
X89484842Y-66854943D01*
X89487370Y-66851013D01*
X89595942Y-66609993D01*
X89667696Y-66355573D01*
X89678894Y-66267547D01*
X89700658Y-66096472D01*
X89700658Y-66096466D01*
X89701056Y-66093341D01*
X89703500Y-66000000D01*
X89689888Y-65816826D01*
X89684256Y-65741034D01*
X89684255Y-65741030D01*
X89683910Y-65736382D01*
X89625570Y-65478555D01*
X89594466Y-65398572D01*
X89531454Y-65236536D01*
X89531453Y-65236534D01*
X89529761Y-65232183D01*
X89398589Y-65002679D01*
X89234934Y-64795085D01*
X89042393Y-64613960D01*
X88854610Y-64483690D01*
X88829037Y-64465949D01*
X88829034Y-64465947D01*
X88825195Y-64463284D01*
X88821005Y-64461218D01*
X88821002Y-64461216D01*
X88592299Y-64348433D01*
X88592296Y-64348432D01*
X88588111Y-64346368D01*
X88580911Y-64344063D01*
X88424324Y-64293939D01*
X88336350Y-64265778D01*
X88148070Y-64235115D01*
X88080054Y-64224038D01*
X88080053Y-64224038D01*
X88075442Y-64223287D01*
X87943281Y-64221557D01*
X87815797Y-64219888D01*
X87815794Y-64219888D01*
X87811120Y-64219827D01*
X87779531Y-64224126D01*
X87721480Y-64232026D01*
X87651284Y-64221393D01*
X87597980Y-64174496D01*
X87578489Y-64107177D01*
X87578489Y-60506652D01*
X87598491Y-60438531D01*
X87652147Y-60392038D01*
X87722421Y-60381934D01*
X87737101Y-60384945D01*
X87836690Y-60411630D01*
X87847477Y-60413532D01*
X88064525Y-60432521D01*
X88075475Y-60432521D01*
X88292523Y-60413532D01*
X88303310Y-60411630D01*
X88513761Y-60355239D01*
X88524057Y-60351491D01*
X88721513Y-60259417D01*
X88731008Y-60253934D01*
X88783050Y-60217494D01*
X88791426Y-60207015D01*
X88784358Y-60193569D01*
X87799885Y-59209095D01*
X87765859Y-59146783D01*
X87770924Y-59075967D01*
X87799885Y-59030905D01*
X88070000Y-58760790D01*
X88785079Y-58045710D01*
X88791509Y-58033935D01*
X88782213Y-58021920D01*
X88731008Y-57986066D01*
X88721513Y-57980583D01*
X88524057Y-57888509D01*
X88513761Y-57884761D01*
X88303310Y-57828370D01*
X88292523Y-57826468D01*
X88075475Y-57807479D01*
X88064525Y-57807479D01*
X87847477Y-57826468D01*
X87836690Y-57828370D01*
X87737101Y-57855055D01*
X87666124Y-57853365D01*
X87607328Y-57813571D01*
X87579380Y-57748307D01*
X87578489Y-57733348D01*
X87578489Y-54021297D01*
X87598491Y-53953176D01*
X87615394Y-53932202D01*
X87810819Y-53736777D01*
X88198014Y-53349583D01*
X88198018Y-53349578D01*
X88247560Y-53300036D01*
X88309872Y-53266010D01*
X88380687Y-53271075D01*
G37*
G04 #@! TD.AperFunction*
G04 #@! TA.AperFunction,Conductor*
G36*
X125382817Y-53833502D02*
G01*
X125403791Y-53850405D01*
X127125903Y-55572518D01*
X127159929Y-55634830D01*
X127158589Y-55691140D01*
X127158834Y-55691183D01*
X127158550Y-55692794D01*
X127158516Y-55694220D01*
X127156455Y-55701913D01*
X127136500Y-55930000D01*
X127156455Y-56158087D01*
X127184540Y-56262901D01*
X127182850Y-56333876D01*
X127143056Y-56392672D01*
X127077792Y-56420620D01*
X127062833Y-56421511D01*
X124050317Y-56421511D01*
X123982196Y-56401509D01*
X123961222Y-56384607D01*
X123042936Y-55466322D01*
X123037082Y-55460055D01*
X123005692Y-55424072D01*
X123000696Y-55418345D01*
X122950360Y-55382968D01*
X122945074Y-55379042D01*
X122937367Y-55373000D01*
X122896661Y-55341082D01*
X122889732Y-55337954D01*
X122885380Y-55335318D01*
X122876030Y-55329985D01*
X122871566Y-55327591D01*
X122865351Y-55323223D01*
X122858276Y-55320464D01*
X122858273Y-55320463D01*
X122808032Y-55300875D01*
X122801951Y-55298319D01*
X122752813Y-55276132D01*
X122752811Y-55276131D01*
X122745889Y-55273006D01*
X122738420Y-55271622D01*
X122733574Y-55270103D01*
X122723163Y-55267138D01*
X122718301Y-55265890D01*
X122711223Y-55263130D01*
X122680076Y-55259030D01*
X122650206Y-55255097D01*
X122643692Y-55254065D01*
X122590700Y-55244244D01*
X122590698Y-55244244D01*
X122583231Y-55242860D01*
X122575650Y-55243297D01*
X122575649Y-55243297D01*
X122523723Y-55246291D01*
X122516470Y-55246500D01*
X122269142Y-55246500D01*
X122201021Y-55226498D01*
X122154528Y-55172842D01*
X122143463Y-55129488D01*
X122138755Y-55063660D01*
X122138273Y-55056921D01*
X122097096Y-54916684D01*
X122072574Y-54878528D01*
X122022949Y-54801309D01*
X122022947Y-54801306D01*
X122018077Y-54793729D01*
X121986709Y-54766548D01*
X121914431Y-54703918D01*
X121914428Y-54703916D01*
X121907619Y-54698016D01*
X121894711Y-54692121D01*
X121782864Y-54641042D01*
X121782863Y-54641042D01*
X121774670Y-54637300D01*
X121765755Y-54636018D01*
X121765754Y-54636018D01*
X121634448Y-54617139D01*
X121634441Y-54617138D01*
X121630000Y-54616500D01*
X120484305Y-54616500D01*
X120416184Y-54596498D01*
X120369691Y-54542842D01*
X120359587Y-54472568D01*
X120389081Y-54407988D01*
X120395210Y-54401405D01*
X120416210Y-54380405D01*
X120478522Y-54346379D01*
X120505305Y-54343500D01*
X121600000Y-54343500D01*
X121673079Y-54338273D01*
X121751165Y-54315345D01*
X121804670Y-54299635D01*
X121804672Y-54299634D01*
X121813316Y-54297096D01*
X121858940Y-54267775D01*
X121928691Y-54222949D01*
X121928694Y-54222947D01*
X121936271Y-54218077D01*
X121942172Y-54211267D01*
X122026082Y-54114431D01*
X122026084Y-54114428D01*
X122031984Y-54107619D01*
X122062933Y-54039850D01*
X122088958Y-53982864D01*
X122088958Y-53982863D01*
X122092700Y-53974670D01*
X122093982Y-53965754D01*
X122093984Y-53965747D01*
X122100336Y-53921568D01*
X122129829Y-53856987D01*
X122189555Y-53818604D01*
X122225053Y-53813500D01*
X125314696Y-53813500D01*
X125382817Y-53833502D01*
G37*
G04 #@! TD.AperFunction*
G04 #@! TD*
M02*
